<?xml version="1.0" standalone="no"?>
<!DOCTYPE svg PUBLIC "-//W3C//DTD SVG 20010904//EN"
 "http://www.w3.org/TR/2001/REC-SVG-20010904/DTD/svg10.dtd">
<svg version="1.0" xmlns="http://www.w3.org/2000/svg"
 width="276.000000pt" height="276.000000pt" viewBox="0 0 276.000000 276.000000"
 preserveAspectRatio="xMidYMid meet">
<metadata>
Created by potrace 1.11, written by Peter Selinger 2001-2013
</metadata>
<g transform="translate(0.000000,276.000000) scale(0.100000,-0.100000)"
fill="#000000" stroke="none">
<path d="M525 2703 c-101 -13 -208 -67 -289 -146 -101 -99 -154 -228 -151
-367 3 -101 13 -128 138 -390 136 -285 162 -341 207 -435 77 -163 147 -309
236 -494 46 -95 84 -176 84 -180 0 -4 26 -47 58 -96 152 -236 392 -393 682
-450 118 -23 320 -6 470 39 239 73 464 266 583 503 52 103 115 312 101 334 -2
4 -1 10 4 13 6 4 9 211 2 211 -1 0 -3 15 -6 34 -27 207 -142 431 -301 581 -91
87 -173 141 -323 213 -63 30 -230 110 -370 177 -140 67 -306 147 -367 176
-302 145 -354 169 -439 209 -50 24 -109 48 -131 54 -45 12 -143 19 -188 14z"/>
</g>
</svg>
