<svg id="Layer_1" data-name="Layer 1" xmlns="http://www.w3.org/2000/svg" xmlns:xlink="http://www.w3.org/1999/xlink" viewBox="0 0 371 373"><defs><style>.cls-1{fill:none;}.cls-2{clip-path:url(#clip-path);}.cls-3,.cls-4{isolation:isolate;}.cls-4{mix-blend-mode:multiply;}.cls-5{clip-path:url(#clip-path-4);}.cls-6{clip-path:url(#clip-path-5);}.cls-7{fill:#ffdc3f;}.cls-8{clip-path:url(#clip-path-7);}.cls-9{clip-path:url(#clip-path-8);}.cls-10{clip-path:url(#clip-path-10);}.cls-11{clip-path:url(#clip-path-11);}.cls-12{clip-path:url(#clip-path-13);}.cls-13{clip-path:url(#clip-path-14);}.cls-14{clip-path:url(#clip-path-19);}.cls-15{clip-path:url(#clip-path-20);}.cls-16{clip-path:url(#clip-path-22);}.cls-17{clip-path:url(#clip-path-23);}.cls-18{clip-path:url(#clip-path-26);}.cls-19{clip-path:url(#clip-path-29);}.cls-20{clip-path:url(#clip-path-31);}.cls-21{clip-path:url(#clip-path-32);}.cls-22{clip-path:url(#clip-path-34);}.cls-23{clip-path:url(#clip-path-35);}.cls-24{clip-path:url(#clip-path-37);}.cls-25{clip-path:url(#clip-path-38);}.cls-26{clip-path:url(#clip-path-40);}.cls-27{clip-path:url(#clip-path-41);}.cls-28{clip-path:url(#clip-path-46);}.cls-29{clip-path:url(#clip-path-47);}.cls-30{clip-path:url(#clip-path-49);}.cls-31{clip-path:url(#clip-path-50);}.cls-32{clip-path:url(#clip-path-53);}.cls-33{clip-path:url(#clip-path-56);}.cls-34{clip-path:url(#clip-path-58);}.cls-35{clip-path:url(#clip-path-59);}.cls-36{clip-path:url(#clip-path-61);}.cls-37{clip-path:url(#clip-path-62);}.cls-38{clip-path:url(#clip-path-64);}.cls-39{clip-path:url(#clip-path-65);}.cls-40{clip-path:url(#clip-path-67);}.cls-41{clip-path:url(#clip-path-68);}.cls-42{clip-path:url(#clip-path-73);}.cls-43{clip-path:url(#clip-path-74);}.cls-44{clip-path:url(#clip-path-76);}.cls-45{clip-path:url(#clip-path-77);}.cls-46{clip-path:url(#clip-path-80);}.cls-47{clip-path:url(#clip-path-83);}.cls-48{clip-path:url(#clip-path-85);}.cls-49{clip-path:url(#clip-path-86);}.cls-50{clip-path:url(#clip-path-88);}.cls-51{clip-path:url(#clip-path-89);}.cls-52{clip-path:url(#clip-path-91);}.cls-53{clip-path:url(#clip-path-92);}.cls-54{clip-path:url(#clip-path-94);}.cls-55{clip-path:url(#clip-path-95);}.cls-56{clip-path:url(#clip-path-100);}.cls-57{clip-path:url(#clip-path-101);}.cls-58{clip-path:url(#clip-path-103);}.cls-59{clip-path:url(#clip-path-104);}.cls-60{clip-path:url(#clip-path-107);}.cls-61{clip-path:url(#clip-path-110);}.cls-62{clip-path:url(#clip-path-112);}.cls-63{clip-path:url(#clip-path-113);}.cls-64{fill:#9dcaed;}.cls-65{clip-path:url(#clip-path-115);}.cls-66{clip-path:url(#clip-path-116);}.cls-67{clip-path:url(#clip-path-118);}.cls-68{clip-path:url(#clip-path-119);}.cls-69{clip-path:url(#clip-path-121);}.cls-70{clip-path:url(#clip-path-122);}.cls-71{clip-path:url(#clip-path-127);}.cls-72{clip-path:url(#clip-path-128);}.cls-73{clip-path:url(#clip-path-130);}.cls-74{clip-path:url(#clip-path-131);}.cls-75{clip-path:url(#clip-path-134);}.cls-76{clip-path:url(#clip-path-137);}.cls-77{clip-path:url(#clip-path-139);}.cls-78{clip-path:url(#clip-path-140);}.cls-79{clip-path:url(#clip-path-142);}.cls-80{clip-path:url(#clip-path-143);}.cls-81{clip-path:url(#clip-path-145);}.cls-82{clip-path:url(#clip-path-146);}.cls-83{clip-path:url(#clip-path-148);}.cls-84{clip-path:url(#clip-path-149);}.cls-85{clip-path:url(#clip-path-154);}.cls-86{clip-path:url(#clip-path-155);}.cls-87{clip-path:url(#clip-path-157);}.cls-88{clip-path:url(#clip-path-158);}.cls-89{clip-path:url(#clip-path-161);}.cls-90{clip-path:url(#clip-path-164);}.cls-91{clip-path:url(#clip-path-166);}.cls-92{clip-path:url(#clip-path-167);}.cls-93{clip-path:url(#clip-path-169);}.cls-94{clip-path:url(#clip-path-170);}.cls-95{clip-path:url(#clip-path-172);}.cls-96{clip-path:url(#clip-path-173);}.cls-97{clip-path:url(#clip-path-175);}.cls-98{clip-path:url(#clip-path-176);}.cls-99{clip-path:url(#clip-path-181);}.cls-100{clip-path:url(#clip-path-182);}.cls-101{clip-path:url(#clip-path-184);}.cls-102{clip-path:url(#clip-path-185);}.cls-103{clip-path:url(#clip-path-188);}.cls-104{clip-path:url(#clip-path-191);}.cls-105{clip-path:url(#clip-path-193);}.cls-106{clip-path:url(#clip-path-194);}.cls-107{clip-path:url(#clip-path-196);}.cls-108{clip-path:url(#clip-path-197);}.cls-109{clip-path:url(#clip-path-199);}.cls-110{clip-path:url(#clip-path-200);}.cls-111{clip-path:url(#clip-path-202);}.cls-112{clip-path:url(#clip-path-203);}.cls-113{clip-path:url(#clip-path-208);}.cls-114{clip-path:url(#clip-path-209);}.cls-115{clip-path:url(#clip-path-211);}.cls-116{clip-path:url(#clip-path-212);}.cls-117{clip-path:url(#clip-path-215);}.cls-118{clip-path:url(#clip-path-218);}</style><clipPath id="clip-path"><rect class="cls-1" x="7" y="9" width="358" height="358"/></clipPath><clipPath id="clip-path-4"><rect class="cls-1" x="146" y="48" width="80" height="160"/></clipPath><clipPath id="clip-path-5"><rect class="cls-1" x="146.22" y="48.78" width="79.55" height="159.04"/></clipPath><clipPath id="clip-path-7"><rect class="cls-1" x="172" y="75" width="28" height="54"/></clipPath><clipPath id="clip-path-8"><rect class="cls-1" x="172.74" y="75.3" width="26.52" height="52.97"/></clipPath><clipPath id="clip-path-10"><rect class="cls-1" x="119" y="22" width="134" height="213"/></clipPath><clipPath id="clip-path-11"><rect class="cls-1" x="119.7" y="22.26" width="132.59" height="212.15"/></clipPath><clipPath id="clip-path-13"><rect class="cls-1" x="106" y="9" width="160" height="239"/></clipPath><clipPath id="clip-path-14"><rect class="cls-1" x="106.44" y="9" width="159.11" height="238.67"/></clipPath><clipPath id="clip-path-19"><rect class="cls-1" x="132" y="35" width="108" height="187"/></clipPath><clipPath id="clip-path-20"><rect class="cls-1" x="132.96" y="35.52" width="106.07" height="185.63"/></clipPath><clipPath id="clip-path-22"><rect class="cls-1" x="159" y="62" width="54" height="107"/></clipPath><clipPath id="clip-path-23"><rect class="cls-1" x="159.48" y="62.04" width="53.04" height="106.04"/></clipPath><clipPath id="clip-path-26"><rect class="cls-1" x="132.98" y="35.53" width="106.07" height="185.63"/></clipPath><clipPath id="clip-path-29"><rect class="cls-1" x="159.49" y="62.05" width="53.04" height="106.04"/></clipPath><clipPath id="clip-path-31"><rect class="cls-1" x="146" y="168" width="80" height="160"/></clipPath><clipPath id="clip-path-32"><rect class="cls-1" x="146.22" y="168.18" width="79.55" height="159.04"/></clipPath><clipPath id="clip-path-34"><rect class="cls-1" x="172" y="247" width="28" height="54"/></clipPath><clipPath id="clip-path-35"><rect class="cls-1" x="172.74" y="247.74" width="26.52" height="52.97"/></clipPath><clipPath id="clip-path-37"><rect class="cls-1" x="119" y="141" width="134" height="213"/></clipPath><clipPath id="clip-path-38"><rect class="cls-1" x="119.7" y="141.59" width="132.59" height="212.15"/></clipPath><clipPath id="clip-path-40"><rect class="cls-1" x="106" y="128" width="160" height="239"/></clipPath><clipPath id="clip-path-41"><rect class="cls-1" x="106.44" y="128.33" width="159.11" height="238.67"/></clipPath><clipPath id="clip-path-46"><rect class="cls-1" x="132" y="154" width="108" height="187"/></clipPath><clipPath id="clip-path-47"><rect class="cls-1" x="132.96" y="154.85" width="106.07" height="185.63"/></clipPath><clipPath id="clip-path-49"><rect class="cls-1" x="159" y="207" width="54" height="107"/></clipPath><clipPath id="clip-path-50"><rect class="cls-1" x="159.48" y="207.92" width="53.04" height="106.04"/></clipPath><clipPath id="clip-path-53"><rect class="cls-1" x="132.95" y="154.84" width="106.07" height="185.63"/></clipPath><clipPath id="clip-path-56"><rect class="cls-1" x="159.47" y="207.91" width="53.04" height="106.04"/></clipPath><clipPath id="clip-path-58"><rect class="cls-1" x="46" y="148" width="160" height="80"/></clipPath><clipPath id="clip-path-59"><rect class="cls-1" x="46.78" y="148.22" width="159.04" height="79.56"/></clipPath><clipPath id="clip-path-61"><rect class="cls-1" x="73" y="174" width="54" height="28"/></clipPath><clipPath id="clip-path-62"><rect class="cls-1" x="73.3" y="174.74" width="52.97" height="26.52"/></clipPath><clipPath id="clip-path-64"><rect class="cls-1" x="20" y="121" width="213" height="134"/></clipPath><clipPath id="clip-path-65"><rect class="cls-1" x="20.26" y="121.7" width="212.15" height="132.59"/></clipPath><clipPath id="clip-path-67"><rect class="cls-1" x="7" y="108" width="239" height="160"/></clipPath><clipPath id="clip-path-68"><rect class="cls-1" x="7" y="108.44" width="238.67" height="159.11"/></clipPath><clipPath id="clip-path-73"><rect class="cls-1" x="33" y="134" width="187" height="108"/></clipPath><clipPath id="clip-path-74"><rect class="cls-1" x="33.52" y="134.96" width="185.63" height="106.07"/></clipPath><clipPath id="clip-path-76"><rect class="cls-1" x="60" y="161" width="107" height="54"/></clipPath><clipPath id="clip-path-77"><rect class="cls-1" x="60.04" y="161.48" width="106.04" height="53.04"/></clipPath><clipPath id="clip-path-80"><rect class="cls-1" x="33.53" y="134.95" width="185.63" height="106.07"/></clipPath><clipPath id="clip-path-83"><rect class="cls-1" x="60.05" y="161.47" width="106.04" height="53.04"/></clipPath><clipPath id="clip-path-85"><rect class="cls-1" x="166" y="148" width="160" height="80"/></clipPath><clipPath id="clip-path-86"><rect class="cls-1" x="166.18" y="148.22" width="159.04" height="79.56"/></clipPath><clipPath id="clip-path-88"><rect class="cls-1" x="245" y="174" width="54" height="28"/></clipPath><clipPath id="clip-path-89"><rect class="cls-1" x="245.74" y="174.74" width="52.96" height="26.52"/></clipPath><clipPath id="clip-path-91"><rect class="cls-1" x="139" y="121" width="213" height="134"/></clipPath><clipPath id="clip-path-92"><rect class="cls-1" x="139.59" y="121.7" width="212.15" height="132.59"/></clipPath><clipPath id="clip-path-94"><rect class="cls-1" x="126" y="108" width="239" height="160"/></clipPath><clipPath id="clip-path-95"><rect class="cls-1" x="126.33" y="108.44" width="238.67" height="159.11"/></clipPath><clipPath id="clip-path-100"><rect class="cls-1" x="152" y="134" width="187" height="108"/></clipPath><clipPath id="clip-path-101"><rect class="cls-1" x="152.85" y="134.96" width="185.63" height="106.07"/></clipPath><clipPath id="clip-path-103"><rect class="cls-1" x="205" y="161" width="107" height="54"/></clipPath><clipPath id="clip-path-104"><rect class="cls-1" x="205.92" y="161.48" width="106.04" height="53.04"/></clipPath><clipPath id="clip-path-107"><rect class="cls-1" x="152.84" y="134.98" width="185.63" height="106.07"/></clipPath><clipPath id="clip-path-110"><rect class="cls-1" x="205.91" y="161.49" width="106.04" height="53.04"/></clipPath><clipPath id="clip-path-112"><rect class="cls-1" x="87" y="89" width="125" height="125"/></clipPath><clipPath id="clip-path-113"><rect class="cls-1" x="87.57" y="89.59" width="124.11" height="124.11"/></clipPath><clipPath id="clip-path-115"><rect class="cls-1" x="143" y="145" width="43" height="43"/></clipPath><clipPath id="clip-path-116"><rect class="cls-1" x="143.85" y="145.86" width="41.33" height="41.33"/></clipPath><clipPath id="clip-path-118"><rect class="cls-1" x="61" y="63" width="178" height="178"/></clipPath><clipPath id="clip-path-119"><rect class="cls-1" x="61.03" y="63.04" width="177.16" height="177.16"/></clipPath><clipPath id="clip-path-121"><rect class="cls-1" x="47" y="49" width="205" height="205"/></clipPath><clipPath id="clip-path-122"><rect class="cls-1" x="47.77" y="49.78" width="203.71" height="203.71"/></clipPath><clipPath id="clip-path-127"><rect class="cls-1" x="74" y="76" width="151" height="151"/></clipPath><clipPath id="clip-path-128"><rect class="cls-1" x="74.3" y="76.32" width="150.64" height="150.63"/></clipPath><clipPath id="clip-path-130"><rect class="cls-1" x="115" y="117" width="84" height="84"/></clipPath><clipPath id="clip-path-131"><rect class="cls-1" x="115.69" y="117.71" width="82.74" height="82.74"/></clipPath><clipPath id="clip-path-134"><rect class="cls-1" x="74.28" y="76.32" width="150.64" height="150.63"/></clipPath><clipPath id="clip-path-137"><rect class="cls-1" x="115.68" y="117.71" width="82.74" height="82.74"/></clipPath><clipPath id="clip-path-139"><rect class="cls-1" x="160" y="162" width="125" height="125"/></clipPath><clipPath id="clip-path-140"><rect class="cls-1" x="160.29" y="162.3" width="124.11" height="124.11"/></clipPath><clipPath id="clip-path-142"><rect class="cls-1" x="186" y="188" width="43" height="43"/></clipPath><clipPath id="clip-path-143"><rect class="cls-1" x="186.8" y="188.81" width="41.33" height="41.33"/></clipPath><clipPath id="clip-path-145"><rect class="cls-1" x="133" y="135" width="178" height="178"/></clipPath><clipPath id="clip-path-146"><rect class="cls-1" x="133.79" y="135.8" width="177.16" height="177.16"/></clipPath><clipPath id="clip-path-148"><rect class="cls-1" x="120" y="122" width="205" height="205"/></clipPath><clipPath id="clip-path-149"><rect class="cls-1" x="120.49" y="122.51" width="203.71" height="203.71"/></clipPath><clipPath id="clip-path-154"><rect class="cls-1" x="147" y="149" width="151" height="151"/></clipPath><clipPath id="clip-path-155"><rect class="cls-1" x="147.04" y="149.05" width="150.64" height="150.63"/></clipPath><clipPath id="clip-path-157"><rect class="cls-1" x="173" y="175" width="84" height="84"/></clipPath><clipPath id="clip-path-158"><rect class="cls-1" x="173.55" y="175.56" width="82.74" height="82.74"/></clipPath><clipPath id="clip-path-161"><rect class="cls-1" x="147.05" y="149.05" width="150.64" height="150.63"/></clipPath><clipPath id="clip-path-164"><rect class="cls-1" x="173.56" y="175.56" width="82.74" height="82.74"/></clipPath><clipPath id="clip-path-166"><rect class="cls-1" x="87" y="162" width="125" height="125"/></clipPath><clipPath id="clip-path-167"><rect class="cls-1" x="87.57" y="162.3" width="124.11" height="124.11"/></clipPath><clipPath id="clip-path-169"><rect class="cls-1" x="143" y="188" width="43" height="43"/></clipPath><clipPath id="clip-path-170"><rect class="cls-1" x="143.85" y="188.81" width="41.33" height="41.33"/></clipPath><clipPath id="clip-path-172"><rect class="cls-1" x="61" y="135" width="178" height="178"/></clipPath><clipPath id="clip-path-173"><rect class="cls-1" x="61.03" y="135.8" width="177.16" height="177.16"/></clipPath><clipPath id="clip-path-175"><rect class="cls-1" x="47" y="122" width="205" height="205"/></clipPath><clipPath id="clip-path-176"><rect class="cls-1" x="47.77" y="122.51" width="203.71" height="203.71"/></clipPath><clipPath id="clip-path-181"><rect class="cls-1" x="74" y="149" width="151" height="151"/></clipPath><clipPath id="clip-path-182"><rect class="cls-1" x="74.31" y="149.05" width="150.63" height="150.64"/></clipPath><clipPath id="clip-path-184"><rect class="cls-1" x="115" y="175" width="84" height="84"/></clipPath><clipPath id="clip-path-185"><rect class="cls-1" x="115.69" y="175.56" width="82.74" height="82.74"/></clipPath><clipPath id="clip-path-188"><rect class="cls-1" x="74.31" y="149.07" width="150.63" height="150.64"/></clipPath><clipPath id="clip-path-191"><rect class="cls-1" x="115.69" y="175.58" width="82.74" height="82.73"/></clipPath><clipPath id="clip-path-193"><rect class="cls-1" x="160" y="89" width="125" height="125"/></clipPath><clipPath id="clip-path-194"><rect class="cls-1" x="160.29" y="89.58" width="124.11" height="124.11"/></clipPath><clipPath id="clip-path-196"><rect class="cls-1" x="186" y="145" width="43" height="43"/></clipPath><clipPath id="clip-path-197"><rect class="cls-1" x="186.8" y="145.86" width="41.33" height="41.33"/></clipPath><clipPath id="clip-path-199"><rect class="cls-1" x="133" y="63" width="178" height="178"/></clipPath><clipPath id="clip-path-200"><rect class="cls-1" x="133.78" y="63.04" width="177.16" height="177.16"/></clipPath><clipPath id="clip-path-202"><rect class="cls-1" x="120" y="49" width="205" height="205"/></clipPath><clipPath id="clip-path-203"><rect class="cls-1" x="120.49" y="49.78" width="203.71" height="203.71"/></clipPath><clipPath id="clip-path-208"><rect class="cls-1" x="147" y="76" width="151" height="151"/></clipPath><clipPath id="clip-path-209"><rect class="cls-1" x="147.04" y="76.31" width="150.63" height="150.64"/></clipPath><clipPath id="clip-path-211"><rect class="cls-1" x="173" y="117" width="84" height="84"/></clipPath><clipPath id="clip-path-212"><rect class="cls-1" x="173.54" y="117.7" width="82.74" height="82.74"/></clipPath><clipPath id="clip-path-215"><rect class="cls-1" x="147.04" y="76.29" width="150.63" height="150.64"/></clipPath><clipPath id="clip-path-218"><rect class="cls-1" x="173.54" y="117.69" width="82.74" height="82.73"/></clipPath></defs><title>icono_techos</title><g class="cls-2"><g class="cls-3"><g class="cls-2"><g class="cls-2"><g class="cls-4"><g class="cls-5"><g class="cls-6"><path class="cls-7" d="M146.22,88.56a39.49,39.49,0,0,0,2.68,14.34l.21.55.21.57L186,207.82H186L222.69,104l.2-.56.21-.56a39.78,39.78,0,1,0-76.88-14.34M186,62a26.52,26.52,0,0,1,24.74,36.07l-.29.74-.26.75L186,168.08,161.82,99.6l-.27-.75-.29-.74A26.52,26.52,0,0,1,186,62"/></g></g></g></g><g class="cls-2"><g class="cls-4"><g class="cls-8"><g class="cls-9"><path class="cls-7" d="M173.63,93.32l.36.93.33.93L186,128.26l11.69-33.08.32-.93.36-.93a12.89,12.89,0,0,0,.89-4.76,13.26,13.26,0,1,0-26.52,0,12.89,12.89,0,0,0,.89,4.76"/></g></g></g></g><g class="cls-2"><g class="cls-4"><g class="cls-10"><g class="cls-11"><path class="cls-7" d="M119.7,88.56a66,66,0,0,0,4.47,23.91l.07.19.07.19L161,216.65h0a26.52,26.52,0,0,0,50.06,0l.5.17-.5-.18,36.66-103.8.07-.19.07-.19A66.3,66.3,0,1,0,119.7,88.56m66.3-53a53,53,0,0,1,49.47,72.16l-.15.38-.13.37L198.53,212.24l0,0a13.26,13.26,0,0,1-25,0L136.81,108.43l-.13-.37-.15-.38A53,53,0,0,1,186,35.52"/></g></g></g><path class="cls-7" d="M124.24,112.66l.07.19L161,216.65h0a26.52,26.52,0,0,0,50.06,0l.49.17-.49-.18,36.66-103.8.07-.19.07-.19a66.3,66.3,0,1,0-123.66,0Z"/></g><g class="cls-2"><g class="cls-4"><g class="cls-12"><g class="cls-13"><path class="cls-7" d="M111.81,117.26l36.65,103.79a39.78,39.78,0,0,0,75.08,0l36.65-103.8a79.56,79.56,0,1,0-148.38,0m74.19-95a66.28,66.28,0,0,1,61.83,90.21l-.07.19-.07.19L211,216.65l.5.18-.5-.17a26.52,26.52,0,0,1-50.06,0h0l-36.66-103.8-.07-.19-.07-.19A66.28,66.28,0,0,1,186,22.26"/></g></g></g></g><g class="cls-2"><g class="cls-4"><g class="cls-12"><g class="cls-13"><path class="cls-7" d="M111.81,117.26l36.65,103.79a39.78,39.78,0,0,0,75.08,0l36.65-103.8a79.56,79.56,0,1,0-148.38,0m74.19-95a66.28,66.28,0,0,1,61.83,90.21l-.07.19-.07.19L211,216.65l.5.18-.5-.17a26.52,26.52,0,0,1-50.06,0h0l-36.66-103.8-.07-.19-.07-.19A66.28,66.28,0,0,1,186,22.26"/></g></g></g></g><g class="cls-2"><g class="cls-4"><g class="cls-14"><g class="cls-15"><path class="cls-7" d="M133,88.56a53,53,0,0,0,3.57,19.13l.15.37.13.37,36.66,103.81a13.26,13.26,0,0,0,25,0l0,0,36.66-103.81.13-.37.15-.37A53,53,0,1,0,133,88.56m53,119.33h0l0,0,0,0m0-159.11a39.77,39.77,0,0,1,37.1,54.12l-.21.56-.2.56L186,207.82H186L149.32,104l-.21-.57-.21-.55A39.77,39.77,0,0,1,186,48.78"/></g></g></g></g><g class="cls-2"><g class="cls-4"><g class="cls-16"><g class="cls-17"><path class="cls-7" d="M161.26,98.11l.29.74.27.75L186,168.08,210.19,99.6l.26-.75.29-.74a26.52,26.52,0,1,0-49.48,0M186,75.3a13.27,13.27,0,0,1,13.26,13.26,12.89,12.89,0,0,1-.89,4.76l-.36.93-.32.93L186,128.26,174.32,95.18l-.33-.93-.36-.93a12.89,12.89,0,0,1-.89-4.76A13.27,13.27,0,0,1,186,75.3"/></g></g></g></g><g class="cls-2"><g class="cls-4"><g class="cls-14"><g class="cls-18"><path class="cls-7" d="M136.69,108.07l.13.37,36.66,103.81a13.27,13.27,0,0,0,25.05,0v0L235.2,108.44l.13-.37.15-.37a53,53,0,1,0-98.93,0ZM186,207.9h0l0,0,0,0m0-159.11a39.77,39.77,0,0,1,37.1,54.12l-.21.56-.2.56L186,207.84h0L149.33,104l-.2-.56-.22-.56A39.79,39.79,0,0,1,186,48.79"/></g></g></g></g><g class="cls-2"><g class="cls-4"><g class="cls-16"><g class="cls-19"><path class="cls-7" d="M161.56,98.86l.27.75L186,168.09,210.2,99.61l.26-.75.29-.74a26.53,26.53,0,1,0-49.47,0ZM186,75.31a13.28,13.28,0,0,1,13.26,13.26,12.89,12.89,0,0,1-.89,4.76l-.35.93-.33.94L186,128.28,174.33,95.2l-.33-.94-.36-.93a12.89,12.89,0,0,1-.89-4.76A13.28,13.28,0,0,1,186,75.31"/></g></g></g></g><g class="cls-2"><g class="cls-4"><g class="cls-20"><g class="cls-21"><path class="cls-7" d="M225.78,287.44a39.49,39.49,0,0,0-2.68-14.34l-.21-.55-.21-.57L186,168.18H186L149.31,272l-.2.56-.21.56a39.78,39.78,0,1,0,76.88,14.34M186,314a26.52,26.52,0,0,1-24.74-36.07l.29-.74.26-.75L186,207.92l24.18,68.48.27.75.29.74A26.52,26.52,0,0,1,186,314"/></g></g></g></g><g class="cls-2"><g class="cls-4"><g class="cls-22"><g class="cls-23"><path class="cls-7" d="M198.37,282.68l-.36-.93-.33-.93L186,247.74l-11.69,33.08-.32.93-.36.93a12.89,12.89,0,0,0-.89,4.76,13.26,13.26,0,0,0,26.52,0,12.89,12.89,0,0,0-.89-4.76"/></g></g></g></g><g class="cls-2"><g class="cls-4"><g class="cls-24"><g class="cls-25"><path class="cls-7" d="M252.3,287.44a66,66,0,0,0-4.47-23.91l-.07-.19-.07-.19L211,159.35h0a26.52,26.52,0,0,0-50.06,0l-.49-.17.49.18-36.66,103.8-.07.19-.07.19A66.3,66.3,0,1,0,252.3,287.44m-66.3,53a53,53,0,0,1-49.47-72.17l.15-.37.13-.37,36.66-103.81,0,0a13.26,13.26,0,0,1,25,0l36.66,103.81.13.37.15.37A53,53,0,0,1,186,340.48"/></g></g></g><path class="cls-7" d="M247.76,263.34l-.07-.19L211,159.34h0a26.52,26.52,0,0,0-50.06,0l-.49-.17.49.17L124.31,263.15l-.07.19-.07.19a66.3,66.3,0,1,0,123.66,0Z"/></g><g class="cls-2"><g class="cls-4"><g class="cls-26"><g class="cls-27"><path class="cls-7" d="M260.19,258.74,223.54,155a39.78,39.78,0,0,0-75.08,0l-36.65,103.8a79.56,79.56,0,1,0,148.38,0m-74.19,95a66.29,66.29,0,0,1-61.83-90.22l.07-.18.07-.19L161,159.35l-.49-.18.49.17a26.52,26.52,0,0,1,50.06,0h0l36.66,103.8.07.19.07.18A66.29,66.29,0,0,1,186,353.74"/></g></g></g></g><g class="cls-2"><g class="cls-4"><g class="cls-26"><g class="cls-27"><path class="cls-7" d="M260.19,258.74,223.54,155a39.78,39.78,0,0,0-75.08,0l-36.65,103.8a79.56,79.56,0,1,0,148.38,0m-74.19,95a66.29,66.29,0,0,1-61.83-90.22l.07-.18.07-.19L161,159.35l-.49-.18.49.17a26.52,26.52,0,0,1,50.06,0h0l36.66,103.8.07.19.07.18A66.29,66.29,0,0,1,186,353.74"/></g></g></g></g><g class="cls-2"><g class="cls-4"><g class="cls-28"><g class="cls-29"><path class="cls-7" d="M239,287.44a53,53,0,0,0-3.57-19.13l-.15-.37-.13-.37L198.53,163.76a13.26,13.26,0,0,0-25,0l0,0L136.81,267.57l-.13.37-.15.37A53,53,0,1,0,239,287.44M186,168.11h0l0,0,0,0m0,159.11a39.77,39.77,0,0,1-37.1-54.12l.21-.56.2-.56L186,168.18H186L222.68,272l.21.57.21.55A39.77,39.77,0,0,1,186,327.22"/></g></g></g></g><g class="cls-2"><g class="cls-4"><g class="cls-30"><g class="cls-31"><path class="cls-7" d="M210.74,277.89l-.29-.74-.27-.75L186,207.92,161.81,276.4l-.26.75-.29.74a26.52,26.52,0,1,0,49.48,0M186,300.7a13.27,13.27,0,0,1-13.26-13.26,12.89,12.89,0,0,1,.89-4.76l.36-.93.32-.93L186,247.74l11.68,33.08.33.93.36.93a12.89,12.89,0,0,1,.89,4.76A13.27,13.27,0,0,1,186,300.7"/></g></g></g></g><g class="cls-2"><g class="cls-4"><g class="cls-28"><g class="cls-32"><path class="cls-7" d="M235.31,267.93l-.13-.38-36.66-103.8a13.27,13.27,0,0,0-25.05,0v0L136.8,267.55l-.13.38-.15.37a53,53,0,1,0,98.93,0ZM186,168.1h0l0,0,0,0m0,159.11a39.77,39.77,0,0,1-37.1-54.12l.21-.56.2-.56L186,168.16h0L222.67,272l.2.56.22.56A39.79,39.79,0,0,1,186,327.21"/></g></g></g></g><g class="cls-2"><g class="cls-4"><g class="cls-30"><g class="cls-33"><path class="cls-7" d="M210.44,277.14l-.27-.75L186,207.91,161.8,276.39l-.26.75-.29.74a26.53,26.53,0,1,0,49.47,0ZM186,300.69a13.28,13.28,0,0,1-13.26-13.26,12.89,12.89,0,0,1,.89-4.76l.35-.93.33-.94L186,247.72l11.68,33.08.33.94.36.93a12.89,12.89,0,0,1,.89,4.76A13.28,13.28,0,0,1,186,300.69"/></g></g></g></g><g class="cls-2"><g class="cls-4"><g class="cls-34"><g class="cls-35"><path class="cls-7" d="M86.56,227.78a39.49,39.49,0,0,0,14.34-2.68l.55-.21.57-.21L205.82,188V188L102,151.31l-.56-.2-.56-.21a39.78,39.78,0,1,0-14.34,76.88M60,188a26.52,26.52,0,0,1,36.07-24.74l.74.29.75.26L166.08,188,97.6,212.18l-.75.27-.74.29A26.52,26.52,0,0,1,60,188"/></g></g></g></g><g class="cls-2"><g class="cls-4"><g class="cls-36"><g class="cls-37"><path class="cls-7" d="M91.32,200.37l.93-.36.93-.33L126.26,188,93.18,176.31l-.93-.32-.93-.36a12.89,12.89,0,0,0-4.76-.89,13.26,13.26,0,0,0,0,26.52,12.89,12.89,0,0,0,4.76-.89"/></g></g></g></g><g class="cls-2"><g class="cls-4"><g class="cls-38"><g class="cls-39"><path class="cls-7" d="M86.56,254.3a66.13,66.13,0,0,0,23.92-4.47l.18-.07.19-.07L214.65,213h0a26.52,26.52,0,0,0,0-50.06l.17-.5-.18.5-103.8-36.66-.19-.07-.18-.07A66.3,66.3,0,1,0,86.56,254.3m-53-66.3a53,53,0,0,1,72.17-49.47l.37.15.37.13,103.81,36.66,0,0a13.26,13.26,0,0,1,0,25L106.43,237.19l-.37.13-.37.14A53,53,0,0,1,33.52,188"/></g></g></g><path class="cls-7" d="M110.66,249.76l.19-.07L214.65,213h0a26.52,26.52,0,0,0,0-50.06l.17-.5-.18.5-103.8-36.66-.19-.07-.19-.07a66.3,66.3,0,1,0,0,123.66Z"/></g><g class="cls-2"><g class="cls-4"><g class="cls-40"><g class="cls-41"><path class="cls-7" d="M115.26,262.19l103.79-36.65a39.78,39.78,0,0,0,0-75.08L115.26,113.8a79.57,79.57,0,1,0,0,148.39M20.26,188a66.28,66.28,0,0,1,90.21-61.83l.19.07.19.07L214.66,163l.17-.5-.17.5a26.52,26.52,0,0,1,0,50.06h0L110.85,249.69l-.19.07-.19.07A66.28,66.28,0,0,1,20.26,188"/></g></g></g></g><g class="cls-2"><g class="cls-4"><g class="cls-40"><g class="cls-41"><path class="cls-7" d="M115.26,262.19l103.79-36.65a39.78,39.78,0,0,0,0-75.08L115.26,113.8a79.57,79.57,0,1,0,0,148.39M20.26,188a66.28,66.28,0,0,1,90.21-61.83l.19.07.19.07L214.66,163l.17-.5-.17.5a26.52,26.52,0,0,1,0,50.06h0L110.85,249.69l-.19.07-.19.07A66.28,66.28,0,0,1,20.26,188"/></g></g></g></g><g class="cls-2"><g class="cls-4"><g class="cls-42"><g class="cls-43"><path class="cls-7" d="M86.56,241a52.79,52.79,0,0,0,19.13-3.58l.37-.14.37-.13,103.81-36.66a13.26,13.26,0,0,0,0-25l0,0L106.43,138.81l-.37-.13-.37-.15A53,53,0,1,0,86.56,241m119.33-53h0a0,0,0,0,0,0,0v0l0,0,0,0M46.78,188a39.77,39.77,0,0,1,54.12-37.1l.56.21.56.2L205.82,188V188L102,224.68l-.57.21-.55.21A39.77,39.77,0,0,1,46.78,188"/></g></g></g></g><g class="cls-2"><g class="cls-4"><g class="cls-44"><g class="cls-45"><path class="cls-7" d="M96.11,212.74l.74-.29.75-.27L166.08,188,97.6,163.81l-.75-.26-.74-.29a26.52,26.52,0,1,0,0,49.48M73.3,188a13.27,13.27,0,0,1,13.26-13.26,12.89,12.89,0,0,1,4.76.89l.93.36.93.32L126.26,188,93.18,199.68l-.93.33-.93.36a12.89,12.89,0,0,1-4.76.89A13.27,13.27,0,0,1,73.3,188"/></g></g></g></g><g class="cls-2"><g class="cls-4"><g class="cls-42"><g class="cls-46"><path class="cls-7" d="M106.07,237.31l.37-.13,103.81-36.67a13.26,13.26,0,0,0,0-25h0L106.44,138.8l-.37-.13-.37-.15a53,53,0,1,0,0,98.93ZM205.9,188h0a0,0,0,0,0,0,0v0l0,0,0,0M46.79,188a39.79,39.79,0,0,1,54.12-37.11l.56.22.56.2L205.84,188v0L102,224.67l-.56.2-.56.22A39.79,39.79,0,0,1,46.79,188"/></g></g></g></g><g class="cls-2"><g class="cls-4"><g class="cls-44"><g class="cls-47"><path class="cls-7" d="M96.86,212.44l.75-.27L166.09,188,97.61,163.8l-.75-.26-.74-.29a26.52,26.52,0,1,0,0,49.48ZM73.31,188a13.28,13.28,0,0,1,13.26-13.26,12.89,12.89,0,0,1,4.76.89l.93.35.94.33L126.28,188,93.2,199.67l-.94.33-.93.36a12.89,12.89,0,0,1-4.76.89A13.28,13.28,0,0,1,73.31,188"/></g></g></g></g><g class="cls-2"><g class="cls-4"><g class="cls-48"><g class="cls-49"><path class="cls-7" d="M285.44,148.22a39.49,39.49,0,0,0-14.34,2.68l-.55.21-.57.21L166.18,188v0L270,224.69l.56.2.56.21a39.78,39.78,0,1,0,14.34-76.88M312,188a26.52,26.52,0,0,1-36.07,24.74l-.74-.29-.75-.26L205.92,188l68.48-24.18.75-.27.74-.29A26.52,26.52,0,0,1,312,188"/></g></g></g></g><g class="cls-2"><g class="cls-4"><g class="cls-50"><g class="cls-51"><path class="cls-7" d="M280.68,175.63l-.93.36-.94.33L245.74,188l33.07,11.68.94.33.93.36a12.89,12.89,0,0,0,4.76.89,13.26,13.26,0,0,0,0-26.52,12.89,12.89,0,0,0-4.76.89"/></g></g></g></g><g class="cls-2"><g class="cls-4"><g class="cls-52"><g class="cls-53"><path class="cls-7" d="M285.44,121.7a66.09,66.09,0,0,0-23.92,4.47l-.18.07-.19.07L157.34,163h0a26.52,26.52,0,0,0,0,50.06l-.17.5.17-.5,103.81,36.66.19.07.18.07A66.3,66.3,0,1,0,285.44,121.7m53,66.3a53,53,0,0,1-72.17,49.47l-.37-.15-.37-.13L161.76,200.53l0,0a13.26,13.26,0,0,1,0-25l103.81-36.66.37-.13.37-.15A53,53,0,0,1,338.48,188"/></g></g></g><path class="cls-7" d="M261.34,126.24l-.19.07L157.34,163h0a26.52,26.52,0,0,0,0,50.06l-.17.5.17-.5,103.81,36.66.19.07.19.07a66.3,66.3,0,1,0,0-123.66Z"/></g><g class="cls-2"><g class="cls-4"><g class="cls-54"><g class="cls-55"><path class="cls-7" d="M256.74,113.8,153,150.46a39.78,39.78,0,0,0,0,75.08l103.8,36.65a79.56,79.56,0,1,0,0-148.39m95,74.2a66.28,66.28,0,0,1-90.21,61.83l-.19-.07-.19-.07L157.34,213l-.17.5.17-.5a26.52,26.52,0,0,1,0-50.06h0l103.81-36.66.19-.07.19-.07A66.28,66.28,0,0,1,351.74,188"/></g></g></g></g><g class="cls-2"><g class="cls-4"><g class="cls-54"><g class="cls-55"><path class="cls-7" d="M256.74,113.8,153,150.46a39.78,39.78,0,0,0,0,75.08l103.8,36.65a79.56,79.56,0,1,0,0-148.39m95,74.2a66.28,66.28,0,0,1-90.21,61.83l-.19-.07-.19-.07L157.34,213l-.17.5.17-.5a26.52,26.52,0,0,1,0-50.06h0l103.81-36.66.19-.07.19-.07A66.28,66.28,0,0,1,351.74,188"/></g></g></g></g><g class="cls-2"><g class="cls-4"><g class="cls-56"><g class="cls-57"><path class="cls-7" d="M285.44,135a53,53,0,0,0-19.13,3.57l-.37.15-.37.13L161.76,175.47a13.26,13.26,0,0,0,0,25l0,0,103.81,36.66.37.13.37.15A53,53,0,1,0,285.44,135M166.11,188h0v0l0,0,0,0m159.11,0a39.77,39.77,0,0,1-54.12,37.1l-.56-.21-.56-.2L166.18,188v0L270,151.32l.57-.21.55-.21A39.77,39.77,0,0,1,325.22,188"/></g></g></g></g><g class="cls-2"><g class="cls-4"><g class="cls-58"><g class="cls-59"><path class="cls-7" d="M275.89,163.26l-.74.29-.75.27L205.92,188l68.48,24.19.75.26.74.29a26.52,26.52,0,1,0,0-49.48M298.7,188a13.28,13.28,0,0,1-13.26,13.26,12.89,12.89,0,0,1-4.76-.89l-.93-.36-.94-.33L245.74,188l33.07-11.68.94-.33.93-.36a12.89,12.89,0,0,1,4.76-.89A13.28,13.28,0,0,1,298.7,188"/></g></g></g></g><g class="cls-2"><g class="cls-4"><g class="cls-56"><g class="cls-60"><path class="cls-7" d="M265.93,138.69l-.38.13-103.8,36.67a13.26,13.26,0,0,0,0,25h0l103.8,36.66.38.13.37.15a53,53,0,1,0,0-98.93ZM166.1,188h0a0,0,0,0,0,0,0v0l0,0,0,0m159.11,0a39.77,39.77,0,0,1-54.12,37.1l-.56-.21-.56-.2L166.16,188v0L270,151.33l.56-.2.56-.22A39.79,39.79,0,0,1,325.21,188"/></g></g></g></g><g class="cls-2"><g class="cls-4"><g class="cls-58"><g class="cls-61"><path class="cls-7" d="M275.14,163.56l-.75.27L205.91,188l68.48,24.19.75.26.74.29a26.52,26.52,0,1,0,0-49.48ZM298.69,188a13.28,13.28,0,0,1-13.26,13.26,12.85,12.85,0,0,1-4.76-.89l-.93-.35-.94-.33L245.72,188l33.08-11.68.94-.33.93-.36a12.85,12.85,0,0,1,4.76-.89A13.28,13.28,0,0,1,298.69,188"/></g></g></g></g><g class="cls-2"><g class="cls-4"><g class="cls-62"><g class="cls-63"><path class="cls-64" d="M200.05,145.81a39.61,39.61,0,0,0-12-8.25l-.54-.24-.54-.26L87.61,89.59l0,0L135.05,189l.26.53.24.55a39.27,39.27,0,0,0,8.25,12,39.77,39.77,0,0,0,56.25-56.25m-9.38,46.88a26.52,26.52,0,0,1-43-8l-.32-.72-.34-.72-31.32-65.52L181.22,149l.71.34.73.32a26.2,26.2,0,0,1,8,5.5,26.54,26.54,0,0,1,0,37.5"/></g></g></g></g><g class="cls-2"><g class="cls-4"><g class="cls-65"><g class="cls-66"><path class="cls-64" d="M177.3,161.82l-.91-.4-.89-.43-31.65-15.13L159,177.51l.43.9.4.9a12.81,12.81,0,0,0,2.75,4,13.26,13.26,0,0,0,18.75-18.75,13,13,0,0,0-4-2.74"/></g></g></g></g><g class="cls-2"><g class="cls-4"><g class="cls-67"><g class="cls-68"><path class="cls-64" d="M218.8,127.06a66,66,0,0,0-20.07-13.76l-.18-.08-.18-.08L99,65.66h0a26.53,26.53,0,0,0-35.4,35.4l-.47.23.47-.22,47.48,99.32.09.18.08.18A66.29,66.29,0,1,0,218.8,127.06m-9.38,84.38a53,53,0,0,1-86-16.05l-.16-.37-.18-.36L75.61,95.34l0,0A13.27,13.27,0,0,1,93.33,77.62l99.32,47.48.36.17.36.16a53,53,0,0,1,16,86"/></g></g></g><path class="cls-64" d="M198.55,113.22l-.18-.08L99,65.66h0a26.53,26.53,0,0,0-35.4,35.4l-.47.23.47-.22,47.48,99.32.09.18.08.18a66.29,66.29,0,1,0,87.44-87.44Z"/></g><g class="cls-2"><g class="cls-4"><g class="cls-69"><g class="cls-70"><path class="cls-64" d="M204.09,101.18,104.78,53.71a39.77,39.77,0,0,0-53.09,53.07L99.16,206.1A79.56,79.56,0,1,0,204.09,101.18M218.8,220.82a66.29,66.29,0,0,1-107.51-20.08l-.08-.18-.09-.18L63.64,101.06l-.47.22.47-.23A26.53,26.53,0,0,1,99,65.65h0l99.33,47.48.18.08.18.08A66.31,66.31,0,0,1,218.8,220.82"/></g></g></g></g><g class="cls-2"><g class="cls-4"><g class="cls-69"><g class="cls-70"><path class="cls-64" d="M204.09,101.18,104.78,53.71a39.77,39.77,0,0,0-53.09,53.07L99.16,206.1A79.56,79.56,0,1,0,204.09,101.18M218.8,220.82a66.29,66.29,0,0,1-107.51-20.08l-.08-.18-.09-.18L63.64,101.06l-.47.22.47-.23A26.53,26.53,0,0,1,99,65.65h0l99.33,47.48.18.08.18.08A66.31,66.31,0,0,1,218.8,220.82"/></g></g></g></g><g class="cls-2"><g class="cls-4"><g class="cls-71"><g class="cls-72"><path class="cls-64" d="M209.42,136.43a52.69,52.69,0,0,0-16-11l-.36-.16-.36-.17L93.33,77.62A13.27,13.27,0,0,0,75.59,95.3l0,0,47.47,99.32.18.36.16.37a53,53,0,1,0,86-59M87.55,89.55h0s0,0,0,0l0,0v0m112.5,112.51a39.82,39.82,0,0,1-56.25,0,39.27,39.27,0,0,1-8.25-12l-.24-.55-.26-.53L87.57,89.62l0,0,99.32,47.47.54.26.54.24a39.77,39.77,0,0,1,12,64.5"/></g></g></g></g><g class="cls-2"><g class="cls-4"><g class="cls-73"><g class="cls-74"><path class="cls-64" d="M182.66,149.69l-.73-.32-.72-.34-65.52-31.32L147,183.23l.34.72.32.72a26.52,26.52,0,1,0,35-35m-1.36,33.62a13.27,13.27,0,0,1-18.75,0,12.81,12.81,0,0,1-2.75-4l-.4-.9-.43-.9-15.12-31.65L175.49,161l.9.43.91.4a13,13,0,0,1,4,2.74,13.27,13.27,0,0,1,0,18.75"/></g></g></g></g><g class="cls-2"><g class="cls-4"><g class="cls-71"><g class="cls-75"><path class="cls-64" d="M193,125.27l-.36-.17L93.31,77.62A13.27,13.27,0,0,0,75.57,95.3l0,0,47.48,99.32.17.36.16.37a53,53,0,1,0,69.95-70ZM87.53,89.55h0l0,0,0,0v0M200,202.06a39.78,39.78,0,0,1-64.5-12l-.24-.55L135,189,87.55,89.62l0,0,99.33,47.48.53.26.55.24a39.78,39.78,0,0,1,12,64.5"/></g></g></g></g><g class="cls-2"><g class="cls-4"><g class="cls-73"><g class="cls-76"><path class="cls-64" d="M181.91,149.37l-.71-.35-65.53-31.31L147,183.23l.35.72.32.72a26.26,26.26,0,0,0,5.49,8,26.52,26.52,0,1,0,29.49-43Zm-.63,33.94a13.27,13.27,0,0,1-18.75,0,12.9,12.9,0,0,1-2.74-4l-.41-.9-.42-.9-15.13-31.65L175.48,161l.9.43.9.4a12.9,12.9,0,0,1,4,2.74,13.27,13.27,0,0,1,0,18.75"/></g></g></g></g><g class="cls-2"><g class="cls-4"><g class="cls-77"><g class="cls-78"><path class="cls-64" d="M171.92,230.19a39.61,39.61,0,0,0,12,8.25l.54.24.54.26,99.33,47.47,0,0-47.47-99.33-.26-.53-.24-.55a39.78,39.78,0,1,0-64.51,44.22m9.38-46.88a26.52,26.52,0,0,1,43,8l.32.72.34.72,31.32,65.52L190.76,227l-.72-.34-.73-.32a26.51,26.51,0,0,1-8-43"/></g></g></g></g><g class="cls-2"><g class="cls-4"><g class="cls-79"><g class="cls-80"><path class="cls-64" d="M194.67,214.18l.91.4.9.43,31.65,15.13L213,198.49l-.43-.9-.4-.9a13,13,0,0,0-2.74-4,13.26,13.26,0,0,0-18.76,18.75,13,13,0,0,0,4,2.74"/></g></g></g></g><g class="cls-2"><g class="cls-4"><g class="cls-81"><g class="cls-82"><path class="cls-64" d="M153.17,248.94a66.15,66.15,0,0,0,20.07,13.76l.18.08.18.08,99.33,47.48h0A26.52,26.52,0,0,0,308.33,275l.47-.23-.47.22-47.48-99.32-.09-.18-.08-.18a66.29,66.29,0,1,0-107.51,73.68m9.38-84.38a53,53,0,0,1,86,16.05l.17.37.17.36,47.48,99.32v0a13.26,13.26,0,0,1-17.73,17.68L179.32,250.9l-.36-.17-.36-.16a53,53,0,0,1-16-86"/></g></g></g><path class="cls-64" d="M173.42,262.78l.18.08,99.33,47.48h0A26.52,26.52,0,0,0,308.33,275l.47-.23-.47.22-47.48-99.32-.09-.18-.08-.18a66.29,66.29,0,1,0-87.44,87.44Z"/></g><g class="cls-2"><g class="cls-4"><g class="cls-83"><g class="cls-84"><path class="cls-64" d="M167.88,274.82l99.32,47.47a39.77,39.77,0,0,0,53.08-53.08L272.81,169.9A79.55,79.55,0,1,0,167.88,274.82M153.17,155.18a66.28,66.28,0,0,1,107.51,20.08l.08.18.09.18,47.48,99.32.47-.22-.47.23a26.52,26.52,0,0,1-35.39,35.4h0L173.6,262.86l-.18-.08-.18-.08a66.31,66.31,0,0,1-20.07-107.52"/></g></g></g></g><g class="cls-2"><g class="cls-4"><g class="cls-83"><g class="cls-84"><path class="cls-64" d="M167.88,274.82l99.32,47.47a39.77,39.77,0,0,0,53.08-53.08L272.81,169.9A79.55,79.55,0,1,0,167.88,274.82M153.17,155.18a66.28,66.28,0,0,1,107.51,20.08l.08.18.09.18,47.48,99.32.47-.22-.47.23a26.52,26.52,0,0,1-35.39,35.4h0L173.6,262.86l-.18-.08-.18-.08a66.31,66.31,0,0,1-20.07-107.52"/></g></g></g></g><g class="cls-2"><g class="cls-4"><g class="cls-85"><g class="cls-86"><path class="cls-64" d="M162.55,239.57a52.93,52.93,0,0,0,16,11l.36.16.36.17,99.33,47.48a13.26,13.26,0,0,0,17.73-17.68v0l-47.48-99.32-.17-.36-.17-.37a53,53,0,1,0-86,59m121.88,46.88h0l0,0,0,0v0M171.92,173.94a39.79,39.79,0,0,1,64.51,12l.24.55.26.53,47.47,99.33,0,0L185,238.94l-.54-.26-.54-.24a39.77,39.77,0,0,1-12-64.5"/></g></g></g></g><g class="cls-2"><g class="cls-4"><g class="cls-87"><g class="cls-88"><path class="cls-64" d="M189.31,226.31l.73.32.72.34,65.52,31.33L225,192.77l-.34-.72-.32-.72a26.24,26.24,0,0,0-5.5-8,26.52,26.52,0,1,0-29.49,43m1.37-33.62a13.27,13.27,0,0,1,18.75,0,13,13,0,0,1,2.74,4l.4.9.43.9,15.13,31.65L196.48,215l-.9-.43-.91-.4a12.86,12.86,0,0,1-4-2.74,13.27,13.27,0,0,1,0-18.75"/></g></g></g></g><g class="cls-2"><g class="cls-4"><g class="cls-85"><g class="cls-89"><path class="cls-64" d="M179,250.73l.36.17,99.32,47.48A13.27,13.27,0,0,0,296.4,280.7l0,0L248.9,181.33l-.17-.35-.16-.36a53,53,0,1,0-69.95,69.95Zm105.46,35.72h0l0,0,0,0v0M171.94,173.94a39.82,39.82,0,0,1,56.25,0,39.27,39.27,0,0,1,8.25,12l.25.55.25.53,47.48,99.33,0,0-99.32-47.48-.54-.26-.54-.24a39.77,39.77,0,0,1-12-64.5"/></g></g></g></g><g class="cls-2"><g class="cls-4"><g class="cls-87"><g class="cls-90"><path class="cls-64" d="M190.06,226.63l.72.34L256.3,258.3,225,192.77l-.34-.72-.32-.72a26.52,26.52,0,1,0-35,35Zm.63-33.94a13.27,13.27,0,0,1,18.75,0,12.93,12.93,0,0,1,2.75,4l.4.91.43.89,15.13,31.65L196.49,215l-.89-.43-.91-.4a13,13,0,0,1-4-2.74,13.28,13.28,0,0,1,0-18.75"/></g></g></g></g><g class="cls-2"><g class="cls-4"><g class="cls-91"><g class="cls-92"><path class="cls-64" d="M143.8,173.94a39.27,39.27,0,0,0-8.25,12l-.24.55-.26.54L87.57,286.38l0,0,99.32-47.48.54-.26.55-.24a39.78,39.78,0,1,0-44.22-64.5m46.87,9.37a26.56,26.56,0,0,1,0,37.51,26.22,26.22,0,0,1-8,5.49l-.73.32-.71.35-65.53,31.31L147,192.77l.35-.71.32-.73a26.5,26.5,0,0,1,43-8"/></g></g></g></g><g class="cls-2"><g class="cls-4"><g class="cls-93"><g class="cls-94"><path class="cls-64" d="M159.8,196.69l-.39.9-.43.9-15.13,31.65L175.5,215l.89-.43.91-.4a13,13,0,0,0,4-2.74,13.26,13.26,0,0,0-18.75-18.75,12.93,12.93,0,0,0-2.75,4"/></g></g></g></g><g class="cls-2"><g class="cls-4"><g class="cls-95"><g class="cls-96"><path class="cls-64" d="M125,155.18a66.17,66.17,0,0,0-13.75,20.08l-.08.18-.08.18L63.65,275h0A26.52,26.52,0,0,0,99,310.34l.23.48-.23-.48,99.33-47.48.18-.08.18-.08A66.3,66.3,0,1,0,125,155.18m84.39,9.38a53,53,0,0,1-16.06,86l-.36.16-.36.17L93.33,298.38l0,0a13.27,13.27,0,0,1-17.68-17.74l47.47-99.33.18-.35.16-.37a53,53,0,0,1,86-16.05"/></g></g></g><path class="cls-64" d="M111.21,175.44l-.08.18L63.65,275h0A26.52,26.52,0,0,0,99,310.34l.23.48-.23-.48,99.33-47.48.18-.08.18-.08a66.31,66.31,0,1,0-87.44-87.44Z"/></g><g class="cls-2"><g class="cls-4"><g class="cls-97"><g class="cls-98"><path class="cls-64" d="M99.16,169.9,51.69,269.21a39.78,39.78,0,0,0,53.08,53.09l99.32-47.47A79.56,79.56,0,1,0,99.16,169.9M218.8,155.18A66.31,66.31,0,0,1,198.73,262.7l-.18.08-.18.08L99,310.34l.23.48-.23-.48A26.52,26.52,0,0,1,63.64,275h0l47.48-99.33.08-.18.08-.18A66.28,66.28,0,0,1,218.8,155.18"/></g></g></g></g><g class="cls-2"><g class="cls-4"><g class="cls-97"><g class="cls-98"><path class="cls-64" d="M99.16,169.9,51.69,269.21a39.78,39.78,0,0,0,53.08,53.09l99.32-47.47A79.56,79.56,0,1,0,99.16,169.9M218.8,155.18A66.31,66.31,0,0,1,198.73,262.7l-.18.08-.18.08L99,310.34l.23.48-.23-.48A26.52,26.52,0,0,1,63.64,275h0l47.48-99.33.08-.18.08-.18A66.28,66.28,0,0,1,218.8,155.18"/></g></g></g></g><g class="cls-2"><g class="cls-4"><g class="cls-99"><g class="cls-100"><path class="cls-64" d="M134.42,164.56a52.75,52.75,0,0,0-11,16.05l-.16.37-.18.35L75.61,280.66A13.27,13.27,0,0,0,93.29,298.4l0,0,99.32-47.48.36-.17.36-.16a53,53,0,1,0-59-86M87.54,286.44h0l0,0,0,0h0m112.51-112.5a39.78,39.78,0,0,1-12,64.5l-.55.24-.54.26L87.61,286.42l0,0,47.48-99.32.26-.54.24-.55a39.78,39.78,0,0,1,64.5-12"/></g></g></g></g><g class="cls-2"><g class="cls-4"><g class="cls-101"><g class="cls-102"><path class="cls-64" d="M147.68,191.33l-.32.73-.35.71L115.69,258.3,181.22,227l.71-.35.73-.32a26.22,26.22,0,0,0,8-5.49,26.52,26.52,0,1,0-43-29.49m33.62,1.36a13.27,13.27,0,0,1,0,18.75,13,13,0,0,1-4,2.74l-.91.4-.89.43-31.65,15.13L159,198.49l.42-.9.4-.9a12.93,12.93,0,0,1,2.75-4,13.27,13.27,0,0,1,18.75,0"/></g></g></g></g><g class="cls-2"><g class="cls-4"><g class="cls-99"><g class="cls-103"><path class="cls-64" d="M123.26,181l-.17.35L75.61,280.68a13.26,13.26,0,0,0,17.68,17.73h0l99.32-47.48.36-.17.36-.16a53,53,0,1,0-69.95-70ZM87.54,286.46h0l0,0,0,0h0M200.05,174a39.79,39.79,0,0,1-12,64.51l-.55.24-.54.26L87.61,286.44l0,0,47.48-99.33.25-.54.25-.54a39.77,39.77,0,0,1,64.5-12"/></g></g></g></g><g class="cls-2"><g class="cls-4"><g class="cls-101"><g class="cls-104"><path class="cls-64" d="M147.36,192.07l-.35.72-31.32,65.52L181.21,227l.72-.34.73-.32a26.08,26.08,0,0,0,8-5.5,26.52,26.52,0,1,0-43-29.48Zm33.94.64a13.25,13.25,0,0,1-4,21.49l-.91.4-.89.43-31.66,15.13L159,198.51l.43-.9.4-.91a13,13,0,0,1,2.75-4,13.27,13.27,0,0,1,18.75,0"/></g></g></g></g><g class="cls-2"><g class="cls-4"><g class="cls-105"><g class="cls-106"><path class="cls-64" d="M228.18,202.06a39.62,39.62,0,0,0,8.25-12l.24-.55.25-.54L284.4,89.62l0,0L185,137.06l-.54.26-.54.24a39.78,39.78,0,1,0,44.22,64.5m-46.88-9.37a26.56,26.56,0,0,1,0-37.51,26.26,26.26,0,0,1,8-5.49l.72-.32.71-.35,65.53-31.31L225,183.23l-.34.71-.32.73a26.52,26.52,0,0,1-43,8"/></g></g></g></g><g class="cls-2"><g class="cls-4"><g class="cls-107"><g class="cls-108"><path class="cls-64" d="M212.17,179.31l.4-.9.43-.9,15.13-31.65L196.47,161l-.89.43-.91.4a12.69,12.69,0,0,0-4,2.74,13.26,13.26,0,1,0,18.75,18.75,13.07,13.07,0,0,0,2.74-4"/></g></g></g></g><g class="cls-2"><g class="cls-4"><g class="cls-109"><g class="cls-110"><path class="cls-64" d="M246.93,220.81a65.82,65.82,0,0,0,13.75-20.07l.08-.18.09-.18,47.48-99.33h0a26.52,26.52,0,0,0-35.39-35.39l-.24-.48.23.48L173.6,113.14l-.18.08-.18.08a66.3,66.3,0,1,0,73.69,107.51m-84.38-9.37a53,53,0,0,1,16-86l.36-.16.36-.17,99.33-47.48,0,0a13.27,13.27,0,0,1,17.69,17.74l-47.48,99.33-.17.35-.17.37a53,53,0,0,1-86,16.05"/></g></g></g><path class="cls-64" d="M260.76,200.56l.09-.18,47.48-99.33h0a26.52,26.52,0,0,0-35.39-35.4l-.24-.47.23.47L173.6,113.14l-.18.08-.18.08a66.3,66.3,0,1,0,87.44,87.44Z"/></g><g class="cls-2"><g class="cls-4"><g class="cls-111"><g class="cls-112"><path class="cls-64" d="M272.81,206.1l47.47-99.31A39.78,39.78,0,0,0,267.2,53.7l-99.31,47.47A79.55,79.55,0,1,0,272.81,206.1M153.17,220.81A66.3,66.3,0,0,1,173.24,113.3l.18-.08.18-.08,99.33-47.48-.23-.48.24.48a26.52,26.52,0,0,1,35.39,35.39h0l-47.48,99.33-.09.18-.08.18a66.29,66.29,0,0,1-107.51,20.07"/></g></g></g></g><g class="cls-2"><g class="cls-4"><g class="cls-111"><g class="cls-112"><path class="cls-64" d="M272.81,206.1l47.47-99.31A39.78,39.78,0,0,0,267.2,53.7l-99.31,47.47A79.55,79.55,0,1,0,272.81,206.1M153.17,220.81A66.3,66.3,0,0,1,173.24,113.3l.18-.08.18-.08,99.33-47.48-.23-.48.24.48a26.52,26.52,0,0,1,35.39,35.39h0l-47.48,99.33-.09.18-.08.18a66.29,66.29,0,0,1-107.51,20.07"/></g></g></g></g><g class="cls-2"><g class="cls-4"><g class="cls-113"><g class="cls-114"><path class="cls-64" d="M237.55,211.44a52.75,52.75,0,0,0,11-16.05l.17-.37.17-.35,47.48-99.33A13.27,13.27,0,0,0,278.68,77.6l0,0L179.32,125.1l-.36.17-.36.16a53,53,0,1,0,59,86M284.44,89.56h0l0,0,0,0h0M171.92,202.06a39.77,39.77,0,0,1,12-64.5l.54-.24.54-.26,99.33-47.47,0,0-47.48,99.32-.25.54-.24.55a39.79,39.79,0,0,1-64.51,12"/></g></g></g></g><g class="cls-2"><g class="cls-4"><g class="cls-115"><g class="cls-116"><path class="cls-64" d="M224.3,184.67l.32-.73.34-.71,31.32-65.53L190.75,149l-.71.35-.72.32a26.26,26.26,0,0,0-8,5.49,26.52,26.52,0,1,0,43,29.49m-33.63-1.36a13.27,13.27,0,0,1,0-18.75,12.69,12.69,0,0,1,4-2.74l.91-.4.89-.43,31.66-15.13L213,177.51l-.43.9-.4.9a13.07,13.07,0,0,1-2.74,4,13.28,13.28,0,0,1-18.76,0"/></g></g></g></g><g class="cls-2"><g class="cls-4"><g class="cls-113"><g class="cls-117"><path class="cls-64" d="M248.71,195l.18-.35,47.47-99.33a13.26,13.26,0,0,0-17.68-17.73h0l-99.33,47.48-.36.17-.36.16a53,53,0,1,0,70,70ZM284.44,89.54h0s0,0,0,0l0,0h0M171.92,202.05a39.78,39.78,0,0,1,12-64.51l.54-.24L185,137l99.33-47.48,0,0-47.48,99.33-.25.53-.25.55a39.75,39.75,0,0,1-64.5,12"/></g></g></g></g><g class="cls-2"><g class="cls-4"><g class="cls-115"><g class="cls-118"><path class="cls-64" d="M224.62,183.93l.34-.72,31.32-65.52L190.76,149l-.72.34-.72.32a26.12,26.12,0,0,0-8,5.5,26.52,26.52,0,1,0,43,29.48Zm-33.94-.64a13.27,13.27,0,0,1,0-18.75,13,13,0,0,1,4-2.74l.91-.4.89-.43,31.66-15.13L213,177.49l-.43.9-.4.91a13,13,0,0,1-2.75,4,13.26,13.26,0,0,1-18.74,0"/></g></g></g></g></g></g></g></svg>