<svg id="Layer_1" data-name="Layer 1" xmlns="http://www.w3.org/2000/svg" xmlns:xlink="http://www.w3.org/1999/xlink" viewBox="0 0 322 322"><defs><style>.cls-1{fill:none;}.cls-2{clip-path:url(#clip-path);}.cls-3,.cls-4{isolation:isolate;}.cls-4{mix-blend-mode:multiply;}.cls-5{clip-path:url(#clip-path-4);}.cls-6{clip-path:url(#clip-path-5);}.cls-7{fill:#ed5f5c;}.cls-8{clip-path:url(#clip-path-7);}.cls-9{clip-path:url(#clip-path-8);}.cls-10{clip-path:url(#clip-path-10);}.cls-11{clip-path:url(#clip-path-11);}.cls-12{clip-path:url(#clip-path-13);}.cls-13{clip-path:url(#clip-path-14);}.cls-14{clip-path:url(#clip-path-19);}.cls-15{clip-path:url(#clip-path-20);}.cls-16{clip-path:url(#clip-path-22);}.cls-17{clip-path:url(#clip-path-23);}.cls-18{clip-path:url(#clip-path-26);}.cls-19{clip-path:url(#clip-path-29);}.cls-20{clip-path:url(#clip-path-31);}.cls-21{clip-path:url(#clip-path-32);}.cls-22{fill:#9dcaed;}.cls-23{clip-path:url(#clip-path-34);}.cls-24{clip-path:url(#clip-path-35);}.cls-25{clip-path:url(#clip-path-37);}.cls-26{clip-path:url(#clip-path-38);}.cls-27{clip-path:url(#clip-path-40);}.cls-28{clip-path:url(#clip-path-41);}.cls-29{clip-path:url(#clip-path-46);}.cls-30{clip-path:url(#clip-path-47);}.cls-31{clip-path:url(#clip-path-49);}.cls-32{clip-path:url(#clip-path-50);}.cls-33{clip-path:url(#clip-path-53);}.cls-34{clip-path:url(#clip-path-56);}.cls-35{clip-path:url(#clip-path-58);}.cls-36{clip-path:url(#clip-path-59);}.cls-37{fill:#679424;}.cls-38{clip-path:url(#clip-path-61);}.cls-39{clip-path:url(#clip-path-62);}.cls-40{clip-path:url(#clip-path-64);}.cls-41{clip-path:url(#clip-path-65);}.cls-42{clip-path:url(#clip-path-67);}.cls-43{clip-path:url(#clip-path-68);}.cls-44{clip-path:url(#clip-path-73);}.cls-45{clip-path:url(#clip-path-74);}.cls-46{clip-path:url(#clip-path-76);}.cls-47{clip-path:url(#clip-path-77);}.cls-48{clip-path:url(#clip-path-80);}.cls-49{clip-path:url(#clip-path-83);}.cls-50{clip-path:url(#clip-path-85);}.cls-51{clip-path:url(#clip-path-86);}.cls-52{fill:#ffdc3f;}.cls-53{clip-path:url(#clip-path-88);}.cls-54{clip-path:url(#clip-path-89);}.cls-55{clip-path:url(#clip-path-91);}.cls-56{clip-path:url(#clip-path-92);}.cls-57{clip-path:url(#clip-path-94);}.cls-58{clip-path:url(#clip-path-95);}.cls-59{clip-path:url(#clip-path-100);}.cls-60{clip-path:url(#clip-path-101);}.cls-61{clip-path:url(#clip-path-103);}.cls-62{clip-path:url(#clip-path-104);}.cls-63{clip-path:url(#clip-path-107);}.cls-64{clip-path:url(#clip-path-110);}</style><clipPath id="clip-path"><rect class="cls-1" x="4" y="5" width="315" height="315"/></clipPath><clipPath id="clip-path-4"><rect class="cls-1" x="43" y="44" width="125" height="125"/></clipPath><clipPath id="clip-path-5"><rect class="cls-1" x="43.81" y="44.81" width="124.17" height="124.17"/></clipPath><clipPath id="clip-path-7"><rect class="cls-1" x="70" y="71" width="42" height="42"/></clipPath><clipPath id="clip-path-8"><rect class="cls-1" x="70.33" y="71.33" width="41.35" height="41.35"/></clipPath><clipPath id="clip-path-10"><rect class="cls-1" x="17" y="18" width="178" height="178"/></clipPath><clipPath id="clip-path-11"><rect class="cls-1" x="17.3" y="18.29" width="177.24" height="177.24"/></clipPath><clipPath id="clip-path-13"><rect class="cls-1" x="4" y="5" width="204" height="204"/></clipPath><clipPath id="clip-path-14"><rect class="cls-1" x="4" y="5" width="203.8" height="203.8"/></clipPath><clipPath id="clip-path-19"><rect class="cls-1" x="30" y="31" width="152" height="152"/></clipPath><clipPath id="clip-path-20"><rect class="cls-1" x="30.55" y="31.55" width="150.7" height="150.69"/></clipPath><clipPath id="clip-path-22"><rect class="cls-1" x="57" y="58" width="83" height="83"/></clipPath><clipPath id="clip-path-23"><rect class="cls-1" x="57.07" y="58.07" width="82.77" height="82.77"/></clipPath><clipPath id="clip-path-26"><rect class="cls-1" x="30.57" y="31.55" width="150.71" height="150.69"/></clipPath><clipPath id="clip-path-29"><rect class="cls-1" x="57.09" y="58.07" width="82.77" height="82.77"/></clipPath><clipPath id="clip-path-31"><rect class="cls-1" x="155" y="156" width="125" height="125"/></clipPath><clipPath id="clip-path-32"><rect class="cls-1" x="155.02" y="156.02" width="124.17" height="124.17"/></clipPath><clipPath id="clip-path-34"><rect class="cls-1" x="211" y="212" width="42" height="42"/></clipPath><clipPath id="clip-path-35"><rect class="cls-1" x="211.32" y="212.32" width="41.35" height="41.35"/></clipPath><clipPath id="clip-path-37"><rect class="cls-1" x="128" y="129" width="178" height="178"/></clipPath><clipPath id="clip-path-38"><rect class="cls-1" x="128.46" y="129.46" width="177.24" height="177.24"/></clipPath><clipPath id="clip-path-40"><rect class="cls-1" x="115" y="116" width="204" height="204"/></clipPath><clipPath id="clip-path-41"><rect class="cls-1" x="115.2" y="116.2" width="203.8" height="203.8"/></clipPath><clipPath id="clip-path-46"><rect class="cls-1" x="141" y="142" width="152" height="152"/></clipPath><clipPath id="clip-path-47"><rect class="cls-1" x="141.74" y="142.75" width="150.7" height="150.69"/></clipPath><clipPath id="clip-path-49"><rect class="cls-1" x="183" y="184" width="83" height="83"/></clipPath><clipPath id="clip-path-50"><rect class="cls-1" x="183.15" y="184.15" width="82.77" height="82.77"/></clipPath><clipPath id="clip-path-53"><rect class="cls-1" x="141.72" y="142.75" width="150.7" height="150.69"/></clipPath><clipPath id="clip-path-56"><rect class="cls-1" x="183.14" y="184.15" width="82.78" height="82.77"/></clipPath><clipPath id="clip-path-58"><rect class="cls-1" x="43" y="156" width="125" height="125"/></clipPath><clipPath id="clip-path-59"><rect class="cls-1" x="43.81" y="156.02" width="124.17" height="124.17"/></clipPath><clipPath id="clip-path-61"><rect class="cls-1" x="70" y="212" width="42" height="42"/></clipPath><clipPath id="clip-path-62"><rect class="cls-1" x="70.33" y="212.32" width="41.35" height="41.35"/></clipPath><clipPath id="clip-path-64"><rect class="cls-1" x="17" y="129" width="178" height="178"/></clipPath><clipPath id="clip-path-65"><rect class="cls-1" x="17.3" y="129.46" width="177.24" height="177.24"/></clipPath><clipPath id="clip-path-67"><rect class="cls-1" x="4" y="116" width="204" height="204"/></clipPath><clipPath id="clip-path-68"><rect class="cls-1" x="4" y="116.2" width="203.8" height="203.8"/></clipPath><clipPath id="clip-path-73"><rect class="cls-1" x="30" y="142" width="152" height="152"/></clipPath><clipPath id="clip-path-74"><rect class="cls-1" x="30.55" y="142.74" width="150.69" height="150.7"/></clipPath><clipPath id="clip-path-76"><rect class="cls-1" x="57" y="184" width="83" height="83"/></clipPath><clipPath id="clip-path-77"><rect class="cls-1" x="57.07" y="184.16" width="82.77" height="82.77"/></clipPath><clipPath id="clip-path-80"><rect class="cls-1" x="30.55" y="142.72" width="150.69" height="150.7"/></clipPath><clipPath id="clip-path-83"><rect class="cls-1" x="57.07" y="184.13" width="82.77" height="82.78"/></clipPath><clipPath id="clip-path-85"><rect class="cls-1" x="155" y="44" width="125" height="125"/></clipPath><clipPath id="clip-path-86"><rect class="cls-1" x="155.02" y="44.81" width="124.17" height="124.17"/></clipPath><clipPath id="clip-path-88"><rect class="cls-1" x="211" y="71" width="42" height="42"/></clipPath><clipPath id="clip-path-89"><rect class="cls-1" x="211.32" y="71.33" width="41.35" height="41.35"/></clipPath><clipPath id="clip-path-91"><rect class="cls-1" x="128" y="18" width="178" height="178"/></clipPath><clipPath id="clip-path-92"><rect class="cls-1" x="128.47" y="18.3" width="177.24" height="177.24"/></clipPath><clipPath id="clip-path-94"><rect class="cls-1" x="115" y="5" width="204" height="204"/></clipPath><clipPath id="clip-path-95"><rect class="cls-1" x="115.2" y="5" width="203.8" height="203.8"/></clipPath><clipPath id="clip-path-100"><rect class="cls-1" x="141" y="31" width="152" height="152"/></clipPath><clipPath id="clip-path-101"><rect class="cls-1" x="141.75" y="31.55" width="150.69" height="150.7"/></clipPath><clipPath id="clip-path-103"><rect class="cls-1" x="183" y="58" width="83" height="83"/></clipPath><clipPath id="clip-path-104"><rect class="cls-1" x="183.15" y="58.07" width="82.77" height="82.78"/></clipPath><clipPath id="clip-path-107"><rect class="cls-1" x="141.75" y="31.57" width="150.69" height="150.7"/></clipPath><clipPath id="clip-path-110"><rect class="cls-1" x="183.15" y="58.09" width="82.77" height="82.77"/></clipPath></defs><title>icono_02</title><g class="cls-2"><g class="cls-3"><g class="cls-2"><g class="cls-2"><g class="cls-4"><g class="cls-5"><g class="cls-6"><path class="cls-7" d="M55.45,112.73a39.61,39.61,0,0,0,12,8.25l.55.24.53.26L168,169l0,0-47.5-99.37-.25-.53-.25-.55a39.43,39.43,0,0,0-8.25-12,39.8,39.8,0,0,0-56.28,56.28m9.38-46.9a26.55,26.55,0,0,1,37.52,0,26.12,26.12,0,0,1,5.5,8l.32.73.35.71,31.32,65.55L74.3,109.51l-.72-.34-.73-.32a26.53,26.53,0,0,1-8-43"/></g></g></g></g><g class="cls-2"><g class="cls-4"><g class="cls-8"><g class="cls-9"><path class="cls-7" d="M78.21,96.71l.91.4.9.43,31.66,15.14L96.54,81l-.42-.89-.41-.91a12.73,12.73,0,0,0-2.74-4A13.27,13.27,0,0,0,74.21,94a13,13,0,0,0,4,2.74"/></g></g></g></g><g class="cls-2"><g class="cls-4"><g class="cls-10"><g class="cls-11"><path class="cls-7" d="M36.69,131.49a66.08,66.08,0,0,0,20.08,13.76l.18.08.18.09,99.37,47.5h0a26.53,26.53,0,0,0,35.41-35.41l.47-.23-.47.22-47.5-99.37-.09-.18-.08-.18A66.33,66.33,0,1,0,36.69,131.49m9.38-84.42a53.07,53.07,0,0,1,86.05,16.06l.16.36.17.36L180,163.22l0,0A13.27,13.27,0,0,1,162.23,181l-99.38-47.5-.36-.17-.36-.16A53.07,53.07,0,0,1,46.07,47.07"/></g></g></g><path class="cls-7" d="M57,145.33l.18.09,99.37,47.5h0a26.53,26.53,0,0,0,35.41-35.41l.47-.24-.47.23-47.5-99.37-.09-.18-.08-.18a66.33,66.33,0,1,0-87.48,87.48Z"/></g><g class="cls-2"><g class="cls-4"><g class="cls-12"><g class="cls-13"><path class="cls-7" d="M51.41,157.38l99.36,47.5a39.8,39.8,0,0,0,53.11-53.11l-47.5-99.36a79.59,79.59,0,1,0-105,105M36.69,37.69A66.32,66.32,0,0,1,144.25,57.77l.08.18.09.18,47.5,99.37.47-.22-.47.23a26.53,26.53,0,0,1-35.41,35.41h0l-99.37-47.5-.18-.09-.18-.08A66.32,66.32,0,0,1,36.69,37.69"/></g></g></g></g><g class="cls-2"><g class="cls-4"><g class="cls-12"><g class="cls-13"><path class="cls-7" d="M51.41,157.38l99.36,47.5a39.8,39.8,0,0,0,53.11-53.11l-47.5-99.36a79.59,79.59,0,1,0-105,105M36.69,37.69A66.32,66.32,0,0,1,144.25,57.77l.08.18.09.18,47.5,99.37.47-.22-.47.23a26.53,26.53,0,0,1-35.41,35.41h0l-99.37-47.5-.18-.09-.18-.08A66.32,66.32,0,0,1,36.69,37.69"/></g></g></g></g><g class="cls-2"><g class="cls-4"><g class="cls-14"><g class="cls-15"><path class="cls-7" d="M46.07,122.11a52.89,52.89,0,0,0,16.06,11l.36.16.36.17L162.22,181A13.27,13.27,0,0,0,180,163.26v0l-47.5-99.37-.17-.36-.16-.36a53.06,53.06,0,1,0-86.05,59M168,169h0l0,0,0,0v0M55.45,56.45a39.83,39.83,0,0,1,56.28,0,39.43,39.43,0,0,1,8.25,12l.25.55.25.53L168,168.94l0,0-99.37-47.5-.53-.26-.55-.24a39.79,39.79,0,0,1-12-64.53"/></g></g></g></g><g class="cls-2"><g class="cls-4"><g class="cls-16"><g class="cls-17"><path class="cls-7" d="M72.85,108.85l.73.32.72.34,65.54,31.33L108.52,75.29l-.35-.71-.32-.73a26.12,26.12,0,0,0-5.5-8,26.53,26.53,0,1,0-29.5,43m1.36-33.64a13.28,13.28,0,0,1,18.76,0,12.73,12.73,0,0,1,2.74,4l.41.91.42.89,15.14,31.67L80,97.54l-.9-.43-.91-.4a12.85,12.85,0,0,1-4-2.74,13.28,13.28,0,0,1,0-18.76"/></g></g></g></g><g class="cls-2"><g class="cls-4"><g class="cls-14"><g class="cls-18"><path class="cls-7" d="M62.51,133.27l.36.18L162.24,181A13.27,13.27,0,0,0,180,163.26v0l-47.5-99.37-.18-.36-.15-.36a53.06,53.06,0,1,0-70,70ZM168,169h0l0,0,0,0v0M55.47,56.45a39.79,39.79,0,0,1,64.53,12l.24.55.26.53L168,168.94l0,0-99.37-47.5-.54-.26-.54-.24a39.79,39.79,0,0,1-12-64.53"/></g></g></g></g><g class="cls-2"><g class="cls-4"><g class="cls-16"><g class="cls-19"><path class="cls-7" d="M73.6,109.17l.71.34,65.55,31.33L108.53,75.29l-.34-.71-.32-.73a26.53,26.53,0,1,0-35,35Zm.63-34a13.28,13.28,0,0,1,18.76,0,12.9,12.9,0,0,1,2.74,4l.4.91.43.89,15.14,31.67L80,97.54l-.89-.43-.91-.4a12.73,12.73,0,0,1-4-2.74,13.28,13.28,0,0,1,0-18.76"/></g></g></g></g><g class="cls-2"><g class="cls-4"><g class="cls-20"><g class="cls-21"><path class="cls-22" d="M267.55,212.27a39.61,39.61,0,0,0-12-8.25l-.55-.24-.53-.26L155.05,156l0,0,47.5,99.38.26.53.24.55a39.79,39.79,0,1,0,64.53-44.24m-9.38,46.9a26.53,26.53,0,0,1-43-8l-.32-.73-.34-.72-31.34-65.55,65.55,31.34.72.34.73.32a26.29,26.29,0,0,1,8,5.5,26.57,26.57,0,0,1,0,37.52"/></g></g></g></g><g class="cls-2"><g class="cls-4"><g class="cls-23"><g class="cls-24"><path class="cls-22" d="M244.79,228.28l-.91-.4-.9-.43-31.66-15.13L226.46,244l.43.9.4.91a13,13,0,0,0,2.74,4A13.27,13.27,0,0,0,248.79,231a13,13,0,0,0-4-2.75"/></g></g></g></g><g class="cls-2"><g class="cls-4"><g class="cls-25"><g class="cls-26"><path class="cls-22" d="M286.31,193.51a66.08,66.08,0,0,0-20.08-13.76l-.18-.08-.18-.09-99.37-47.5h0a26.53,26.53,0,0,0-35.41,35.41l-.47.23.47-.22,47.5,99.37.09.18.08.18a66.33,66.33,0,1,0,107.56-73.72m-9.38,84.42a53.07,53.07,0,0,1-86.05-16.06l-.16-.36-.17-.36-47.5-99.37v0a13.27,13.27,0,0,1,17.74-17.69l99.37,47.5.36.17.36.16a53.07,53.07,0,0,1,16.06,86.05"/></g></g></g><path class="cls-22" d="M266.05,179.67l-.18-.09-99.37-47.5h0a26.53,26.53,0,0,0-35.41,35.41l-.47.23.47-.23,47.5,99.38.09.18.08.18a66.33,66.33,0,1,0,87.48-87.48Z"/></g><g class="cls-2"><g class="cls-4"><g class="cls-27"><g class="cls-28"><path class="cls-22" d="M271.59,167.62l-99.36-47.5a39.8,39.8,0,0,0-53.11,53.11l47.49,99.36a79.6,79.6,0,1,0,105-105m14.72,119.69a66.32,66.32,0,0,1-107.56-20.08l-.08-.18-.09-.18-47.5-99.37-.47.22.47-.23a26.53,26.53,0,0,1,35.41-35.41h0l99.37,47.5.18.09.18.08a66.32,66.32,0,0,1,20.08,107.56"/></g></g></g></g><g class="cls-2"><g class="cls-4"><g class="cls-27"><g class="cls-28"><path class="cls-22" d="M271.59,167.62l-99.36-47.5a39.8,39.8,0,0,0-53.11,53.11l47.49,99.36a79.6,79.6,0,1,0,105-105m14.72,119.69a66.32,66.32,0,0,1-107.56-20.08l-.08-.18-.09-.18-47.5-99.37-.47.22.47-.23a26.53,26.53,0,0,1,35.41-35.41h0l99.37,47.5.18.09.18.08a66.32,66.32,0,0,1,20.08,107.56"/></g></g></g></g><g class="cls-2"><g class="cls-4"><g class="cls-29"><g class="cls-30"><path class="cls-22" d="M276.93,202.89a52.89,52.89,0,0,0-16.06-11l-.36-.16-.36-.17-99.37-47.5A13.27,13.27,0,0,0,143,161.74v0l47.5,99.37.17.36.16.36a53.06,53.06,0,1,0,86.05-59M155,156h0l0,0v0M267.55,268.55a39.79,39.79,0,0,1-64.53-12l-.25-.55-.25-.53L155,156.05l0,0,99.38,47.5.53.26.55.24a39.79,39.79,0,0,1,12,64.53"/></g></g></g></g><g class="cls-2"><g class="cls-4"><g class="cls-31"><g class="cls-32"><path class="cls-22" d="M250.15,216.15l-.73-.32-.71-.34-65.56-31.34,31.34,65.55.34.72.32.73a26.53,26.53,0,1,0,35-35m-1.36,33.64a13.28,13.28,0,0,1-18.76,0,13,13,0,0,1-2.74-4l-.4-.91-.43-.9-15.14-31.66L243,227.45l.9.43.91.4a13,13,0,0,1,4,2.75,13.28,13.28,0,0,1,0,18.76"/></g></g></g></g><g class="cls-2"><g class="cls-4"><g class="cls-29"><g class="cls-33"><path class="cls-22" d="M260.49,191.72l-.36-.17-99.37-47.5A13.27,13.27,0,0,0,143,161.74l0,0,47.49,99.37.18.36.16.36a53.06,53.06,0,1,0,70-70ZM155,156h0l0,0v0M267.53,268.55a39.79,39.79,0,0,1-64.53-12l-.24-.55-.26-.53L155,156.05l0,0,99.37,47.5.54.25.54.25a39.79,39.79,0,0,1,12,64.53"/></g></g></g></g><g class="cls-2"><g class="cls-4"><g class="cls-31"><g class="cls-34"><path class="cls-22" d="M249.41,215.83l-.72-.34-65.55-31.34,31.33,65.55.34.72.32.73a26.53,26.53,0,1,0,43-29.5,26.29,26.29,0,0,0-8-5.5Zm-.64,34a13.25,13.25,0,0,1-21.5-4l-.4-.91-.43-.9L211.3,212.32,243,227.45l.89.43.91.4a12.93,12.93,0,0,1,4,2.75,13.28,13.28,0,0,1,0,18.76"/></g></g></g></g><g class="cls-2"><g class="cls-4"><g class="cls-35"><g class="cls-36"><path class="cls-37" d="M111.73,268.55a39.43,39.43,0,0,0,8.25-12l.25-.55.25-.53L168,156.05l0,0-99.38,47.5-.53.26-.55.24a39.79,39.79,0,1,0,44.24,64.53m-46.9-9.38a26.57,26.57,0,0,1,0-37.52,26.12,26.12,0,0,1,8-5.5l.73-.32.71-.35,65.56-31.32L108.51,249.7l-.34.72-.32.73a26.53,26.53,0,0,1-43,8"/></g></g></g></g><g class="cls-2"><g class="cls-4"><g class="cls-38"><g class="cls-39"><path class="cls-37" d="M95.71,245.79l.41-.91.42-.9,15.14-31.66L80,227.46l-.9.43-.91.39a13,13,0,0,0-4,2.75A13.27,13.27,0,0,0,93,249.79a12.85,12.85,0,0,0,2.74-4"/></g></g></g></g><g class="cls-2"><g class="cls-4"><g class="cls-40"><g class="cls-41"><path class="cls-37" d="M130.49,287.31a66.08,66.08,0,0,0,13.76-20.08l.08-.18.09-.18,47.5-99.37h0a26.53,26.53,0,0,0-35.41-35.41l-.23-.47.22.47-99.37,47.5-.18.09-.18.08a66.33,66.33,0,1,0,73.72,107.56m-84.42-9.38a53.07,53.07,0,0,1,16.06-86.05l.36-.15.36-.18,99.37-47.5,0,0A13.27,13.27,0,0,1,180,161.77l-47.5,99.38-.17.36-.16.36a53.07,53.07,0,0,1-86.05,16.06"/></g></g></g><path class="cls-37" d="M144.33,267.05l.09-.18,47.5-99.37h0a26.53,26.53,0,0,0-35.41-35.41l-.23-.47.22.47-99.37,47.5-.18.09-.18.08a66.33,66.33,0,1,0,87.48,87.48Z"/></g><g class="cls-2"><g class="cls-4"><g class="cls-42"><g class="cls-43"><path class="cls-37" d="M156.38,272.59l47.5-99.36a39.8,39.8,0,0,0-53.11-53.11l-99.36,47.5a79.59,79.59,0,1,0,105,105M36.69,287.31A66.32,66.32,0,0,1,56.77,179.75l.18-.08.18-.09,99.37-47.5-.22-.47.23.47a26.53,26.53,0,0,1,35.41,35.41h0l-47.5,99.37-.09.18-.08.18A66.32,66.32,0,0,1,36.69,287.31"/></g></g></g></g><g class="cls-2"><g class="cls-4"><g class="cls-42"><g class="cls-43"><path class="cls-37" d="M156.38,272.59l47.5-99.36a39.8,39.8,0,0,0-53.11-53.11l-99.36,47.5a79.59,79.59,0,1,0,105,105M36.69,287.31A66.32,66.32,0,0,1,56.77,179.75l.18-.08.18-.09,99.37-47.5-.22-.47.23.47a26.53,26.53,0,0,1,35.41,35.41h0l-47.5,99.37-.09.18-.08.18A66.32,66.32,0,0,1,36.69,287.31"/></g></g></g></g><g class="cls-2"><g class="cls-4"><g class="cls-44"><g class="cls-45"><path class="cls-37" d="M121.11,277.93a52.89,52.89,0,0,0,11-16.06l.16-.36.17-.36L180,161.77A13.27,13.27,0,0,0,162.26,144l0,0-99.37,47.5-.36.18-.36.15a53.06,53.06,0,1,0,59,86.05M168,156h0v0l0,0h0M55.45,268.55a39.79,39.79,0,0,1,12-64.53l.55-.24.53-.26L167.94,156l0,0-47.5,99.38-.25.53-.25.55a39.43,39.43,0,0,1-8.25,12,39.83,39.83,0,0,1-56.28,0"/></g></g></g></g><g class="cls-2"><g class="cls-4"><g class="cls-46"><g class="cls-47"><path class="cls-37" d="M107.85,251.15l.32-.73.34-.72,31.34-65.55L74.29,215.48l-.71.35-.73.32a26.24,26.24,0,0,0-8,5.5,26.53,26.53,0,1,0,43,29.5m-33.64-1.36a13.28,13.28,0,0,1,0-18.76,13,13,0,0,1,4-2.75l.91-.39.9-.43,31.66-15.14L96.54,244l-.42.9-.41.91a12.85,12.85,0,0,1-2.74,4,13.28,13.28,0,0,1-18.76,0"/></g></g></g></g><g class="cls-2"><g class="cls-4"><g class="cls-44"><g class="cls-48"><path class="cls-37" d="M132.28,261.49l.17-.36L180,161.76A13.27,13.27,0,0,0,162.26,144l0,0L62.85,191.53l-.35.17-.37.17a53.06,53.06,0,1,0,70,70ZM168,156h0s0,0,0,0l0,0h0M55.45,268.53a39.79,39.79,0,0,1,12-64.53l.54-.24.54-.26L167.94,156l0,0-47.5,99.37-.25.54-.25.54a39.43,39.43,0,0,1-8.25,12,39.83,39.83,0,0,1-56.28,0"/></g></g></g></g><g class="cls-2"><g class="cls-4"><g class="cls-46"><g class="cls-49"><path class="cls-37" d="M108.17,250.41l.34-.72,31.34-65.56L74.29,215.47l-.71.34-.73.32a26.53,26.53,0,1,0,35,35Zm-34-.64a13.25,13.25,0,0,1,4-21.5l.91-.4.9-.43,31.66-15.14L96.54,244l-.42.9-.41.9a12.62,12.62,0,0,1-2.74,4,13.28,13.28,0,0,1-18.76,0"/></g></g></g></g><g class="cls-2"><g class="cls-4"><g class="cls-50"><g class="cls-51"><path class="cls-52" d="M211.27,56.45a39.61,39.61,0,0,0-8.25,12l-.24.55-.26.53L155,169l0,0,99.38-47.5.53-.25.55-.25a39.43,39.43,0,0,0,12-8.25,39.8,39.8,0,1,0-56.28-56.28m46.9,9.38a26.57,26.57,0,0,1,0,37.52,26.12,26.12,0,0,1-8,5.5l-.72.32-.72.35-65.56,31.33,31.34-65.56.34-.71.32-.73a26.29,26.29,0,0,1,5.5-8,26.56,26.56,0,0,1,37.52,0"/></g></g></g></g><g class="cls-2"><g class="cls-4"><g class="cls-53"><g class="cls-54"><path class="cls-52" d="M227.29,79.21l-.41.91-.42.9-15.14,31.66L243,97.54l.9-.42.91-.41a12.85,12.85,0,0,0,4-2.74A13.27,13.27,0,0,0,230,75.21a12.85,12.85,0,0,0-2.74,4"/></g></g></g></g><g class="cls-2"><g class="cls-4"><g class="cls-55"><g class="cls-56"><path class="cls-52" d="M192.51,37.69a66.08,66.08,0,0,0-13.76,20.08l-.08.18-.09.18L131.09,157.5h0a26.53,26.53,0,0,0,35.41,35.41l.24.47-.23-.47,99.37-47.5.18-.09.18-.08A66.33,66.33,0,1,0,192.51,37.69m84.42,9.38a53.07,53.07,0,0,1-16.06,86.05l-.36.16-.36.17L160.78,181l0,0a13.27,13.27,0,0,1-17.69-17.74l47.5-99.38.17-.36.16-.36a53.07,53.07,0,0,1,86.05-16.06"/></g></g></g><path class="cls-52" d="M178.67,58l-.09.18-47.5,99.38h0a26.53,26.53,0,0,0,35.41,35.41l.24.47-.23-.47,99.37-47.5.18-.09.18-.08a66.33,66.33,0,1,0-87.48-87.48Z"/></g><g class="cls-2"><g class="cls-4"><g class="cls-57"><g class="cls-58"><path class="cls-52" d="M166.61,52.41l-47.48,99.36a39.79,39.79,0,0,0,53.1,53.11l99.36-47.5a79.59,79.59,0,1,0-105-105m119.7-14.72a66.32,66.32,0,0,1-20.08,107.56l-.18.08-.18.09-99.37,47.5.23.47-.24-.47a26.53,26.53,0,0,1-35.41-35.41h0l47.5-99.37.09-.18.08-.18A66.32,66.32,0,0,1,286.31,37.69"/></g></g></g></g><g class="cls-2"><g class="cls-4"><g class="cls-57"><g class="cls-58"><path class="cls-52" d="M166.61,52.41l-47.48,99.36a39.79,39.79,0,0,0,53.1,53.11l99.36-47.5a79.59,79.59,0,1,0-105-105m119.7-14.72a66.32,66.32,0,0,1-20.08,107.56l-.18.08-.18.09-99.37,47.5.23.47-.24-.47a26.53,26.53,0,0,1-35.41-35.41h0l47.5-99.37.09-.18.08-.18A66.32,66.32,0,0,1,286.31,37.69"/></g></g></g></g><g class="cls-2"><g class="cls-4"><g class="cls-59"><g class="cls-60"><path class="cls-52" d="M201.89,47.07a52.89,52.89,0,0,0-11,16.06l-.16.36-.17.36-47.5,99.38A13.27,13.27,0,0,0,160.74,181l0,0,99.37-47.5.36-.17.36-.16a53.06,53.06,0,1,0-59-86.05M155,169h0v0l0,0h0M267.55,56.45a39.83,39.83,0,0,1,0,56.28,39.43,39.43,0,0,1-12,8.25l-.55.25-.53.25L155.05,169l0,0,47.5-99.38.26-.53.24-.55a39.43,39.43,0,0,1,8.25-12,39.85,39.85,0,0,1,56.28,0"/></g></g></g></g><g class="cls-2"><g class="cls-4"><g class="cls-61"><g class="cls-62"><path class="cls-52" d="M215.15,73.85l-.32.73-.34.71-31.34,65.56,65.56-31.33.72-.35.72-.32a26.12,26.12,0,0,0,8-5.5,26.53,26.53,0,1,0-37.52-37.52,26.29,26.29,0,0,0-5.5,8m33.64,1.36a13.28,13.28,0,0,1,0,18.76,13,13,0,0,1-4,2.74l-.91.41-.9.42-31.66,15.14L226.46,81l.43-.9.4-.91a13,13,0,0,1,2.74-4,13.28,13.28,0,0,1,18.76,0"/></g></g></g></g><g class="cls-2"><g class="cls-4"><g class="cls-59"><g class="cls-63"><path class="cls-52" d="M190.72,63.51l-.17.36-47.5,99.37A13.27,13.27,0,0,0,160.74,181h0l99.37-47.5.36-.18.36-.15a53.06,53.06,0,1,0-70-70ZM155,169h0s0,0,0,0l0,0h0M267.55,56.47a39.79,39.79,0,0,1-12,64.53l-.55.24-.53.26L155.06,169l0,0,47.5-99.37.26-.54.24-.54a39.79,39.79,0,0,1,64.53-12"/></g></g></g></g><g class="cls-2"><g class="cls-4"><g class="cls-61"><g class="cls-64"><path class="cls-52" d="M214.83,74.6l-.34.71-31.34,65.55,65.56-31.33.72-.34.72-.32a26.53,26.53,0,1,0-29.5-43,26.29,26.29,0,0,0-5.5,8Zm34,.63a13.25,13.25,0,0,1-4,21.5l-.91.4-.9.43L211.32,112.7,226.46,81l.43-.9.4-.9a12.9,12.9,0,0,1,2.74-4,13.28,13.28,0,0,1,18.76,0"/></g></g></g></g></g></g></g></svg>