<svg id="Layer_1" data-name="Layer 1" xmlns="http://www.w3.org/2000/svg" xmlns:xlink="http://www.w3.org/1999/xlink" viewBox="0 0 417 421"><defs><style>.cls-1{fill:none;}.cls-2{clip-path:url(#clip-path);}.cls-3,.cls-4{isolation:isolate;}.cls-4{mix-blend-mode:multiply;}.cls-5{clip-path:url(#clip-path-4);}.cls-6{clip-path:url(#clip-path-5);}.cls-7{fill:#ffdc3f;}.cls-8{clip-path:url(#clip-path-7);}.cls-9{clip-path:url(#clip-path-8);}.cls-10{clip-path:url(#clip-path-10);}.cls-11{clip-path:url(#clip-path-11);}.cls-12{clip-path:url(#clip-path-13);}.cls-13{clip-path:url(#clip-path-14);}.cls-14{clip-path:url(#clip-path-19);}.cls-15{clip-path:url(#clip-path-20);}.cls-16{clip-path:url(#clip-path-22);}.cls-17{clip-path:url(#clip-path-23);}.cls-18{clip-path:url(#clip-path-26);}.cls-19{clip-path:url(#clip-path-29);}.cls-20{clip-path:url(#clip-path-31);}.cls-21{clip-path:url(#clip-path-32);}.cls-22{fill:#ed5f5c;}.cls-23{clip-path:url(#clip-path-34);}.cls-24{clip-path:url(#clip-path-35);}.cls-25{clip-path:url(#clip-path-37);}.cls-26{clip-path:url(#clip-path-38);}.cls-27{clip-path:url(#clip-path-40);}.cls-28{clip-path:url(#clip-path-41);}.cls-29{clip-path:url(#clip-path-46);}.cls-30{clip-path:url(#clip-path-47);}.cls-31{clip-path:url(#clip-path-49);}.cls-32{clip-path:url(#clip-path-50);}.cls-33{clip-path:url(#clip-path-53);}.cls-34{clip-path:url(#clip-path-56);}.cls-35{clip-path:url(#clip-path-58);}.cls-36{clip-path:url(#clip-path-59);}.cls-37{fill:#679424;}.cls-38{clip-path:url(#clip-path-61);}.cls-39{clip-path:url(#clip-path-62);}.cls-40{clip-path:url(#clip-path-64);}.cls-41{clip-path:url(#clip-path-65);}.cls-42{clip-path:url(#clip-path-67);}.cls-43{clip-path:url(#clip-path-68);}.cls-44{clip-path:url(#clip-path-73);}.cls-45{clip-path:url(#clip-path-74);}.cls-46{clip-path:url(#clip-path-76);}.cls-47{clip-path:url(#clip-path-77);}.cls-48{clip-path:url(#clip-path-80);}.cls-49{clip-path:url(#clip-path-83);}.cls-50{clip-path:url(#clip-path-85);}.cls-51{clip-path:url(#clip-path-86);}.cls-52{fill:#9dcaed;}.cls-53{clip-path:url(#clip-path-88);}.cls-54{clip-path:url(#clip-path-89);}.cls-55{clip-path:url(#clip-path-91);}.cls-56{clip-path:url(#clip-path-92);}.cls-57{clip-path:url(#clip-path-94);}.cls-58{clip-path:url(#clip-path-95);}.cls-59{clip-path:url(#clip-path-100);}.cls-60{clip-path:url(#clip-path-101);}.cls-61{clip-path:url(#clip-path-103);}.cls-62{clip-path:url(#clip-path-104);}.cls-63{clip-path:url(#clip-path-107);}.cls-64{clip-path:url(#clip-path-110);}</style><clipPath id="clip-path"><rect class="cls-1" x="9" y="7" width="404" height="404"/></clipPath><clipPath id="clip-path-4"><rect class="cls-1" x="204" y="46" width="125" height="125"/></clipPath><clipPath id="clip-path-5"><rect class="cls-1" x="204.54" y="46.79" width="124.09" height="124.09"/></clipPath><clipPath id="clip-path-7"><rect class="cls-1" x="260" y="103" width="43" height="42"/></clipPath><clipPath id="clip-path-8"><rect class="cls-1" x="260.81" y="103.06" width="41.32" height="41.32"/></clipPath><clipPath id="clip-path-10"><rect class="cls-1" x="178" y="20" width="178" height="178"/></clipPath><clipPath id="clip-path-11"><rect class="cls-1" x="178" y="20.26" width="177.12" height="177.12"/></clipPath><clipPath id="clip-path-13"><rect class="cls-1" x="164" y="7" width="205" height="204"/></clipPath><clipPath id="clip-path-14"><rect class="cls-1" x="164.75" y="7" width="203.67" height="203.67"/></clipPath><clipPath id="clip-path-19"><rect class="cls-1" x="191" y="33" width="151" height="152"/></clipPath><clipPath id="clip-path-20"><rect class="cls-1" x="191.27" y="33.53" width="150.61" height="150.6"/></clipPath><clipPath id="clip-path-22"><rect class="cls-1" x="232" y="74" width="84" height="84"/></clipPath><clipPath id="clip-path-23"><rect class="cls-1" x="232.66" y="74.91" width="82.72" height="82.72"/></clipPath><clipPath id="clip-path-26"><rect class="cls-1" x="191.25" y="33.53" width="150.61" height="150.6"/></clipPath><clipPath id="clip-path-29"><rect class="cls-1" x="232.64" y="74.91" width="82.72" height="82.72"/></clipPath><clipPath id="clip-path-31"><rect class="cls-1" x="48" y="91" width="125" height="125"/></clipPath><clipPath id="clip-path-32"><rect class="cls-1" x="48.79" y="91.41" width="124.09" height="124.09"/></clipPath><clipPath id="clip-path-34"><rect class="cls-1" x="105" y="117" width="42" height="43"/></clipPath><clipPath id="clip-path-35"><rect class="cls-1" x="105.06" y="117.91" width="41.32" height="41.32"/></clipPath><clipPath id="clip-path-37"><rect class="cls-1" x="22" y="64" width="178" height="179"/></clipPath><clipPath id="clip-path-38"><rect class="cls-1" x="22.25" y="64.91" width="177.12" height="177.12"/></clipPath><clipPath id="clip-path-40"><rect class="cls-1" x="9" y="51" width="204" height="205"/></clipPath><clipPath id="clip-path-41"><rect class="cls-1" x="9" y="51.62" width="203.67" height="203.67"/></clipPath><clipPath id="clip-path-46"><rect class="cls-1" x="35" y="78" width="152" height="151"/></clipPath><clipPath id="clip-path-47"><rect class="cls-1" x="35.52" y="78.16" width="150.6" height="150.6"/></clipPath><clipPath id="clip-path-49"><rect class="cls-1" x="76" y="104" width="84" height="84"/></clipPath><clipPath id="clip-path-50"><rect class="cls-1" x="76.91" y="104.66" width="82.72" height="82.72"/></clipPath><clipPath id="clip-path-53"><rect class="cls-1" x="35.5" y="78.16" width="150.61" height="150.59"/></clipPath><clipPath id="clip-path-56"><rect class="cls-1" x="76.89" y="104.66" width="82.72" height="82.72"/></clipPath><clipPath id="clip-path-58"><rect class="cls-1" x="93" y="247" width="125" height="125"/></clipPath><clipPath id="clip-path-59"><rect class="cls-1" x="93.37" y="247.12" width="124.09" height="124.09"/></clipPath><clipPath id="clip-path-61"><rect class="cls-1" x="119" y="273" width="43" height="42"/></clipPath><clipPath id="clip-path-62"><rect class="cls-1" x="119.88" y="273.62" width="41.32" height="41.32"/></clipPath><clipPath id="clip-path-64"><rect class="cls-1" x="66" y="220" width="178" height="178"/></clipPath><clipPath id="clip-path-65"><rect class="cls-1" x="66.87" y="220.62" width="177.12" height="177.13"/></clipPath><clipPath id="clip-path-67"><rect class="cls-1" x="53" y="207" width="205" height="204"/></clipPath><clipPath id="clip-path-68"><rect class="cls-1" x="53.59" y="207.33" width="203.67" height="203.67"/></clipPath><clipPath id="clip-path-73"><rect class="cls-1" x="80" y="233" width="151" height="152"/></clipPath><clipPath id="clip-path-74"><rect class="cls-1" x="80.12" y="233.87" width="150.6" height="150.6"/></clipPath><clipPath id="clip-path-76"><rect class="cls-1" x="106" y="260" width="84" height="84"/></clipPath><clipPath id="clip-path-77"><rect class="cls-1" x="106.62" y="260.37" width="82.72" height="82.72"/></clipPath><clipPath id="clip-path-80"><rect class="cls-1" x="80.14" y="233.87" width="150.61" height="150.6"/></clipPath><clipPath id="clip-path-83"><rect class="cls-1" x="106.64" y="260.37" width="82.72" height="82.72"/></clipPath><clipPath id="clip-path-85"><rect class="cls-1" x="249" y="202" width="125" height="125"/></clipPath><clipPath id="clip-path-86"><rect class="cls-1" x="249.12" y="202.51" width="124.09" height="124.09"/></clipPath><clipPath id="clip-path-88"><rect class="cls-1" x="275" y="258" width="42" height="43"/></clipPath><clipPath id="clip-path-89"><rect class="cls-1" x="275.62" y="258.77" width="41.32" height="41.32"/></clipPath><clipPath id="clip-path-91"><rect class="cls-1" x="222" y="175" width="178" height="179"/></clipPath><clipPath id="clip-path-92"><rect class="cls-1" x="222.62" y="175.97" width="177.12" height="177.13"/></clipPath><clipPath id="clip-path-94"><rect class="cls-1" x="209" y="162" width="204" height="205"/></clipPath><clipPath id="clip-path-95"><rect class="cls-1" x="209.33" y="162.72" width="203.67" height="203.67"/></clipPath><clipPath id="clip-path-100"><rect class="cls-1" x="235" y="189" width="152" height="151"/></clipPath><clipPath id="clip-path-101"><rect class="cls-1" x="235.87" y="189.25" width="150.6" height="150.6"/></clipPath><clipPath id="clip-path-103"><rect class="cls-1" x="262" y="230" width="84" height="84"/></clipPath><clipPath id="clip-path-104"><rect class="cls-1" x="262.37" y="230.62" width="82.72" height="82.72"/></clipPath><clipPath id="clip-path-107"><rect class="cls-1" x="235.89" y="189.25" width="150.61" height="150.6"/></clipPath><clipPath id="clip-path-110"><rect class="cls-1" x="262.39" y="230.62" width="82.72" height="82.72"/></clipPath></defs><title>icono_codos</title><g class="cls-2"><g class="cls-3"><g class="cls-2"><g class="cls-2"><g class="cls-4"><g class="cls-5"><g class="cls-6"><path class="cls-7" d="M317,103a39.61,39.61,0,0,0-12-8.25l-.54-.24-.54-.26L204.57,46.79l0,0L252,146.14l.25.53.25.55a39.41,39.41,0,0,0,8.24,12A39.77,39.77,0,0,0,317,103m-9.38,46.86a26.53,26.53,0,0,1-37.49,0,26.08,26.08,0,0,1-5.5-8l-.32-.72-.34-.72L232.66,74.91l65.51,31.31.71.35.73.32a26.5,26.5,0,0,1,8,43"/></g></g></g></g><g class="cls-2"><g class="cls-4"><g class="cls-8"><g class="cls-9"><path class="cls-7" d="M294.25,119l-.91-.4-.89-.43L260.8,103.06l15.13,31.64.43.9.4.91A13.26,13.26,0,1,0,294.25,119"/></g></g></g></g><g class="cls-2"><g class="cls-4"><g class="cls-10"><g class="cls-11"><path class="cls-7" d="M335.74,84.26a65.78,65.78,0,0,0-20.06-13.75l-.18-.08-.18-.09L216,22.87h0a26.51,26.51,0,0,0-35.38,35.38l-.47.24.47-.23,47.47,99.31.08.18.08.18A66.28,66.28,0,1,0,335.74,84.26m-9.37,84.36a53.08,53.08,0,0,1-75,0,52.51,52.51,0,0,1-11-16.05l-.16-.36-.17-.36-47.47-99.3,0,0a13.26,13.26,0,0,1,17.73-17.68L309.6,82.3l.36.17.36.16a53,53,0,0,1,16.05,86"/></g></g></g><path class="cls-7" d="M315.5,70.43l-.18-.09L216,22.87h0a26.51,26.51,0,0,0-35.38,35.38l-.47.24.47-.23,47.47,99.31.08.18.08.18a66.28,66.28,0,1,0,87.43-87.42Z"/></g><g class="cls-2"><g class="cls-4"><g class="cls-12"><g class="cls-13"><path class="cls-7" d="M321,58.38l-99.3-47.46A39.77,39.77,0,0,0,168.67,64l47.46,99.3A79.54,79.54,0,1,0,321,58.38M335.74,178a66.27,66.27,0,0,1-107.48-20.07l-.09-.18-.08-.18L180.62,58.26l-.47.23.47-.24A26.51,26.51,0,0,1,216,22.87h0l99.31,47.47.18.09.18.08A66.28,66.28,0,0,1,335.74,178"/></g></g></g></g><g class="cls-2"><g class="cls-4"><g class="cls-12"><g class="cls-13"><path class="cls-7" d="M321,58.38l-99.3-47.46A39.77,39.77,0,0,0,168.67,64l47.46,99.3A79.54,79.54,0,1,0,321,58.38M335.74,178a66.27,66.27,0,0,1-107.48-20.07l-.09-.18-.08-.18L180.62,58.26l-.47.23.47-.24A26.51,26.51,0,0,1,216,22.87h0l99.31,47.47.18.09.18.08A66.28,66.28,0,0,1,335.74,178"/></g></g></g></g><g class="cls-2"><g class="cls-4"><g class="cls-14"><g class="cls-15"><path class="cls-7" d="M326.37,93.63a52.93,52.93,0,0,0-16.05-11l-.36-.16-.36-.17L210.29,34.83a13.26,13.26,0,0,0-17.73,17.68l0,0,47.47,99.3.17.36.16.36a52.51,52.51,0,0,0,11,16.05,53,53,0,0,0,75-75M204.51,46.76h0l0,0,0,0v0a0,0,0,0,0,0,0M317,159.25a39.82,39.82,0,0,1-56.25,0,39.41,39.41,0,0,1-8.24-12l-.25-.55-.25-.53L204.54,46.83l0,0,99.31,47.47.54.26.54.24a39.76,39.76,0,0,1,12,64.49"/></g></g></g></g><g class="cls-2"><g class="cls-4"><g class="cls-16"><g class="cls-17"><path class="cls-7" d="M299.61,106.89l-.73-.32-.72-.35-65.5-31.31L264,140.42l.34.72.32.72a26.24,26.24,0,0,0,5.5,8,26.51,26.51,0,1,0,29.48-43m-1.36,33.61a13.26,13.26,0,0,1-21.49-4l-.4-.91-.43-.9-15.12-31.65,31.64,15.13.89.43.91.4a13.25,13.25,0,0,1,4,21.49"/></g></g></g></g><g class="cls-2"><g class="cls-4"><g class="cls-14"><g class="cls-18"><path class="cls-7" d="M309.94,82.47l-.36-.17L210.27,34.83a13.26,13.26,0,0,0-17.72,17.68v0L240,151.85l.17.36.16.36A53,53,0,1,0,310.3,82.63ZM204.5,46.76h0l0,0,0,0v0M317,159.25a39.76,39.76,0,0,1-64.49-12l-.24-.55-.26-.53L204.52,46.83l0,0,99.31,47.47.53.26.55.24a39.77,39.77,0,0,1,12,64.49"/></g></g></g></g><g class="cls-2"><g class="cls-4"><g class="cls-16"><g class="cls-19"><path class="cls-7" d="M298.86,106.57l-.71-.35L232.64,74.91,264,140.42l.34.72.32.72a26.52,26.52,0,1,0,35-35Zm-.63,33.93a13.26,13.26,0,0,1-18.74,0,12.93,12.93,0,0,1-2.75-4l-.4-.9-.43-.9-15.13-31.65,31.65,15.13.9.43.91.4a13.26,13.26,0,0,1,4,21.49"/></g></g></g><line class="cls-7" x1="298.25" y1="121.75" x2="279.5" y2="140.5"/><line class="cls-7" x1="298.23" y1="140.5" x2="280.17" y2="122.44"/><path class="cls-7" d="M288.87,135.8a4.66,4.66,0,1,0-4.65-4.66,4.65,4.65,0,0,0,4.65,4.66"/><path class="cls-7" d="M288.87,135.8a4.66,4.66,0,1,0-4.65-4.66,4.65,4.65,0,0,0,4.65,4.66"/></g><g class="cls-2"><g class="cls-4"><g class="cls-20"><g class="cls-21"><path class="cls-22" d="M161.25,103A39.82,39.82,0,0,0,105,103a39.41,39.41,0,0,0-8.24,12l-.24.55-.26.53L48.79,215.46l0,0L148.13,168l.54-.25.55-.25a39.75,39.75,0,0,0,12-64.48m-9.38,46.86a26.25,26.25,0,0,1-8,5.5l-.73.32-.71.34L76.91,187.38l31.31-65.51.34-.72.32-.72a26.51,26.51,0,1,1,43,29.47"/></g></g></g></g><g class="cls-2"><g class="cls-4"><g class="cls-23"><g class="cls-24"><path class="cls-22" d="M138.5,143.28l-.9.39-.9.43-31.64,15.13,15.12-31.65.43-.89.4-.91a13.26,13.26,0,1,1,21.49,14.75,13,13,0,0,1-4,2.75"/></g></g></g></g><g class="cls-2"><g class="cls-4"><g class="cls-25"><g class="cls-26"><path class="cls-22" d="M180,84.29A66.28,66.28,0,0,0,72.51,104.35l-.08.19-.09.18L24.87,204l-.47-.23.47.24a26.51,26.51,0,0,0,35.38,35.39h0L159.57,192l.18-.09.18-.08A66.27,66.27,0,0,0,180,84.29m-9.38,84.36a52.63,52.63,0,0,1-16.05,11l-.36.16-.36.17L54.54,227.45a13.26,13.26,0,0,1-17.73-17.67l0,0L84.3,110.43l.17-.35.16-.37a53,53,0,1,1,86,58.94"/></g></g></g><path class="cls-22" d="M159.75,191.86l-.18.09L60.26,239.41h0A26.51,26.51,0,0,1,24.87,204l-.47-.24.47.23,47.47-99.3.09-.18.08-.19a66.29,66.29,0,1,1,87.42,87.43Z"/></g><g class="cls-2"><g class="cls-4"><g class="cls-27"><g class="cls-28"><path class="cls-22" d="M189.37,187.4A79.54,79.54,0,1,0,60.38,99L12.92,198.29A39.77,39.77,0,0,0,66,251.37l99.3-47.46a79.38,79.38,0,0,0,24.08-16.51M180,178a66.12,66.12,0,0,1-20.07,13.75l-.18.08-.18.09L60.26,239.41h0A26.52,26.52,0,0,1,24.87,204l-.47-.24.47.23,47.47-99.3.09-.18.08-.19A66.28,66.28,0,1,1,180,178"/></g></g></g></g><g class="cls-2"><g class="cls-4"><g class="cls-27"><g class="cls-28"><path class="cls-22" d="M189.37,187.4A79.54,79.54,0,1,0,60.38,99L12.92,198.29A39.77,39.77,0,0,0,66,251.37l99.3-47.46a79.38,79.38,0,0,0,24.08-16.51M180,178a66.12,66.12,0,0,1-20.07,13.75l-.18.08-.18.09L60.26,239.41h0A26.52,26.52,0,0,1,24.87,204l-.47-.24.47.23,47.47-99.3.09-.18.08-.19A66.28,66.28,0,1,1,180,178"/></g></g></g></g><g class="cls-2"><g class="cls-4"><g class="cls-29"><g class="cls-30"><path class="cls-22" d="M170.62,93.66a53,53,0,0,0-86,16l-.16.37-.17.35L36.83,209.74v0a13.25,13.25,0,0,0,17.72,17.67L153.85,180l.36-.17.36-.16a53,53,0,0,0,16.05-86M48.78,215.49v0l0,0,0,0h0a.06.06,0,0,1,0,0m112.47-56.21a39.48,39.48,0,0,1-12,8.24l-.55.25-.54.25-99.3,47.47,0,0,47.47-99.31.26-.54.24-.54A39.41,39.41,0,0,1,105,103a39.77,39.77,0,0,1,56.25,56.24"/></g></g></g></g><g class="cls-2"><g class="cls-4"><g class="cls-31"><g class="cls-32"><path class="cls-22" d="M151.87,149.9a26.51,26.51,0,1,0-43-29.47l-.32.72-.34.72L76.91,187.38l65.51-31.32.71-.34.73-.32a26.25,26.25,0,0,0,8-5.5m-9.37-9.37a12.93,12.93,0,0,1-4,2.75l-.9.39-.9.43-31.64,15.13,15.12-31.65.43-.89.4-.91a13.26,13.26,0,1,1,21.49,14.75"/></g></g></g></g><g class="cls-2"><g class="cls-4"><g class="cls-29"><g class="cls-33"><path class="cls-22" d="M154.55,179.65a52.51,52.51,0,0,0,16-11,53,53,0,1,0-86-58.94l-.15.37-.18.35L36.81,209.74v0a13.25,13.25,0,0,0,17.73,17.67L153.83,180l.36-.17ZM48.75,215.49v0l0,0h0v0m112.48-56.21a39.36,39.36,0,0,1-12,8.24l-.54.25-.54.25L48.81,215.49l0,0,47.48-99.31.25-.54.24-.54a39.77,39.77,0,1,1,64.49,44.21"/></g></g></g></g><g class="cls-2"><g class="cls-4"><g class="cls-31"><g class="cls-34"><path class="cls-22" d="M143.84,155.4a26.51,26.51,0,1,0-35-35l-.32.73-.35.72L76.89,187.38l65.51-31.31.71-.35Zm-1.36-14.87a13,13,0,0,1-4,2.75l-.91.39-.9.43L105,159.23l15.12-31.65.43-.89.4-.91a13,13,0,0,1,2.75-4,13.25,13.25,0,0,1,18.74,18.75"/></g></g></g><line class="cls-22" x1="142.5" y1="140.53" x2="123.75" y2="121.78"/><line class="cls-22" x1="142.48" y1="121.78" x2="124.43" y2="139.84"/><path class="cls-22" d="M133.13,126.48a4.66,4.66,0,1,1-4.66,4.66,4.66,4.66,0,0,1,4.66-4.66"/><path class="cls-22" d="M133.13,126.48a4.66,4.66,0,1,1-4.66,4.66,4.66,4.66,0,0,1,4.66-4.66"/></g><g class="cls-2"><g class="cls-4"><g class="cls-35"><g class="cls-36"><path class="cls-37" d="M105,315a39.43,39.43,0,0,0,12,8.25l.54.24.54.26,99.31,47.47,0,0L170,271.86l-.25-.53-.25-.55A39.77,39.77,0,1,0,105,315m9.38-46.86a26.53,26.53,0,0,1,37.49,0,26.08,26.08,0,0,1,5.5,8l.32.72.34.72,31.31,65.51-65.5-31.31-.72-.34-.73-.33a26.5,26.5,0,0,1-8-43"/></g></g></g></g><g class="cls-2"><g class="cls-4"><g class="cls-38"><g class="cls-39"><path class="cls-37" d="M127.75,299l.91.4.89.43,31.64,15.12L146.07,283.3l-.43-.9-.4-.9a13.07,13.07,0,0,0-2.74-4A13.26,13.26,0,1,0,127.75,299"/></g></g></g></g><g class="cls-2"><g class="cls-4"><g class="cls-40"><g class="cls-41"><path class="cls-37" d="M86.26,333.75a65.93,65.93,0,0,0,20.06,13.74l.18.08.18.09L206,395.13h0a26.51,26.51,0,0,0,35.38-35.38l.47-.24-.47.23-47.47-99.31-.09-.18-.07-.18A66.29,66.29,0,1,0,86.26,333.75m9.37-84.37a53.08,53.08,0,0,1,75,0,52.51,52.51,0,0,1,11,16.05l.16.36.17.36,47.47,99.3,0,0a13.26,13.26,0,0,1-17.73,17.68L112.4,335.7l-.36-.17-.36-.16a53,53,0,0,1-16.05-86"/></g></g></g><path class="cls-37" d="M106.5,347.57l.18.09L206,395.13h0a26.51,26.51,0,0,0,35.38-35.38l.47-.24-.47.23-47.47-99.31-.09-.18-.07-.18a66.29,66.29,0,1,0-87.43,87.42Z"/></g><g class="cls-2"><g class="cls-4"><g class="cls-42"><g class="cls-43"><path class="cls-37" d="M101,359.62l99.3,47.46A39.77,39.77,0,0,0,253.33,354l-47.46-99.3A79.54,79.54,0,1,0,101,359.62M86.26,240a66.27,66.27,0,0,1,107.48,20.07l.08.18.09.18,47.47,99.31.47-.23-.47.24A26.51,26.51,0,0,1,206,395.13h0l-99.31-47.47-.18-.09-.18-.08A66.27,66.27,0,0,1,86.26,240"/></g></g></g></g><g class="cls-2"><g class="cls-4"><g class="cls-42"><g class="cls-43"><path class="cls-37" d="M101,359.62l99.3,47.46A39.77,39.77,0,0,0,253.33,354l-47.46-99.3A79.54,79.54,0,1,0,101,359.62M86.26,240a66.27,66.27,0,0,1,107.48,20.07l.08.18.09.18,47.47,99.31.47-.23-.47.24A26.51,26.51,0,0,1,206,395.13h0l-99.31-47.47-.18-.09-.18-.08A66.27,66.27,0,0,1,86.26,240"/></g></g></g></g><g class="cls-2"><g class="cls-4"><g class="cls-44"><g class="cls-45"><path class="cls-37" d="M95.63,324.37a52.93,52.93,0,0,0,16.05,11l.36.16.36.17,99.31,47.47a13.26,13.26,0,0,0,17.73-17.68l0,0L182,266.15l-.17-.36-.16-.36a52.51,52.51,0,0,0-11-16.05,53,53,0,0,0-75,75m121.85,46.87h0l0,0,0,0v0M105,258.75a39.76,39.76,0,0,1,64.49,12l.25.55.25.53,47.47,99.31,0,0-99.31-47.47-.54-.26-.54-.24a39.76,39.76,0,0,1-12-64.49"/></g></g></g></g><g class="cls-2"><g class="cls-4"><g class="cls-46"><g class="cls-47"><path class="cls-37" d="M122.39,311.12l.73.32.72.34,65.5,31.31L158,277.58l-.34-.72-.32-.72a26.25,26.25,0,0,0-5.5-8,26.51,26.51,0,1,0-29.48,43m1.36-33.62a13.27,13.27,0,0,1,18.75,0,13.07,13.07,0,0,1,2.74,4l.4.9.43.9L161.19,315l-31.64-15.13-.9-.43-.9-.4a13.25,13.25,0,0,1-4-21.49"/></g></g></g></g><g class="cls-2"><g class="cls-4"><g class="cls-44"><g class="cls-48"><path class="cls-37" d="M112.06,335.53l.36.17,99.31,47.47a13.26,13.26,0,0,0,17.72-17.68v0L182,266.15l-.17-.36-.16-.36a53,53,0,1,0-69.94,69.94ZM217.5,371.24h0l0,0v0M105,258.75a39.76,39.76,0,0,1,64.49,12l.24.55.26.53,47.47,99.31,0,0-99.31-47.47-.53-.26-.55-.24a39.77,39.77,0,0,1-12-64.49"/></g></g></g></g><g class="cls-2"><g class="cls-4"><g class="cls-46"><g class="cls-49"><path class="cls-37" d="M123.14,311.44l.71.34,65.51,31.31-31.31-65.51-.35-.72-.31-.72a26.52,26.52,0,1,0-35,35Zm.63-33.94a13.26,13.26,0,0,1,18.74,0,12.93,12.93,0,0,1,2.75,4l.4.9.43.9L161.22,315l-31.65-15.13-.9-.43-.91-.4a13.26,13.26,0,0,1-4-21.49"/></g></g></g><line class="cls-37" x1="123.75" y1="296.25" x2="142.5" y2="277.5"/><line class="cls-37" x1="123.77" y1="277.5" x2="141.83" y2="295.56"/><path class="cls-37" d="M133.13,282.2a4.66,4.66,0,1,0,4.65,4.66,4.66,4.66,0,0,0-4.65-4.66"/><path class="cls-37" d="M133.13,282.2a4.66,4.66,0,1,0,4.65,4.66,4.66,4.66,0,0,0-4.65-4.66"/></g><g class="cls-2"><g class="cls-4"><g class="cls-50"><g class="cls-51"><path class="cls-52" d="M260.75,315A39.82,39.82,0,0,0,317,315a39.41,39.41,0,0,0,8.24-12l.24-.54.26-.54,47.47-99.31,0,0L273.87,250l-.54.26-.55.24a39.75,39.75,0,0,0-12,64.48m9.38-46.86a26.25,26.25,0,0,1,8-5.5l.73-.32.71-.34,65.51-31.32-31.31,65.51-.34.72-.32.72a26.51,26.51,0,1,1-43-29.47"/></g></g></g></g><g class="cls-2"><g class="cls-4"><g class="cls-53"><g class="cls-54"><path class="cls-52" d="M283.49,274.73l.91-.4.9-.43,31.64-15.13-15.12,31.65-.43.89-.41.91a13,13,0,0,1-2.73,4,13.26,13.26,0,0,1-18.75-18.75,12.92,12.92,0,0,1,4-2.74"/></g></g></g></g><g class="cls-2"><g class="cls-4"><g class="cls-55"><g class="cls-56"><path class="cls-52" d="M242,333.71a66.28,66.28,0,0,0,107.49-20.06l.08-.19.09-.17L397.13,214l.47.23-.47-.24a26.52,26.52,0,0,0-35.38-35.39h0l-99.31,47.47-.18.08-.18.08A66.27,66.27,0,0,0,242,333.71m9.38-84.36a52.63,52.63,0,0,1,16.05-11l.36-.16.36-.17,99.31-47.47a13.26,13.26,0,0,1,17.73,17.67l0,0L337.7,307.57l-.17.36-.16.36a53,53,0,1,1-86-58.94"/></g></g></g><path class="cls-52" d="M262.25,226.14l.18-.08,99.31-47.47h0A26.52,26.52,0,0,1,397.13,214l.47.24-.47-.23-47.47,99.31-.09.17-.08.19a66.29,66.29,0,1,1-87.42-87.43Z"/></g><g class="cls-2"><g class="cls-4"><g class="cls-57"><g class="cls-58"><path class="cls-52" d="M232.63,230.6a79.54,79.54,0,1,0,129,88.4l47.46-99.29A39.77,39.77,0,0,0,356,166.64l-99.3,47.45a79.38,79.38,0,0,0-24.08,16.51M242,240a66.12,66.12,0,0,1,20.07-13.75l.18-.08.18-.08,99.31-47.47h0A26.52,26.52,0,0,1,397.13,214l.47.24-.47-.23-47.47,99.31-.09.17-.08.19A66.28,66.28,0,1,1,242,240"/></g></g></g></g><g class="cls-2"><g class="cls-4"><g class="cls-57"><g class="cls-58"><path class="cls-52" d="M232.63,230.6a79.54,79.54,0,1,0,129,88.4l47.46-99.29A39.77,39.77,0,0,0,356,166.64l-99.3,47.45a79.38,79.38,0,0,0-24.08,16.51M242,240a66.12,66.12,0,0,1,20.07-13.75l.18-.08.18-.08,99.31-47.47h0A26.52,26.52,0,0,1,397.13,214l.47.24-.47-.23-47.47,99.31-.09.17-.08.19A66.28,66.28,0,1,1,242,240"/></g></g></g></g><g class="cls-2"><g class="cls-4"><g class="cls-59"><g class="cls-60"><path class="cls-52" d="M251.38,324.34a53,53,0,0,0,86-16l.16-.37.17-.35,47.47-99.31v0a13.25,13.25,0,0,0-17.72-17.67L268.15,238l-.36.17-.36.16a53,53,0,0,0-16.05,86M373.22,202.51v0l0,0h0a.06.06,0,0,1,0,0M260.75,258.72a39.65,39.65,0,0,1,12-8.24l.55-.24.54-.26,99.3-47.47,0,0-47.47,99.31-.26.54-.24.54A39.41,39.41,0,0,1,317,315a39.77,39.77,0,1,1-56.25-56.24"/></g></g></g></g><g class="cls-2"><g class="cls-4"><g class="cls-61"><g class="cls-62"><path class="cls-52" d="M270.13,268.1a26.51,26.51,0,1,0,43,29.47l.32-.72.34-.72,31.31-65.51-65.51,31.32-.71.34-.73.32a26.25,26.25,0,0,0-8,5.5m9.37,9.37a12.73,12.73,0,0,1,4-2.74l.9-.4.9-.43,31.64-15.13-15.12,31.65-.43.89-.4.91a13.26,13.26,0,1,1-21.49-14.75"/></g></g></g></g><g class="cls-2"><g class="cls-4"><g class="cls-59"><g class="cls-63"><path class="cls-52" d="M267.45,238.35a52.51,52.51,0,0,0-16,11,53,53,0,1,0,86,58.94l.15-.37.18-.35,47.47-99.31v0a13.25,13.25,0,0,0-17.73-17.67L268.16,238l-.35.17Zm105.8-35.84v0l0,0h0v0M260.77,258.72a39.53,39.53,0,0,1,12-8.24l.54-.25.54-.25,99.31-47.47,0,0-47.47,99.31-.25.54-.24.54a39.77,39.77,0,1,1-64.49-44.21"/></g></g></g></g><g class="cls-2"><g class="cls-4"><g class="cls-61"><g class="cls-64"><path class="cls-52" d="M278.16,262.6a26.51,26.51,0,1,0,35,35l.32-.73.35-.72,31.31-65.51L279.6,261.94l-.71.34Zm1.36,14.87a12.8,12.8,0,0,1,4-2.74l.91-.4.9-.43L317,258.77l-15.12,31.65-.43.89-.4.91a13,13,0,0,1-2.75,4,13.25,13.25,0,0,1-18.74-18.75"/></g></g></g><line class="cls-52" x1="279.5" y1="277.47" x2="298.25" y2="296.22"/><line class="cls-52" x1="279.52" y1="296.22" x2="297.57" y2="278.16"/><path class="cls-52" d="M288.87,291.52a4.66,4.66,0,1,1,4.66-4.66,4.66,4.66,0,0,1-4.66,4.66"/><path class="cls-52" d="M288.87,291.52a4.66,4.66,0,1,1,4.66-4.66,4.66,4.66,0,0,1-4.66,4.66"/></g></g></g></g></svg>