<svg id="Layer_1" data-name="Layer 1" xmlns="http://www.w3.org/2000/svg" xmlns:xlink="http://www.w3.org/1999/xlink" viewBox="0 0 392 395"><defs><style>.cls-1{fill:none;}.cls-2{clip-path:url(#clip-path);}.cls-3,.cls-4{isolation:isolate;}.cls-4{mix-blend-mode:multiply;}.cls-5{clip-path:url(#clip-path-4);}.cls-6{clip-path:url(#clip-path-5);}.cls-7{fill:#ffcb07;}.cls-8{clip-path:url(#clip-path-7);}.cls-9{clip-path:url(#clip-path-8);}.cls-10{clip-path:url(#clip-path-10);}.cls-11{clip-path:url(#clip-path-11);}.cls-12{clip-path:url(#clip-path-13);}.cls-13{clip-path:url(#clip-path-14);}.cls-14{clip-path:url(#clip-path-19);}.cls-15{clip-path:url(#clip-path-20);}.cls-16{clip-path:url(#clip-path-22);}.cls-17{clip-path:url(#clip-path-23);}.cls-18{clip-path:url(#clip-path-26);}.cls-19{clip-path:url(#clip-path-29);}.cls-20{clip-path:url(#clip-path-31);}.cls-21{clip-path:url(#clip-path-32);}.cls-22{clip-path:url(#clip-path-34);}.cls-23{clip-path:url(#clip-path-35);}.cls-24{clip-path:url(#clip-path-37);}.cls-25{clip-path:url(#clip-path-38);}.cls-26{clip-path:url(#clip-path-40);}.cls-27{clip-path:url(#clip-path-41);}.cls-28{clip-path:url(#clip-path-46);}.cls-29{clip-path:url(#clip-path-47);}.cls-30{clip-path:url(#clip-path-49);}.cls-31{clip-path:url(#clip-path-50);}.cls-32{clip-path:url(#clip-path-53);}.cls-33{clip-path:url(#clip-path-56);}.cls-34{clip-path:url(#clip-path-58);}.cls-35{clip-path:url(#clip-path-59);}.cls-36{fill:#ffdc3f;}.cls-37{clip-path:url(#clip-path-61);}.cls-38{clip-path:url(#clip-path-62);}.cls-39{clip-path:url(#clip-path-64);}.cls-40{clip-path:url(#clip-path-65);}.cls-41{clip-path:url(#clip-path-67);}.cls-42{clip-path:url(#clip-path-68);}.cls-43{clip-path:url(#clip-path-73);}.cls-44{clip-path:url(#clip-path-74);}.cls-45{clip-path:url(#clip-path-76);}.cls-46{clip-path:url(#clip-path-77);}.cls-47{clip-path:url(#clip-path-80);}.cls-48{clip-path:url(#clip-path-83);}.cls-49{clip-path:url(#clip-path-85);}.cls-50{clip-path:url(#clip-path-86);}.cls-51{clip-path:url(#clip-path-88);}.cls-52{clip-path:url(#clip-path-89);}.cls-53{clip-path:url(#clip-path-91);}.cls-54{clip-path:url(#clip-path-92);}.cls-55{clip-path:url(#clip-path-94);}.cls-56{clip-path:url(#clip-path-95);}.cls-57{clip-path:url(#clip-path-100);}.cls-58{clip-path:url(#clip-path-101);}.cls-59{clip-path:url(#clip-path-103);}.cls-60{clip-path:url(#clip-path-104);}.cls-61{clip-path:url(#clip-path-107);}.cls-62{clip-path:url(#clip-path-110);}.cls-63{clip-path:url(#clip-path-112);}.cls-64{clip-path:url(#clip-path-113);}.cls-65{clip-path:url(#clip-path-115);}.cls-66{clip-path:url(#clip-path-116);}.cls-67{clip-path:url(#clip-path-118);}.cls-68{clip-path:url(#clip-path-119);}.cls-69{clip-path:url(#clip-path-121);}.cls-70{clip-path:url(#clip-path-122);}.cls-71{clip-path:url(#clip-path-127);}.cls-72{clip-path:url(#clip-path-128);}.cls-73{clip-path:url(#clip-path-130);}.cls-74{clip-path:url(#clip-path-131);}.cls-75{clip-path:url(#clip-path-134);}.cls-76{clip-path:url(#clip-path-137);}.cls-77{clip-path:url(#clip-path-139);}.cls-78{clip-path:url(#clip-path-140);}.cls-79{clip-path:url(#clip-path-142);}.cls-80{clip-path:url(#clip-path-143);}.cls-81{clip-path:url(#clip-path-145);}.cls-82{clip-path:url(#clip-path-146);}.cls-83{clip-path:url(#clip-path-148);}.cls-84{clip-path:url(#clip-path-149);}.cls-85{clip-path:url(#clip-path-154);}.cls-86{clip-path:url(#clip-path-155);}.cls-87{clip-path:url(#clip-path-157);}.cls-88{clip-path:url(#clip-path-158);}.cls-89{clip-path:url(#clip-path-161);}.cls-90{clip-path:url(#clip-path-164);}.cls-91{clip-path:url(#clip-path-166);}.cls-92{clip-path:url(#clip-path-167);}.cls-93{clip-path:url(#clip-path-169);}.cls-94{clip-path:url(#clip-path-170);}.cls-95{clip-path:url(#clip-path-172);}.cls-96{clip-path:url(#clip-path-173);}.cls-97{clip-path:url(#clip-path-175);}.cls-98{clip-path:url(#clip-path-176);}.cls-99{clip-path:url(#clip-path-181);}.cls-100{clip-path:url(#clip-path-182);}.cls-101{clip-path:url(#clip-path-184);}.cls-102{clip-path:url(#clip-path-185);}.cls-103{clip-path:url(#clip-path-188);}.cls-104{clip-path:url(#clip-path-191);}.cls-105{clip-path:url(#clip-path-193);}.cls-106{clip-path:url(#clip-path-194);}.cls-107{clip-path:url(#clip-path-196);}.cls-108{clip-path:url(#clip-path-197);}.cls-109{clip-path:url(#clip-path-199);}.cls-110{clip-path:url(#clip-path-200);}.cls-111{clip-path:url(#clip-path-202);}.cls-112{clip-path:url(#clip-path-203);}.cls-113{clip-path:url(#clip-path-208);}.cls-114{clip-path:url(#clip-path-209);}.cls-115{clip-path:url(#clip-path-211);}.cls-116{clip-path:url(#clip-path-212);}.cls-117{clip-path:url(#clip-path-215);}.cls-118{clip-path:url(#clip-path-218);}</style><clipPath id="clip-path"><rect class="cls-1" x="6" y="8" width="380" height="380"/></clipPath><clipPath id="clip-path-4"><rect class="cls-1" x="156" y="47" width="80" height="161"/></clipPath><clipPath id="clip-path-5"><rect class="cls-1" x="156.16" y="47.91" width="79.69" height="159.31"/></clipPath><clipPath id="clip-path-7"><rect class="cls-1" x="182" y="127" width="28" height="54"/></clipPath><clipPath id="clip-path-8"><rect class="cls-1" x="182.72" y="127.6" width="26.56" height="53.05"/></clipPath><clipPath id="clip-path-10"><rect class="cls-1" x="129" y="21" width="134" height="213"/></clipPath><clipPath id="clip-path-11"><rect class="cls-1" x="129.59" y="21.28" width="132.81" height="212.5"/></clipPath><clipPath id="clip-path-13"><rect class="cls-1" x="116" y="8" width="160" height="240"/></clipPath><clipPath id="clip-path-14"><rect class="cls-1" x="116.31" y="8" width="159.38" height="239.06"/></clipPath><clipPath id="clip-path-19"><rect class="cls-1" x="142" y="34" width="108" height="187"/></clipPath><clipPath id="clip-path-20"><rect class="cls-1" x="142.88" y="34.56" width="106.25" height="185.94"/></clipPath><clipPath id="clip-path-22"><rect class="cls-1" x="169" y="87" width="54" height="107"/></clipPath><clipPath id="clip-path-23"><rect class="cls-1" x="169.44" y="87.72" width="53.12" height="106.21"/></clipPath><clipPath id="clip-path-26"><rect class="cls-1" x="142.86" y="34.55" width="106.25" height="185.94"/></clipPath><clipPath id="clip-path-29"><rect class="cls-1" x="169.42" y="87.71" width="53.13" height="106.22"/></clipPath><clipPath id="clip-path-31"><rect class="cls-1" x="156" y="188" width="80" height="161"/></clipPath><clipPath id="clip-path-32"><rect class="cls-1" x="156.16" y="188.78" width="79.69" height="159.31"/></clipPath><clipPath id="clip-path-34"><rect class="cls-1" x="182" y="215" width="28" height="54"/></clipPath><clipPath id="clip-path-35"><rect class="cls-1" x="182.72" y="215.35" width="26.56" height="53.05"/></clipPath><clipPath id="clip-path-37"><rect class="cls-1" x="129" y="162" width="134" height="213"/></clipPath><clipPath id="clip-path-38"><rect class="cls-1" x="129.59" y="162.22" width="132.81" height="212.5"/></clipPath><clipPath id="clip-path-40"><rect class="cls-1" x="116" y="148" width="160" height="240"/></clipPath><clipPath id="clip-path-41"><rect class="cls-1" x="116.31" y="148.94" width="159.38" height="239.06"/></clipPath><clipPath id="clip-path-46"><rect class="cls-1" x="142" y="175" width="108" height="187"/></clipPath><clipPath id="clip-path-47"><rect class="cls-1" x="142.87" y="175.5" width="106.25" height="185.94"/></clipPath><clipPath id="clip-path-49"><rect class="cls-1" x="169" y="202" width="54" height="107"/></clipPath><clipPath id="clip-path-50"><rect class="cls-1" x="169.44" y="202.06" width="53.12" height="106.21"/></clipPath><clipPath id="clip-path-53"><rect class="cls-1" x="142.88" y="175.51" width="106.25" height="185.94"/></clipPath><clipPath id="clip-path-56"><rect class="cls-1" x="169.45" y="202.07" width="53.12" height="106.22"/></clipPath><clipPath id="clip-path-58"><rect class="cls-1" x="89" y="91" width="126" height="126"/></clipPath><clipPath id="clip-path-59"><rect class="cls-1" x="89.85" y="91.85" width="124.32" height="124.31"/></clipPath><clipPath id="clip-path-61"><rect class="cls-1" x="146" y="148" width="42" height="42"/></clipPath><clipPath id="clip-path-62"><rect class="cls-1" x="146.22" y="148.22" width="41.4" height="41.4"/></clipPath><clipPath id="clip-path-64"><rect class="cls-1" x="63" y="65" width="178" height="178"/></clipPath><clipPath id="clip-path-65"><rect class="cls-1" x="63.26" y="65.27" width="177.45" height="177.45"/></clipPath><clipPath id="clip-path-67"><rect class="cls-1" x="49" y="51" width="206" height="206"/></clipPath><clipPath id="clip-path-68"><rect class="cls-1" x="49.99" y="51.99" width="204.04" height="204.04"/></clipPath><clipPath id="clip-path-73"><rect class="cls-1" x="76" y="78" width="152" height="152"/></clipPath><clipPath id="clip-path-74"><rect class="cls-1" x="76.56" y="78.57" width="150.89" height="150.87"/></clipPath><clipPath id="clip-path-76"><rect class="cls-1" x="118" y="120" width="83" height="83"/></clipPath><clipPath id="clip-path-77"><rect class="cls-1" x="118.02" y="120.02" width="82.87" height="82.87"/></clipPath><clipPath id="clip-path-80"><rect class="cls-1" x="76.54" y="78.57" width="150.89" height="150.88"/></clipPath><clipPath id="clip-path-83"><rect class="cls-1" x="118" y="120.02" width="82.87" height="82.87"/></clipPath><clipPath id="clip-path-85"><rect class="cls-1" x="177" y="179" width="126" height="126"/></clipPath><clipPath id="clip-path-86"><rect class="cls-1" x="177.83" y="179.83" width="124.31" height="124.32"/></clipPath><clipPath id="clip-path-88"><rect class="cls-1" x="204" y="206" width="42" height="42"/></clipPath><clipPath id="clip-path-89"><rect class="cls-1" x="204.38" y="206.38" width="41.4" height="41.4"/></clipPath><clipPath id="clip-path-91"><rect class="cls-1" x="151" y="153" width="178" height="178"/></clipPath><clipPath id="clip-path-92"><rect class="cls-1" x="151.28" y="153.28" width="177.45" height="177.45"/></clipPath><clipPath id="clip-path-94"><rect class="cls-1" x="137" y="139" width="206" height="206"/></clipPath><clipPath id="clip-path-95"><rect class="cls-1" x="137.97" y="139.97" width="204.04" height="204.04"/></clipPath><clipPath id="clip-path-100"><rect class="cls-1" x="164" y="166" width="152" height="152"/></clipPath><clipPath id="clip-path-101"><rect class="cls-1" x="164.55" y="166.56" width="150.89" height="150.88"/></clipPath><clipPath id="clip-path-103"><rect class="cls-1" x="191" y="193" width="83" height="83"/></clipPath><clipPath id="clip-path-104"><rect class="cls-1" x="191.1" y="193.1" width="82.87" height="82.87"/></clipPath><clipPath id="clip-path-107"><rect class="cls-1" x="164.57" y="166.56" width="150.89" height="150.88"/></clipPath><clipPath id="clip-path-110"><rect class="cls-1" x="191.12" y="193.11" width="82.87" height="82.87"/></clipPath><clipPath id="clip-path-112"><rect class="cls-1" x="45" y="158" width="161" height="80"/></clipPath><clipPath id="clip-path-113"><rect class="cls-1" x="45.91" y="158.16" width="159.3" height="79.69"/></clipPath><clipPath id="clip-path-115"><rect class="cls-1" x="125" y="184" width="54" height="28"/></clipPath><clipPath id="clip-path-116"><rect class="cls-1" x="125.6" y="184.72" width="53.05" height="26.56"/></clipPath><clipPath id="clip-path-118"><rect class="cls-1" x="19" y="131" width="213" height="134"/></clipPath><clipPath id="clip-path-119"><rect class="cls-1" x="19.28" y="131.59" width="212.5" height="132.81"/></clipPath><clipPath id="clip-path-121"><rect class="cls-1" x="6" y="118" width="240" height="160"/></clipPath><clipPath id="clip-path-122"><rect class="cls-1" x="6" y="118.31" width="239.06" height="159.37"/></clipPath><clipPath id="clip-path-127"><rect class="cls-1" x="32" y="144" width="187" height="108"/></clipPath><clipPath id="clip-path-128"><rect class="cls-1" x="32.56" y="144.87" width="185.94" height="106.25"/></clipPath><clipPath id="clip-path-130"><rect class="cls-1" x="85" y="171" width="107" height="54"/></clipPath><clipPath id="clip-path-131"><rect class="cls-1" x="85.72" y="171.44" width="106.22" height="53.13"/></clipPath><clipPath id="clip-path-134"><rect class="cls-1" x="32.55" y="144.89" width="185.94" height="106.25"/></clipPath><clipPath id="clip-path-137"><rect class="cls-1" x="85.71" y="171.45" width="106.22" height="53.12"/></clipPath><clipPath id="clip-path-139"><rect class="cls-1" x="186" y="158" width="161" height="80"/></clipPath><clipPath id="clip-path-140"><rect class="cls-1" x="186.78" y="158.16" width="159.31" height="79.69"/></clipPath><clipPath id="clip-path-142"><rect class="cls-1" x="213" y="184" width="54" height="28"/></clipPath><clipPath id="clip-path-143"><rect class="cls-1" x="213.34" y="184.72" width="53.05" height="26.56"/></clipPath><clipPath id="clip-path-145"><rect class="cls-1" x="160" y="131" width="213" height="134"/></clipPath><clipPath id="clip-path-146"><rect class="cls-1" x="160.22" y="131.59" width="212.5" height="132.81"/></clipPath><clipPath id="clip-path-148"><rect class="cls-1" x="146" y="118" width="240" height="160"/></clipPath><clipPath id="clip-path-149"><rect class="cls-1" x="146.94" y="118.31" width="239.06" height="159.37"/></clipPath><clipPath id="clip-path-154"><rect class="cls-1" x="173" y="144" width="187" height="108"/></clipPath><clipPath id="clip-path-155"><rect class="cls-1" x="173.5" y="144.88" width="185.93" height="106.25"/></clipPath><clipPath id="clip-path-157"><rect class="cls-1" x="200" y="171" width="107" height="54"/></clipPath><clipPath id="clip-path-158"><rect class="cls-1" x="200.06" y="171.44" width="106.22" height="53.13"/></clipPath><clipPath id="clip-path-161"><rect class="cls-1" x="173.51" y="144.86" width="185.94" height="106.25"/></clipPath><clipPath id="clip-path-164"><rect class="cls-1" x="200.08" y="171.42" width="106.22" height="53.13"/></clipPath><clipPath id="clip-path-166"><rect class="cls-1" x="89" y="179" width="126" height="126"/></clipPath><clipPath id="clip-path-167"><rect class="cls-1" x="89.85" y="179.83" width="124.32" height="124.32"/></clipPath><clipPath id="clip-path-169"><rect class="cls-1" x="146" y="206" width="42" height="42"/></clipPath><clipPath id="clip-path-170"><rect class="cls-1" x="146.22" y="206.38" width="41.4" height="41.4"/></clipPath><clipPath id="clip-path-172"><rect class="cls-1" x="63" y="153" width="178" height="178"/></clipPath><clipPath id="clip-path-173"><rect class="cls-1" x="63.26" y="153.28" width="177.45" height="177.45"/></clipPath><clipPath id="clip-path-175"><rect class="cls-1" x="49" y="139" width="206" height="206"/></clipPath><clipPath id="clip-path-176"><rect class="cls-1" x="49.99" y="139.97" width="204.04" height="204.05"/></clipPath><clipPath id="clip-path-181"><rect class="cls-1" x="76" y="166" width="152" height="152"/></clipPath><clipPath id="clip-path-182"><rect class="cls-1" x="76.57" y="166.56" width="150.88" height="150.89"/></clipPath><clipPath id="clip-path-184"><rect class="cls-1" x="118" y="193" width="83" height="83"/></clipPath><clipPath id="clip-path-185"><rect class="cls-1" x="118.02" y="193.11" width="82.87" height="82.87"/></clipPath><clipPath id="clip-path-188"><rect class="cls-1" x="76.57" y="166.57" width="150.87" height="150.89"/></clipPath><clipPath id="clip-path-191"><rect class="cls-1" x="118.02" y="193.12" width="82.87" height="82.87"/></clipPath><clipPath id="clip-path-193"><rect class="cls-1" x="177" y="91" width="126" height="126"/></clipPath><clipPath id="clip-path-194"><rect class="cls-1" x="177.83" y="91.85" width="124.31" height="124.31"/></clipPath><clipPath id="clip-path-196"><rect class="cls-1" x="204" y="148" width="42" height="42"/></clipPath><clipPath id="clip-path-197"><rect class="cls-1" x="204.38" y="148.22" width="41.4" height="41.4"/></clipPath><clipPath id="clip-path-199"><rect class="cls-1" x="151" y="65" width="178" height="178"/></clipPath><clipPath id="clip-path-200"><rect class="cls-1" x="151.28" y="65.27" width="177.45" height="177.45"/></clipPath><clipPath id="clip-path-202"><rect class="cls-1" x="137" y="51" width="206" height="206"/></clipPath><clipPath id="clip-path-203"><rect class="cls-1" x="137.97" y="51.99" width="204.04" height="204.04"/></clipPath><clipPath id="clip-path-208"><rect class="cls-1" x="164" y="78" width="152" height="152"/></clipPath><clipPath id="clip-path-209"><rect class="cls-1" x="164.55" y="78.56" width="150.88" height="150.89"/></clipPath><clipPath id="clip-path-211"><rect class="cls-1" x="191" y="120" width="83" height="83"/></clipPath><clipPath id="clip-path-212"><rect class="cls-1" x="191.1" y="120.02" width="82.88" height="82.87"/></clipPath><clipPath id="clip-path-215"><rect class="cls-1" x="164.55" y="78.54" width="150.88" height="150.89"/></clipPath><clipPath id="clip-path-218"><rect class="cls-1" x="191.1" y="120" width="82.87" height="82.87"/></clipPath></defs><title>icono_aislamiento_temperatura</title><g class="cls-2"><g class="cls-3"><g class="cls-2"><g class="cls-2"><g class="cls-4"><g class="cls-5"><g class="cls-6"><path class="cls-7" d="M235.84,167.37A39.55,39.55,0,0,0,233.16,153l-.21-.56-.21-.56L196,47.91H196l-36.72,104-.2.56-.21.56a39.84,39.84,0,1,0,77,14.36M196,193.93a26.57,26.57,0,0,1-24.78-36.13l.29-.74.26-.75L196,87.72l24.22,68.59.27.75.29.74A26.57,26.57,0,0,1,196,193.93"/></g></g></g></g><g class="cls-2"><g class="cls-4"><g class="cls-8"><g class="cls-9"><path class="cls-7" d="M208.39,162.6l-.36-.93-.33-.94L196,127.6l-11.71,33.13-.32.94-.36.93a12.94,12.94,0,0,0-.89,4.77,13.28,13.28,0,0,0,26.56,0,12.94,12.94,0,0,0-.89-4.77"/></g></g></g></g><g class="cls-2"><g class="cls-4"><g class="cls-10"><g class="cls-11"><path class="cls-7" d="M262.41,167.37a66,66,0,0,0-4.48-24l-.07-.19-.07-.19-36.72-104h0a26.56,26.56,0,0,0-50.14,0l-.5-.17.49.17L134.2,143l-.06.19-.07.19a66.41,66.41,0,1,0,128.34,24M196,220.5a53.14,53.14,0,0,1-49.55-72.29l.14-.37.14-.38,36.72-104v0a13.29,13.29,0,0,1,25.09,0l36.72,104,.13.38.15.37A53.14,53.14,0,0,1,196,220.5"/></g></g></g><path class="cls-7" d="M257.86,143.23l-.07-.19-36.72-104h0a26.56,26.56,0,0,0-50.14,0l-.5-.17.49.17L134.2,143l-.06.19-.07.19a66.41,66.41,0,1,0,123.86,0Z"/></g><g class="cls-2"><g class="cls-4"><g class="cls-12"><g class="cls-13"><path class="cls-7" d="M270.32,138.62l-36.72-104a39.85,39.85,0,0,0-75.2,0l-36.72,104a79.69,79.69,0,1,0,148.64,0M196,233.78a66.39,66.39,0,0,1-61.93-90.37l.07-.18.06-.19,36.72-104-.49-.17.5.17a26.56,26.56,0,0,1,50.14,0h0l36.72,104,.07.19.07.18A66.39,66.39,0,0,1,196,233.78"/></g></g></g></g><g class="cls-2"><g class="cls-4"><g class="cls-12"><g class="cls-13"><path class="cls-7" d="M270.32,138.62l-36.72-104a39.85,39.85,0,0,0-75.2,0l-36.72,104a79.69,79.69,0,1,0,148.64,0M196,233.78a66.39,66.39,0,0,1-61.93-90.37l.07-.18.06-.19,36.72-104-.49-.17.5.17a26.56,26.56,0,0,1,50.14,0h0l36.72,104,.07.19.07.18A66.39,66.39,0,0,1,196,233.78"/></g></g></g></g><g class="cls-2"><g class="cls-4"><g class="cls-14"><g class="cls-15"><path class="cls-7" d="M249.12,167.37a52.94,52.94,0,0,0-3.57-19.16l-.15-.37-.13-.38-36.72-104a13.29,13.29,0,0,0-25.09,0v0l-36.72,104-.14.38-.14.37a53.12,53.12,0,1,0,102.67,19.16M196,47.84h0l0,0,0,0m0,159.38A39.84,39.84,0,0,1,158.84,153l.21-.56.2-.56L196,47.91H196l36.72,104,.21.56.21.56A39.84,39.84,0,0,1,196,207.22"/></g></g></g></g><g class="cls-2"><g class="cls-4"><g class="cls-16"><g class="cls-17"><path class="cls-7" d="M220.78,157.8l-.29-.74-.27-.75L196,87.72l-24.23,68.59-.26.75-.29.74a26.56,26.56,0,1,0,49.56,0M196,180.65a13.29,13.29,0,0,1-13.28-13.28,12.94,12.94,0,0,1,.89-4.77l.36-.93.33-.94L196,127.6l11.7,33.13.33.94.36.93a12.94,12.94,0,0,1,.89,4.77A13.29,13.29,0,0,1,196,180.65"/></g></g></g></g><g class="cls-2"><g class="cls-4"><g class="cls-14"><g class="cls-18"><path class="cls-7" d="M245.39,147.83l-.13-.38-36.72-104a13.29,13.29,0,0,0-25.09,0v0l-36.72,104-.14.38-.14.37a53.13,53.13,0,1,0,99.09,0ZM196,47.83h0l0,0s0,0,0,0m0,159.37A39.84,39.84,0,0,1,158.82,153l.22-.56.2-.56L196,47.9h0l36.72,104,.2.56.22.56A39.84,39.84,0,0,1,196,207.2"/></g></g></g></g><g class="cls-2"><g class="cls-4"><g class="cls-16"><g class="cls-19"><path class="cls-7" d="M220.48,157.05l-.27-.75L196,87.71,171.76,156.3l-.27.75-.28.74a26.3,26.3,0,0,0-1.79,9.57,26.57,26.57,0,1,0,51.35-9.57ZM196,180.64a13.29,13.29,0,0,1-13.28-13.28,12.9,12.9,0,0,1,.89-4.77l.35-.93.33-.94L196,127.59l11.7,33.13.33.94.36.93a12.9,12.9,0,0,1,.89,4.77A13.3,13.3,0,0,1,196,180.64"/></g></g></g></g><g class="cls-2"><g class="cls-4"><g class="cls-20"><g class="cls-21"><path class="cls-7" d="M156.16,228.62A39.57,39.57,0,0,0,158.84,243l.21.56.2.56,36.72,104H196l36.73-104,.2-.56.21-.56a39.84,39.84,0,1,0-77-14.37M196,202.06a26.58,26.58,0,0,1,24.78,36.14l-.29.73-.26.76L196,308.28l-24.23-68.59-.26-.76-.29-.74A26.57,26.57,0,0,1,196,202.06"/></g></g></g></g><g class="cls-2"><g class="cls-4"><g class="cls-22"><g class="cls-23"><path class="cls-7" d="M183.61,233.4l.36.93.33.94L196,268.4l11.7-33.14.33-.93.36-.93a13,13,0,0,0,.89-4.78,13.28,13.28,0,0,0-26.56,0,13,13,0,0,0,.89,4.78"/></g></g></g></g><g class="cls-2"><g class="cls-4"><g class="cls-24"><g class="cls-25"><path class="cls-7" d="M129.59,228.62a66.06,66.06,0,0,0,4.48,24l.07.19.06.19,36.73,104h0a26.56,26.56,0,0,0,50.14,0l.5.17-.5-.18L257.8,253l.06-.19.07-.19a66.41,66.41,0,1,0-128.34-24M196,175.5a53.12,53.12,0,0,1,49.54,72.29l-.14.37-.13.37-36.72,104,0,0a13.28,13.28,0,0,1-25.08,0l-36.72-104-.14-.37-.14-.37A53.12,53.12,0,0,1,196,175.5"/></g></g></g><path class="cls-7" d="M134.14,252.77l.06.19,36.72,104h0a26.56,26.56,0,0,0,50.14,0l.5.17-.5-.18L257.8,253l.06-.19.07-.19a66.41,66.41,0,1,0-123.86,0Z"/></g><g class="cls-2"><g class="cls-4"><g class="cls-26"><g class="cls-27"><path class="cls-7" d="M121.68,257.38l36.72,104a39.85,39.85,0,0,0,75.2,0l36.72-104a79.69,79.69,0,1,0-148.64,0M196,162.22a66.39,66.39,0,0,1,61.93,90.36l-.07.19-.06.19-36.73,104,.5.18-.5-.17a26.56,26.56,0,0,1-50.14,0h0L134.2,253l-.06-.19-.07-.19A66.39,66.39,0,0,1,196,162.22"/></g></g></g></g><g class="cls-2"><g class="cls-4"><g class="cls-26"><g class="cls-27"><path class="cls-7" d="M121.68,257.38l36.72,104a39.85,39.85,0,0,0,75.2,0l36.72-104a79.69,79.69,0,1,0-148.64,0M196,162.22a66.39,66.39,0,0,1,61.93,90.36l-.07.19-.06.19-36.73,104,.5.18-.5-.17a26.56,26.56,0,0,1-50.14,0h0L134.2,253l-.06-.19-.07-.19A66.39,66.39,0,0,1,196,162.22"/></g></g></g></g><g class="cls-2"><g class="cls-4"><g class="cls-28"><g class="cls-29"><path class="cls-7" d="M142.87,228.62a53,53,0,0,0,3.58,19.17l.14.37.14.37,36.72,104a13.28,13.28,0,0,0,25.08,0l0,0,36.72-104,.13-.37.14-.37a53.12,53.12,0,1,0-102.67-19.17M196,348.16h0l0,0,0,0m0-159.38A39.84,39.84,0,0,1,233.16,243l-.21.56-.2.56L196,348.09H196l-36.72-104-.2-.56-.21-.56A39.84,39.84,0,0,1,196,188.78"/></g></g></g></g><g class="cls-2"><g class="cls-4"><g class="cls-30"><g class="cls-31"><path class="cls-7" d="M171.22,238.19l.29.74.26.76L196,308.28l24.23-68.59.26-.76.29-.73a26.56,26.56,0,1,0-49.56,0M196,215.35a13.29,13.29,0,0,1,13.28,13.27,13,13,0,0,1-.89,4.78l-.36.93-.33.93L196,268.4l-11.7-33.14-.33-.93-.36-.93a13,13,0,0,1-.89-4.78A13.28,13.28,0,0,1,196,215.35"/></g></g></g></g><g class="cls-2"><g class="cls-4"><g class="cls-28"><g class="cls-32"><path class="cls-7" d="M146.61,248.17l.13.37,36.72,104a13.29,13.29,0,0,0,25.09,0v0l36.72-104,.13-.37.15-.37a53.12,53.12,0,1,0-99.1,0Zm49.39,100h0l0,0,0,0m0-159.38A39.84,39.84,0,0,1,233.17,243l-.21.56-.2.56L196,348.1h0l-36.73-104-.2-.56-.21-.56A39.84,39.84,0,0,1,196,188.79"/></g></g></g></g><g class="cls-2"><g class="cls-4"><g class="cls-30"><g class="cls-33"><path class="cls-7" d="M171.52,239l.27.75L196,308.29l24.23-68.59.26-.75.29-.74a26.56,26.56,0,1,0-49.56,0ZM196,215.36a13.29,13.29,0,0,1,13.28,13.28,12.94,12.94,0,0,1-.89,4.77l-.36.93-.33.94L196,268.41l-11.7-33.13-.33-.94-.36-.93a12.94,12.94,0,0,1-.89-4.77A13.29,13.29,0,0,1,196,215.36"/></g></g></g></g><g class="cls-2"><g class="cls-4"><g class="cls-34"><g class="cls-35"><path class="cls-36" d="M202.52,148.17a39.73,39.73,0,0,0-12.06-8.26l-.54-.25-.54-.25L89.89,91.85l0,0,47.56,99.49.26.54.24.54a39.84,39.84,0,1,0,64.61-44.29m-9.39,47a26.59,26.59,0,0,1-37.57,0,26.32,26.32,0,0,1-5.51-8l-.32-.73-.34-.72L118,120l65.63,31.37.72.34.73.33a26.28,26.28,0,0,1,8,5.5,26.6,26.6,0,0,1,0,37.56"/></g></g></g></g><g class="cls-2"><g class="cls-4"><g class="cls-37"><g class="cls-38"><path class="cls-36" d="M179.73,164.21l-.91-.41-.9-.43-31.7-15.15,15.16,31.7.42.9.41.91a13.06,13.06,0,0,0,2.74,4A13.28,13.28,0,0,0,183.73,167a12.85,12.85,0,0,0-4-2.74"/></g></g></g></g><g class="cls-2"><g class="cls-4"><g class="cls-39"><g class="cls-40"><path class="cls-36" d="M221.3,129.38a66.2,66.2,0,0,0-20.1-13.77l-.19-.08-.18-.09L101.34,67.89h0a26.57,26.57,0,0,0-35.45,35.46l-.46.23.47-.23,47.55,99.49.09.19.08.18A66.41,66.41,0,1,0,221.3,129.38m-9.39,84.53a53.12,53.12,0,0,1-86.15-16.08l-.16-.37-.17-.35L77.87,97.62l0,0A13.28,13.28,0,0,1,95.61,79.87l99.5,47.56.36.17.36.16a53.12,53.12,0,0,1,16.08,86.15"/></g></g></g><path class="cls-36" d="M201,115.53l-.18-.09L101.34,67.89h0a26.57,26.57,0,0,0-35.45,35.46l-.46.23.47-.23,47.55,99.49.09.19.08.17a66.4,66.4,0,1,0,87.59-87.58Z"/></g><g class="cls-2"><g class="cls-4"><g class="cls-41"><g class="cls-42"><path class="cls-36" d="M206.56,103.46,107.09,55.91a39.85,39.85,0,0,0-53.18,53.17l47.55,99.48a79.68,79.68,0,1,0,105.1-105.1M221.3,223.3a66.41,66.41,0,0,1-107.69-20.1l-.08-.18-.09-.19L65.89,103.34l-.47.23.46-.23a26.57,26.57,0,0,1,35.45-35.46h0l99.49,47.55.18.09.19.08A66.4,66.4,0,0,1,221.3,223.3"/></g></g></g></g><g class="cls-2"><g class="cls-4"><g class="cls-41"><g class="cls-42"><path class="cls-36" d="M206.56,103.46,107.09,55.91a39.85,39.85,0,0,0-53.18,53.17l47.55,99.48a79.68,79.68,0,1,0,105.1-105.1M221.3,223.3a66.41,66.41,0,0,1-107.69-20.1l-.08-.18-.09-.19L65.89,103.34l-.47.23.46-.23a26.57,26.57,0,0,1,35.45-35.46h0l99.49,47.55.18.09.19.08A66.4,66.4,0,0,1,221.3,223.3"/></g></g></g></g><g class="cls-2"><g class="cls-4"><g class="cls-43"><g class="cls-44"><path class="cls-36" d="M211.91,138.78a53,53,0,0,0-16.08-11l-.36-.16-.36-.17L95.61,79.87A13.28,13.28,0,0,0,77.85,97.58l0,0,47.56,99.49.17.35.16.37a53.12,53.12,0,1,0,86.15-59.05m-122.08-47h0l0,0,0,0v0m112.69,112.7a39.83,39.83,0,0,1-64.61-12.06l-.24-.54-.26-.54L89.85,91.89l0,0,99.49,47.56.54.25.54.25a39.83,39.83,0,0,1,12.06,64.61"/></g></g></g></g><g class="cls-2"><g class="cls-4"><g class="cls-45"><g class="cls-46"><path class="cls-36" d="M185.1,152.06l-.73-.33-.72-.34L118,120l31.37,65.63.34.72.32.73a26.32,26.32,0,0,0,5.51,8,26.56,26.56,0,0,0,37.57-37.56,26.28,26.28,0,0,0-8-5.5m-1.37,33.68a13.31,13.31,0,0,1-18.78,0,13.06,13.06,0,0,1-2.74-4l-.41-.91-.42-.9-15.16-31.7,31.7,15.15.9.43.91.41a12.73,12.73,0,0,1,4,2.74,13.3,13.3,0,0,1,0,18.79"/></g></g></g></g><g class="cls-2"><g class="cls-4"><g class="cls-43"><g class="cls-47"><path class="cls-36" d="M195.45,127.6l-.36-.17L95.6,79.87A13.28,13.28,0,0,0,77.84,97.58v0l47.56,99.49.17.35.16.37a53.12,53.12,0,1,0,70.07-70.07ZM89.81,91.82h0s0,0,0,0l0,0v0s0,0,0,0M202.5,204.52a39.83,39.83,0,0,1-64.61-12.06l-.24-.54-.26-.54L89.83,91.89l0,0,99.49,47.56.54.25.55.25a39.84,39.84,0,0,1,12.05,64.61"/></g></g></g></g><g class="cls-2"><g class="cls-4"><g class="cls-45"><g class="cls-48"><path class="cls-36" d="M184.35,151.74l-.72-.35L118,120l31.37,65.63.34.72.33.73a26.29,26.29,0,0,0,5.5,8,26.56,26.56,0,1,0,37.57-37.56,26.28,26.28,0,0,0-8-5.5Zm-.63,34a13.3,13.3,0,0,1-18.79,0,13.07,13.07,0,0,1-2.74-4l-.4-.91-.43-.9-15.16-31.7,31.71,15.15.89.43.91.41a12.77,12.77,0,0,1,4,2.74,13.31,13.31,0,0,1,0,18.78"/></g></g></g></g><g class="cls-2"><g class="cls-4"><g class="cls-49"><g class="cls-50"><path class="cls-36" d="M189.48,247.83a39.6,39.6,0,0,0,12.06,8.26l.54.24.54.26,99.49,47.56,0,0-47.55-99.49-.26-.54-.24-.54a39.84,39.84,0,1,0-64.61,44.29m9.39-47a26.61,26.61,0,0,1,37.57,0,26.28,26.28,0,0,1,5.5,8l.32.73.35.71L274,276l-65.63-31.37-.72-.35-.73-.32a26.28,26.28,0,0,1-8-5.5,26.61,26.61,0,0,1,0-37.57"/></g></g></g></g><g class="cls-2"><g class="cls-4"><g class="cls-51"><g class="cls-52"><path class="cls-36" d="M212.27,231.79l.91.41.89.42,31.71,15.16-15.16-31.71-.43-.89-.4-.91a12.94,12.94,0,0,0-2.74-4,13.29,13.29,0,0,0-18.79,18.79,12.94,12.94,0,0,0,4,2.74"/></g></g></g></g><g class="cls-2"><g class="cls-4"><g class="cls-53"><g class="cls-54"><path class="cls-36" d="M170.7,266.61a66.23,66.23,0,0,0,20.1,13.78l.18.08.19.09,99.48,47.55h0a26.56,26.56,0,0,0,35.45-35.45l.47-.23-.47.22-47.56-99.48-.08-.18-.08-.19A66.41,66.41,0,1,0,170.7,266.61m9.39-84.52a53.12,53.12,0,0,1,86.15,16.08l.16.36.17.36,47.56,99.49,0,0a13.29,13.29,0,0,1-17.77,17.71l-99.49-47.56-.36-.17-.36-.16a53.12,53.12,0,0,1-16.08-86.15"/></g></g></g><path class="cls-36" d="M191,280.47l.19.09,99.48,47.55h0a26.56,26.56,0,0,0,35.45-35.45l.47-.23-.47.22-47.56-99.48-.08-.18-.08-.18a66.4,66.4,0,1,0-87.59,87.58Z"/></g><g class="cls-2"><g class="cls-4"><g class="cls-55"><g class="cls-56"><path class="cls-36" d="M185.44,292.54l99.47,47.55a39.85,39.85,0,0,0,53.18-53.17l-47.55-99.48a79.68,79.68,0,1,0-105.1,105.1M170.7,172.7a66.41,66.41,0,0,1,107.69,20.1l.08.19.08.18,47.56,99.48.48-.22-.48.23a26.56,26.56,0,0,1-35.45,35.45h0l-99.48-47.55-.19-.09-.18-.08A66.41,66.41,0,0,1,170.7,172.7"/></g></g></g></g><g class="cls-2"><g class="cls-4"><g class="cls-55"><g class="cls-56"><path class="cls-36" d="M185.44,292.54l99.47,47.55a39.85,39.85,0,0,0,53.18-53.17l-47.55-99.48a79.68,79.68,0,1,0-105.1,105.1M170.7,172.7a66.41,66.41,0,0,1,107.69,20.1l.08.19.08.18,47.56,99.48.48-.22-.48.23a26.56,26.56,0,0,1-35.45,35.45h0l-99.48-47.55-.19-.09-.18-.08A66.41,66.41,0,0,1,170.7,172.7"/></g></g></g></g><g class="cls-2"><g class="cls-4"><g class="cls-57"><g class="cls-58"><path class="cls-36" d="M180.09,257.22a53,53,0,0,0,16.08,11l.36.16.36.17,99.49,47.56a13.29,13.29,0,0,0,17.77-17.71l0,0-47.56-99.49-.17-.36-.16-.36a53.12,53.12,0,1,0-86.15,59.05m122.08,47h0l0,0,0,0v0M189.48,191.48a39.83,39.83,0,0,1,64.61,12.06l.24.54.26.54,47.55,99.49,0,0-99.49-47.56-.54-.26-.54-.24a39.83,39.83,0,0,1-12.06-64.61"/></g></g></g></g><g class="cls-2"><g class="cls-4"><g class="cls-59"><g class="cls-60"><path class="cls-36" d="M206.9,243.94l.73.32.72.35L274,276l-31.37-65.64-.35-.71-.32-.73a26.28,26.28,0,0,0-5.5-8,26.57,26.57,0,1,0-29.54,43.07m1.36-33.68a13.32,13.32,0,0,1,18.79,0,12.94,12.94,0,0,1,2.74,4l.4.91.43.89,15.16,31.71-31.71-15.16-.89-.42-.91-.41a12.94,12.94,0,0,1-4-2.74,13.31,13.31,0,0,1,0-18.79"/></g></g></g></g><g class="cls-2"><g class="cls-4"><g class="cls-57"><g class="cls-61"><path class="cls-36" d="M196.55,268.4l.36.17,99.49,47.56a13.28,13.28,0,0,0,17.76-17.71v0l-47.56-99.49-.17-.36-.16-.36a53.12,53.12,0,1,0-70.07,70.07Zm105.64,35.78h0l0,0,0,0v0s0,0,0,0M189.5,191.48a39.84,39.84,0,0,1,64.61,12.05l.24.55.26.54,47.55,99.49,0,0-99.49-47.56-.54-.26-.55-.24a39.84,39.84,0,0,1-12.05-64.61"/></g></g></g></g><g class="cls-2"><g class="cls-4"><g class="cls-59"><g class="cls-62"><path class="cls-36" d="M207.65,244.26l.71.35L274,276l-31.38-65.64-.34-.71-.32-.73a26.57,26.57,0,1,0-35,35Zm.63-34a13.3,13.3,0,0,1,18.79,0,13,13,0,0,1,2.74,4l.4.91.43.89,15.16,31.71-31.71-15.16-.9-.43-.91-.4a13,13,0,0,1-4-2.74,13.29,13.29,0,0,1,0-18.78"/></g></g></g></g><g class="cls-2"><g class="cls-4"><g class="cls-63"><g class="cls-64"><path class="cls-7" d="M165.37,158.16A39.55,39.55,0,0,0,151,160.84l-.56.21-.56.2L45.91,198V198l104,36.73.56.2.56.21a39.84,39.84,0,1,0,14.36-77M191.94,198a26.58,26.58,0,0,1-36.14,24.78l-.74-.29-.75-.26L85.72,198l68.59-24.23.75-.26.74-.29A26.58,26.58,0,0,1,191.94,198"/></g></g></g></g><g class="cls-2"><g class="cls-4"><g class="cls-65"><g class="cls-66"><path class="cls-7" d="M160.6,185.61l-.93.36-.94.33L125.6,198l33.14,11.7.93.33.93.36a12.94,12.94,0,0,0,4.77.89,13.28,13.28,0,0,0,0-26.56,12.94,12.94,0,0,0-4.77.89"/></g></g></g></g><g class="cls-2"><g class="cls-4"><g class="cls-67"><g class="cls-68"><path class="cls-7" d="M165.37,131.59a66,66,0,0,0-24,4.48l-.19.07-.19.06-104,36.73h0a26.56,26.56,0,0,0,0,50.14l-.17.49.18-.49L141,259.8l.19.06.19.07a66.41,66.41,0,1,0,24-128.34M218.5,198a53.14,53.14,0,0,1-72.29,49.55l-.37-.15-.38-.13-104-36.72,0,0a13.28,13.28,0,0,1,0-25.08l104-36.72.37-.14.37-.14A53.12,53.12,0,0,1,218.5,198"/></g></g></g><path class="cls-7" d="M141.23,136.14l-.19.06-104,36.73h0a26.56,26.56,0,0,0,0,50.14l-.17.49.17-.49L141,259.8l.19.06.19.07a66.41,66.41,0,1,0,0-123.86Z"/></g><g class="cls-2"><g class="cls-4"><g class="cls-69"><g class="cls-70"><path class="cls-7" d="M136.62,123.68l-104,36.72a39.84,39.84,0,0,0,0,75.2l104,36.72a79.69,79.69,0,1,0,0-148.64M231.78,198a66.41,66.41,0,0,1-90.36,61.93l-.19-.07-.19-.06-104-36.73-.18.49.17-.49a26.56,26.56,0,0,1,0-50.14h0L141,136.2l.19-.06.19-.07A66.39,66.39,0,0,1,231.78,198"/></g></g></g></g><g class="cls-2"><g class="cls-4"><g class="cls-69"><g class="cls-70"><path class="cls-7" d="M136.62,123.68l-104,36.72a39.84,39.84,0,0,0,0,75.2l104,36.72a79.69,79.69,0,1,0,0-148.64M231.78,198a66.41,66.41,0,0,1-90.36,61.93l-.19-.07-.19-.06-104-36.73-.18.49.17-.49a26.56,26.56,0,0,1,0-50.14h0L141,136.2l.19-.06.19-.07A66.39,66.39,0,0,1,231.78,198"/></g></g></g></g><g class="cls-2"><g class="cls-4"><g class="cls-71"><g class="cls-72"><path class="cls-7" d="M165.37,144.87a53.16,53.16,0,0,0-19.16,3.58l-.37.14-.37.14-104,36.72a13.28,13.28,0,0,0,0,25.08l0,0,104,36.72.38.13.37.15a53.13,53.13,0,1,0,19.16-102.68M45.84,198h0a0,0,0,0,1,0,0v0l0,0,0,0m159.37,0A39.84,39.84,0,0,1,151,235.16l-.56-.21-.56-.2L45.91,198V198l104-36.72.56-.2.56-.21A39.84,39.84,0,0,1,205.21,198"/></g></g></g></g><g class="cls-2"><g class="cls-4"><g class="cls-73"><g class="cls-74"><path class="cls-7" d="M155.8,173.22l-.74.29-.75.26L85.72,198l68.59,24.23.75.26.74.29a26.56,26.56,0,1,0,0-49.56M178.65,198a13.29,13.29,0,0,1-13.28,13.28,12.94,12.94,0,0,1-4.77-.89l-.93-.36-.93-.33L125.6,198l33.13-11.7.94-.33.93-.36a12.94,12.94,0,0,1,4.77-.89A13.29,13.29,0,0,1,178.65,198"/></g></g></g></g><g class="cls-2"><g class="cls-4"><g class="cls-71"><g class="cls-75"><path class="cls-7" d="M145.83,148.61l-.38.13-104,36.72a13.29,13.29,0,0,0,0,25.09h0l104,36.72.38.14.37.14a53.12,53.12,0,1,0,0-99.1ZM45.83,198h0v0l0,0,0,0m159.37,0A39.84,39.84,0,0,1,151,235.17l-.56-.21-.56-.2L45.9,198v0l104-36.73.56-.19.56-.22A39.84,39.84,0,0,1,205.2,198"/></g></g></g></g><g class="cls-2"><g class="cls-4"><g class="cls-73"><g class="cls-76"><path class="cls-7" d="M155.05,173.52l-.75.27L85.71,198l68.59,24.23.75.26.74.29a26.29,26.29,0,0,0,9.57,1.78,26.56,26.56,0,1,0-9.57-51.34ZM178.64,198a13.29,13.29,0,0,1-13.28,13.28,12.9,12.9,0,0,1-4.77-.89l-.93-.36-.94-.33L125.59,198l33.13-11.7.94-.33.93-.36a12.9,12.9,0,0,1,4.77-.89A13.29,13.29,0,0,1,178.64,198"/></g></g></g></g><g class="cls-2"><g class="cls-4"><g class="cls-77"><g class="cls-78"><path class="cls-7" d="M226.63,237.84A39.59,39.59,0,0,0,241,235.16l.56-.21.56-.2,104-36.73V198l-104-36.72-.56-.2-.56-.21a39.84,39.84,0,1,0-14.36,77M200.06,198a26.58,26.58,0,0,1,36.14-24.78l.74.29.75.26L306.28,198l-68.59,24.22-.75.27-.74.29A26.58,26.58,0,0,1,200.06,198"/></g></g></g></g><g class="cls-2"><g class="cls-4"><g class="cls-79"><g class="cls-80"><path class="cls-7" d="M231.4,210.39l.93-.36.93-.33L266.4,198l-33.14-11.7-.93-.33-.93-.36a13,13,0,0,0-4.78-.89,13.28,13.28,0,0,0,0,26.56,13,13,0,0,0,4.78-.89"/></g></g></g></g><g class="cls-2"><g class="cls-4"><g class="cls-81"><g class="cls-82"><path class="cls-7" d="M226.62,264.4a66,66,0,0,0,24-4.47l.19-.07.19-.07,104-36.72h0a26.56,26.56,0,0,0,0-50.14l.17-.5-.18.5L251,136.2l-.19-.06-.19-.07a66.4,66.4,0,1,0-24,128.33M173.5,198a53.13,53.13,0,0,1,72.28-49.55l.38.15.37.13,104,36.72h0a13.29,13.29,0,0,1,0,25.09l-104,36.72-.37.13-.37.15A53.14,53.14,0,0,1,173.5,198"/></g></g></g><path class="cls-7" d="M250.77,259.86l.19-.07,104-36.72h0a26.56,26.56,0,0,0,0-50.14l.17-.5-.18.5L251,136.2l-.18-.06-.19-.07a66.4,66.4,0,1,0,0,123.86Z"/></g><g class="cls-2"><g class="cls-4"><g class="cls-83"><g class="cls-84"><path class="cls-7" d="M255.38,272.32l104-36.72a39.85,39.85,0,0,0,0-75.2l-104-36.72a79.69,79.69,0,1,0,0,148.64M160.22,198a66.39,66.39,0,0,1,90.36-61.93l.19.07.19.06,104,36.73.18-.5-.17.5a26.56,26.56,0,0,1,0,50.14h0L251,259.79l-.19.07-.19.07A66.41,66.41,0,0,1,160.22,198"/></g></g></g></g><g class="cls-2"><g class="cls-4"><g class="cls-83"><g class="cls-84"><path class="cls-7" d="M255.38,272.32l104-36.72a39.85,39.85,0,0,0,0-75.2l-104-36.72a79.69,79.69,0,1,0,0,148.64M160.22,198a66.39,66.39,0,0,1,90.36-61.93l.19.07.19.06,104,36.73.18-.5-.17.5a26.56,26.56,0,0,1,0,50.14h0L251,259.79l-.19.07-.19.07A66.41,66.41,0,0,1,160.22,198"/></g></g></g></g><g class="cls-2"><g class="cls-4"><g class="cls-85"><g class="cls-86"><path class="cls-7" d="M226.63,251.12a52.73,52.73,0,0,0,19.16-3.57l.37-.15.37-.13,104-36.72a13.29,13.29,0,0,0,0-25.09h0l-104-36.72-.37-.13-.38-.15a53.12,53.12,0,1,0-19.15,102.67M346.16,198h0s0,0,0,0v0l0,0,0,0m-159.38,0A39.84,39.84,0,0,1,241,160.84l.56.21.56.2,104,36.72V198l-104,36.73-.56.2-.56.21A39.84,39.84,0,0,1,186.78,198"/></g></g></g></g><g class="cls-2"><g class="cls-4"><g class="cls-87"><g class="cls-88"><path class="cls-7" d="M236.2,222.78l.74-.29.75-.27L306.28,198l-68.59-24.23-.75-.26-.74-.29a26.56,26.56,0,1,0,0,49.56M213.34,198a13.3,13.3,0,0,1,13.29-13.28,12.94,12.94,0,0,1,4.77.89l.93.36.93.33L266.4,198l-33.14,11.7-.93.33-.93.36a12.94,12.94,0,0,1-4.77.89A13.3,13.3,0,0,1,213.34,198"/></g></g></g></g><g class="cls-2"><g class="cls-4"><g class="cls-85"><g class="cls-89"><path class="cls-7" d="M246.17,247.39l.38-.13,104-36.72a13.29,13.29,0,0,0,0-25.09h0l-104-36.72-.38-.13-.37-.15a53.12,53.12,0,1,0,0,99.1Zm100-49.39h0s0,0,0,0v0l0,0,0,0m-159.37,0A39.87,39.87,0,0,1,241,160.82l.56.22.56.2L346.1,198v0l-104,36.72-.56.2-.56.22A39.84,39.84,0,0,1,186.79,198"/></g></g></g></g><g class="cls-2"><g class="cls-4"><g class="cls-87"><g class="cls-90"><path class="cls-7" d="M237,222.48l.75-.27L306.29,198,237.7,173.76l-.75-.27-.74-.28a26.3,26.3,0,0,0-9.57-1.79,26.57,26.57,0,1,0,9.57,51.35ZM213.36,198a13.29,13.29,0,0,1,13.28-13.28,12.9,12.9,0,0,1,4.77.89l.93.36.94.32L266.41,198l-33.13,11.7-.94.33-.93.36a12.9,12.9,0,0,1-4.77.89A13.3,13.3,0,0,1,213.36,198"/></g></g></g></g><g class="cls-2"><g class="cls-4"><g class="cls-91"><g class="cls-92"><path class="cls-36" d="M146.17,191.48a39.6,39.6,0,0,0-8.26,12.06l-.24.54-.26.54L89.85,304.11l0,0,99.49-47.56.54-.26.54-.24a39.84,39.84,0,1,0-44.29-64.61m47,9.39a26.58,26.58,0,0,1-8,43.08l-.72.31-.72.35L118,276l31.37-65.63.35-.72.32-.73a26.28,26.28,0,0,1,5.5-8,26.61,26.61,0,0,1,37.57,0"/></g></g></g></g><g class="cls-2"><g class="cls-4"><g class="cls-93"><g class="cls-94"><path class="cls-36" d="M162.2,214.27l-.4.91-.43.9-15.15,31.7,31.7-15.16.9-.42.91-.41a12.78,12.78,0,0,0,4-2.74A13.28,13.28,0,0,0,165,210.27a13,13,0,0,0-2.75,4"/></g></g></g></g><g class="cls-2"><g class="cls-4"><g class="cls-95"><g class="cls-96"><path class="cls-36" d="M127.38,172.7a66.2,66.2,0,0,0-13.77,20.1l-.08.19-.09.18L65.89,292.66h0a26.56,26.56,0,0,0,35.45,35.45l.24.47-.23-.47,99.49-47.55.18-.09.18-.08A66.41,66.41,0,1,0,127.38,172.7m84.53,9.39a53.12,53.12,0,0,1-16.08,86.15l-.37.16-.35.17L95.62,316.13l0,0a13.29,13.29,0,0,1-17.71-17.77l47.56-99.49.17-.36.16-.36a53.12,53.12,0,0,1,86.15-16.08"/></g></g></g><path class="cls-36" d="M113.53,193l-.09.18L65.89,292.66h0a26.57,26.57,0,0,0,35.45,35.46l.24.46-.23-.47,99.49-47.55.18-.09.18-.08a66.41,66.41,0,1,0-87.58-87.59Z"/></g><g class="cls-2"><g class="cls-4"><g class="cls-97"><g class="cls-98"><path class="cls-36" d="M101.46,187.44,53.91,286.91a39.85,39.85,0,0,0,53.17,53.18l99.48-47.55a79.68,79.68,0,1,0-105.1-105.1M221.3,172.7a66.4,66.4,0,0,1-20.11,107.69l-.18.08-.18.09-99.49,47.55.23.47-.24-.47a26.56,26.56,0,0,1-35.45-35.45h0l47.55-99.49.09-.18.08-.19A66.4,66.4,0,0,1,221.3,172.7"/></g></g></g></g><g class="cls-2"><g class="cls-4"><g class="cls-97"><g class="cls-98"><path class="cls-36" d="M101.46,187.44,53.91,286.91a39.85,39.85,0,0,0,53.17,53.18l99.48-47.55a79.68,79.68,0,1,0-105.1-105.1M221.3,172.7a66.4,66.4,0,0,1-20.11,107.69l-.18.08-.18.09-99.49,47.55.23.47-.24-.47a26.56,26.56,0,0,1-35.45-35.45h0l47.55-99.49.09-.18.08-.19A66.4,66.4,0,0,1,221.3,172.7"/></g></g></g></g><g class="cls-2"><g class="cls-4"><g class="cls-99"><g class="cls-100"><path class="cls-36" d="M136.78,182.09a52.77,52.77,0,0,0-11,16.08l-.16.36-.17.36L77.87,298.38a13.29,13.29,0,0,0,17.71,17.77l0,0,99.49-47.56.35-.17.37-.16a53.12,53.12,0,1,0-59.05-86.15m-47,122.08h0l0,0,0,0h0M202.51,191.48a39.83,39.83,0,0,1-12,64.61l-.54.24-.54.26L89.89,304.15l0,0,47.56-99.49.26-.54.24-.54a39.83,39.83,0,0,1,64.6-12.06"/></g></g></g></g><g class="cls-2"><g class="cls-4"><g class="cls-101"><g class="cls-102"><path class="cls-36" d="M150.06,208.9l-.32.73-.35.72L118,276l65.63-31.37.72-.35.72-.31a26.57,26.57,0,1,0-35-35m33.67,1.37a13.29,13.29,0,0,1,0,18.78,12.78,12.78,0,0,1-4,2.74l-.91.41-.9.42-31.7,15.16,15.15-31.7.43-.9.4-.91a13,13,0,0,1,2.75-4,13.29,13.29,0,0,1,18.78,0"/></g></g></g></g><g class="cls-2"><g class="cls-4"><g class="cls-99"><g class="cls-103"><path class="cls-36" d="M125.6,198.55l-.17.36L77.87,298.4a13.28,13.28,0,0,0,17.71,17.76h0l99.5-47.56.36-.17.36-.16a53.12,53.12,0,1,0-70.07-70.07ZM89.82,304.19h0l0,0,0,0h0M202.52,191.5a39.85,39.85,0,0,1-12.06,64.61l-.54.24-.54.26L89.89,304.16l0,0,47.56-99.49.26-.54.24-.55a39.84,39.84,0,0,1,64.61-12.05"/></g></g></g></g><g class="cls-2"><g class="cls-4"><g class="cls-101"><g class="cls-104"><path class="cls-36" d="M149.73,209.65l-.34.72L118,276l65.63-31.37.72-.35.73-.32a26.15,26.15,0,0,0,8-5.51,26.56,26.56,0,1,0-43.07-29.53Zm34,.63a13.29,13.29,0,0,1,0,18.78,12.93,12.93,0,0,1-4,2.75l-.91.4-.9.43-31.7,15.16,15.16-31.71.42-.9.4-.91a13.29,13.29,0,0,1,21.53-4"/></g></g></g></g><g class="cls-2"><g class="cls-4"><g class="cls-105"><g class="cls-106"><path class="cls-36" d="M245.83,204.52a39.6,39.6,0,0,0,8.26-12.06l.24-.54.26-.54,47.55-99.49,0,0-99.49,47.56-.54.26-.54.24a39.84,39.84,0,1,0,44.29,64.61m-47-9.39a26.59,26.59,0,0,1,0-37.57,26.28,26.28,0,0,1,8-5.5l.73-.33.72-.34L274,120l-31.37,65.63-.35.72-.32.73a26.28,26.28,0,0,1-5.5,8,26.61,26.61,0,0,1-37.57,0"/></g></g></g></g><g class="cls-2"><g class="cls-4"><g class="cls-107"><g class="cls-108"><path class="cls-36" d="M229.79,181.73l.4-.91.43-.9,15.16-31.7-31.71,15.15-.89.44-.91.4a12.94,12.94,0,0,0-4,2.74A13.28,13.28,0,1,0,227,185.74a12.92,12.92,0,0,0,2.75-4"/></g></g></g></g><g class="cls-2"><g class="cls-4"><g class="cls-109"><g class="cls-110"><path class="cls-36" d="M264.61,223.3a66.23,66.23,0,0,0,13.78-20.1l.08-.18.08-.19,47.56-99.49h0a26.57,26.57,0,0,0-35.45-35.46l-.23-.47.22.48-99.49,47.55-.18.09-.18.08A66.41,66.41,0,1,0,264.61,223.3m-84.52-9.39a53.12,53.12,0,0,1,16.08-86.15l.36-.16.36-.17,99.49-47.56,0,0a13.29,13.29,0,0,1,17.71,17.77l-47.56,99.49-.17.36-.16.36a53.12,53.12,0,0,1-86.15,16.08"/></g></g></g><path class="cls-36" d="M278.47,203l.08-.19,47.56-99.49h0a26.57,26.57,0,0,0-35.45-35.46l-.23-.47.22.48-99.49,47.56-.18.08-.18.08a66.4,66.4,0,1,0,87.59,87.59Z"/></g><g class="cls-2"><g class="cls-4"><g class="cls-111"><g class="cls-112"><path class="cls-36" d="M290.53,208.56l47.55-99.47a39.84,39.84,0,0,0-53.16-53.18l-99.48,47.55a79.69,79.69,0,1,0,105.09,105.1M170.7,223.3a66.41,66.41,0,0,1,20.1-107.69l.18-.08.18-.08,99.49-47.56-.22-.48.23.47a26.57,26.57,0,0,1,35.45,35.46h0l-47.56,99.49-.08.19-.08.18A66.41,66.41,0,0,1,170.7,223.3"/></g></g></g></g><g class="cls-2"><g class="cls-4"><g class="cls-111"><g class="cls-112"><path class="cls-36" d="M290.53,208.56l47.55-99.47a39.84,39.84,0,0,0-53.16-53.18l-99.48,47.55a79.69,79.69,0,1,0,105.09,105.1M170.7,223.3a66.41,66.41,0,0,1,20.1-107.69l.18-.08.18-.08,99.49-47.56-.22-.48.23.47a26.57,26.57,0,0,1,35.45,35.46h0l-47.56,99.49-.08.19-.08.18A66.41,66.41,0,0,1,170.7,223.3"/></g></g></g></g><g class="cls-2"><g class="cls-4"><g class="cls-113"><g class="cls-114"><path class="cls-36" d="M255.22,213.91a53,53,0,0,0,11-16.08l.16-.36.17-.36,47.56-99.49a13.29,13.29,0,0,0-17.71-17.77l0,0-99.49,47.56-.36.17-.36.16a53.12,53.12,0,1,0,59.05,86.15m47-122.08h0l0,0,0,0h0M189.48,204.52a39.83,39.83,0,0,1,12.06-64.61l.54-.24.54-.26,99.49-47.56,0,0-47.55,99.49-.26.54-.24.54a39.83,39.83,0,0,1-64.61,12.06"/></g></g></g></g><g class="cls-2"><g class="cls-4"><g class="cls-115"><g class="cls-116"><path class="cls-36" d="M241.94,187.1l.32-.73.35-.72L274,120l-65.63,31.37-.72.34-.73.33a26.28,26.28,0,0,0-8,5.5,26.57,26.57,0,0,0,37.57,37.57,26.28,26.28,0,0,0,5.5-8m-33.68-1.36a13.3,13.3,0,0,1,0-18.79,12.94,12.94,0,0,1,4-2.74l.91-.4.89-.44,31.71-15.15-15.15,31.7-.44.9-.4.91a12.92,12.92,0,0,1-2.75,4,13.3,13.3,0,0,1-18.78,0"/></g></g></g></g><g class="cls-2"><g class="cls-4"><g class="cls-113"><g class="cls-117"><path class="cls-36" d="M266.4,197.45l.17-.36L314.13,97.6a13.28,13.28,0,0,0-17.71-17.76h0l-99.49,47.56-.36.17-.36.16a53.12,53.12,0,1,0,70.07,70.07ZM302.18,91.81h0s0,0,0,0l0,0h0M189.48,204.5a39.84,39.84,0,0,1,12.05-64.61l.55-.24.54-.26,99.49-47.55,0,0-47.55,99.49-.26.54-.24.55a39.84,39.84,0,0,1-64.61,12.05"/></g></g></g></g><g class="cls-2"><g class="cls-4"><g class="cls-115"><g class="cls-118"><path class="cls-36" d="M242.26,186.35l.35-.71L274,120l-65.63,31.37-.72.35-.73.32a26.31,26.31,0,0,0-8,5.51,26.56,26.56,0,1,0,43.07,29.53Zm-34-.63a13.3,13.3,0,0,1,0-18.79,13.12,13.12,0,0,1,4-2.74l.91-.4.89-.43,31.71-15.16-15.16,31.71-.43.9-.4.9a12.8,12.8,0,0,1-2.75,4,13.31,13.31,0,0,1-18.78,0"/></g></g></g></g></g></g></g></svg>