<svg id="Layer_1" data-name="Layer 1" xmlns="http://www.w3.org/2000/svg" xmlns:xlink="http://www.w3.org/1999/xlink" viewBox="0 0 412 291"><defs><style>.cls-1{fill:none;}.cls-2{clip-path:url(#clip-path);}.cls-3,.cls-4{isolation:isolate;}.cls-4{mix-blend-mode:multiply;}.cls-5{clip-path:url(#clip-path-4);}.cls-6{clip-path:url(#clip-path-5);}.cls-7{fill:#e3f2e9;}.cls-8{clip-path:url(#clip-path-7);}.cls-9{clip-path:url(#clip-path-8);}.cls-10{clip-path:url(#clip-path-10);}.cls-11{clip-path:url(#clip-path-11);}.cls-12{clip-path:url(#clip-path-13);}.cls-13{clip-path:url(#clip-path-14);}.cls-14{clip-path:url(#clip-path-19);}.cls-15{clip-path:url(#clip-path-20);}.cls-16{clip-path:url(#clip-path-22);}.cls-17{clip-path:url(#clip-path-23);}.cls-18{clip-path:url(#clip-path-26);}.cls-19{clip-path:url(#clip-path-29);}.cls-20{clip-path:url(#clip-path-31);}.cls-21{clip-path:url(#clip-path-32);}.cls-22{fill:#dbefe3;}.cls-23{clip-path:url(#clip-path-34);}.cls-24{clip-path:url(#clip-path-35);}.cls-25{clip-path:url(#clip-path-37);}.cls-26{clip-path:url(#clip-path-38);}.cls-27{clip-path:url(#clip-path-40);}.cls-28{clip-path:url(#clip-path-41);}.cls-29{clip-path:url(#clip-path-46);}.cls-30{clip-path:url(#clip-path-47);}.cls-31{clip-path:url(#clip-path-49);}.cls-32{clip-path:url(#clip-path-50);}.cls-33{clip-path:url(#clip-path-53);}.cls-34{clip-path:url(#clip-path-56);}.cls-35{clip-path:url(#clip-path-58);}.cls-36{clip-path:url(#clip-path-59);}.cls-37{fill:#d3ebdd;}.cls-38{clip-path:url(#clip-path-61);}.cls-39{clip-path:url(#clip-path-62);}.cls-40{clip-path:url(#clip-path-64);}.cls-41{clip-path:url(#clip-path-65);}.cls-42{clip-path:url(#clip-path-67);}.cls-43{clip-path:url(#clip-path-68);}.cls-44{clip-path:url(#clip-path-73);}.cls-45{clip-path:url(#clip-path-74);}.cls-46{clip-path:url(#clip-path-76);}.cls-47{clip-path:url(#clip-path-77);}.cls-48{clip-path:url(#clip-path-80);}.cls-49{clip-path:url(#clip-path-83);}.cls-50{clip-path:url(#clip-path-85);}.cls-51{clip-path:url(#clip-path-86);}.cls-52{clip-path:url(#clip-path-88);}.cls-53{clip-path:url(#clip-path-89);}.cls-54{clip-path:url(#clip-path-91);}.cls-55{clip-path:url(#clip-path-92);}.cls-56{clip-path:url(#clip-path-94);}.cls-57{clip-path:url(#clip-path-95);}.cls-58{clip-path:url(#clip-path-100);}.cls-59{clip-path:url(#clip-path-101);}.cls-60{clip-path:url(#clip-path-103);}.cls-61{clip-path:url(#clip-path-104);}.cls-62{clip-path:url(#clip-path-107);}.cls-63{clip-path:url(#clip-path-110);}.cls-64{clip-path:url(#clip-path-112);}.cls-65{clip-path:url(#clip-path-113);}.cls-66{fill:#addbc2;}.cls-67{clip-path:url(#clip-path-115);}.cls-68{clip-path:url(#clip-path-116);}.cls-69{clip-path:url(#clip-path-118);}.cls-70{clip-path:url(#clip-path-119);}.cls-71{clip-path:url(#clip-path-121);}.cls-72{clip-path:url(#clip-path-122);}.cls-73{clip-path:url(#clip-path-127);}.cls-74{clip-path:url(#clip-path-128);}.cls-75{clip-path:url(#clip-path-130);}.cls-76{clip-path:url(#clip-path-131);}.cls-77{clip-path:url(#clip-path-134);}.cls-78{clip-path:url(#clip-path-137);}</style><clipPath id="clip-path"><rect class="cls-1" x="7" y="6" width="398" height="279"/></clipPath><clipPath id="clip-path-4"><rect class="cls-1" x="46" y="45" width="160" height="81"/></clipPath><clipPath id="clip-path-5"><rect class="cls-1" x="46.81" y="45.86" width="159.19" height="79.72"/></clipPath><clipPath id="clip-path-7"><rect class="cls-1" x="73" y="72" width="54" height="27"/></clipPath><clipPath id="clip-path-8"><rect class="cls-1" x="73.35" y="72.43" width="53.01" height="26.57"/></clipPath><clipPath id="clip-path-10"><rect class="cls-1" x="20" y="19" width="213" height="134"/></clipPath><clipPath id="clip-path-11"><rect class="cls-1" x="20.27" y="19.29" width="212.33" height="132.86"/></clipPath><clipPath id="clip-path-13"><rect class="cls-1" x="7" y="6" width="239" height="160"/></clipPath><clipPath id="clip-path-14"><rect class="cls-1" x="7" y="6" width="238.88" height="159.43"/></clipPath><clipPath id="clip-path-19"><rect class="cls-1" x="33" y="32" width="187" height="107"/></clipPath><clipPath id="clip-path-20"><rect class="cls-1" x="33.54" y="32.57" width="185.8" height="106.29"/></clipPath><clipPath id="clip-path-22"><rect class="cls-1" x="60" y="59" width="107" height="54"/></clipPath><clipPath id="clip-path-23"><rect class="cls-1" x="60.08" y="59.14" width="106.14" height="53.15"/></clipPath><clipPath id="clip-path-26"><rect class="cls-1" x="33.55" y="32.56" width="185.8" height="106.29"/></clipPath><clipPath id="clip-path-29"><rect class="cls-1" x="60.09" y="59.13" width="106.14" height="53.14"/></clipPath><clipPath id="clip-path-31"><rect class="cls-1" x="81" y="85" width="126" height="126"/></clipPath><clipPath id="clip-path-32"><rect class="cls-1" x="81.81" y="85.76" width="124.22" height="124.36"/></clipPath><clipPath id="clip-path-34"><rect class="cls-1" x="108" y="142" width="42" height="42"/></clipPath><clipPath id="clip-path-35"><rect class="cls-1" x="108.34" y="142.15" width="41.37" height="41.42"/></clipPath><clipPath id="clip-path-37"><rect class="cls-1" x="55" y="59" width="178" height="178"/></clipPath><clipPath id="clip-path-38"><rect class="cls-1" x="55.28" y="59.16" width="177.32" height="177.52"/></clipPath><clipPath id="clip-path-40"><rect class="cls-1" x="41" y="45" width="205" height="205"/></clipPath><clipPath id="clip-path-41"><rect class="cls-1" x="41.98" y="45.88" width="203.89" height="204.12"/></clipPath><clipPath id="clip-path-46"><rect class="cls-1" x="68" y="72" width="152" height="152"/></clipPath><clipPath id="clip-path-47"><rect class="cls-1" x="68.55" y="72.46" width="150.76" height="150.94"/></clipPath><clipPath id="clip-path-49"><rect class="cls-1" x="95" y="113" width="83" height="84"/></clipPath><clipPath id="clip-path-50"><rect class="cls-1" x="95.08" y="113.94" width="82.81" height="82.9"/></clipPath><clipPath id="clip-path-53"><rect class="cls-1" x="68.55" y="72.44" width="150.76" height="150.94"/></clipPath><clipPath id="clip-path-56"><rect class="cls-1" x="95.08" y="113.92" width="82.81" height="82.9"/></clipPath><clipPath id="clip-path-58"><rect class="cls-1" x="166" y="85" width="80" height="161"/></clipPath><clipPath id="clip-path-59"><rect class="cls-1" x="166.25" y="85.78" width="79.63" height="159.36"/></clipPath><clipPath id="clip-path-61"><rect class="cls-1" x="192" y="165" width="28" height="54"/></clipPath><clipPath id="clip-path-62"><rect class="cls-1" x="192.79" y="165.5" width="26.54" height="53.07"/></clipPath><clipPath id="clip-path-64"><rect class="cls-1" x="139" y="59" width="134" height="213"/></clipPath><clipPath id="clip-path-65"><rect class="cls-1" x="139.7" y="59.14" width="132.71" height="212.57"/></clipPath><clipPath id="clip-path-67"><rect class="cls-1" x="126" y="45" width="160" height="240"/></clipPath><clipPath id="clip-path-68"><rect class="cls-1" x="126.43" y="45.86" width="159.25" height="239.14"/></clipPath><clipPath id="clip-path-73"><rect class="cls-1" x="152" y="72" width="108" height="187"/></clipPath><clipPath id="clip-path-74"><rect class="cls-1" x="152.98" y="72.43" width="106.17" height="186"/></clipPath><clipPath id="clip-path-76"><rect class="cls-1" x="179" y="125" width="54" height="107"/></clipPath><clipPath id="clip-path-77"><rect class="cls-1" x="179.52" y="125.6" width="53.08" height="106.25"/></clipPath><clipPath id="clip-path-80"><rect class="cls-1" x="152.96" y="72.41" width="106.17" height="186"/></clipPath><clipPath id="clip-path-83"><rect class="cls-1" x="179.51" y="125.59" width="53.09" height="106.25"/></clipPath><clipPath id="clip-path-85"><rect class="cls-1" x="206" y="45" width="160" height="81"/></clipPath><clipPath id="clip-path-86"><rect class="cls-1" x="206" y="45.86" width="159.19" height="79.71"/></clipPath><clipPath id="clip-path-88"><rect class="cls-1" x="285" y="72" width="54" height="27"/></clipPath><clipPath id="clip-path-89"><rect class="cls-1" x="285.63" y="72.43" width="53.01" height="26.57"/></clipPath><clipPath id="clip-path-91"><rect class="cls-1" x="179" y="19" width="213" height="134"/></clipPath><clipPath id="clip-path-92"><rect class="cls-1" x="179.39" y="19.29" width="212.34" height="132.86"/></clipPath><clipPath id="clip-path-94"><rect class="cls-1" x="166" y="6" width="239" height="160"/></clipPath><clipPath id="clip-path-95"><rect class="cls-1" x="166.12" y="6" width="238.88" height="159.43"/></clipPath><clipPath id="clip-path-100"><rect class="cls-1" x="192" y="32" width="187" height="107"/></clipPath><clipPath id="clip-path-101"><rect class="cls-1" x="192.66" y="32.57" width="185.8" height="106.29"/></clipPath><clipPath id="clip-path-103"><rect class="cls-1" x="245" y="59" width="107" height="54"/></clipPath><clipPath id="clip-path-104"><rect class="cls-1" x="245.78" y="59.15" width="106.14" height="53.14"/></clipPath><clipPath id="clip-path-107"><rect class="cls-1" x="192.65" y="32.59" width="185.8" height="106.29"/></clipPath><clipPath id="clip-path-110"><rect class="cls-1" x="245.77" y="59.16" width="106.14" height="53.14"/></clipPath><clipPath id="clip-path-112"><rect class="cls-1" x="206" y="85" width="125" height="126"/></clipPath><clipPath id="clip-path-113"><rect class="cls-1" x="206.02" y="85.7" width="124.22" height="124.36"/></clipPath><clipPath id="clip-path-115"><rect class="cls-1" x="262" y="142" width="42" height="42"/></clipPath><clipPath id="clip-path-116"><rect class="cls-1" x="262.34" y="142.1" width="41.37" height="41.41"/></clipPath><clipPath id="clip-path-118"><rect class="cls-1" x="179" y="59" width="178" height="178"/></clipPath><clipPath id="clip-path-119"><rect class="cls-1" x="179.45" y="59.11" width="177.32" height="177.52"/></clipPath><clipPath id="clip-path-121"><rect class="cls-1" x="166" y="45" width="205" height="205"/></clipPath><clipPath id="clip-path-122"><rect class="cls-1" x="166.18" y="45.83" width="203.89" height="204.12"/></clipPath><clipPath id="clip-path-127"><rect class="cls-1" x="192" y="72" width="152" height="152"/></clipPath><clipPath id="clip-path-128"><rect class="cls-1" x="192.73" y="72.42" width="150.77" height="150.93"/></clipPath><clipPath id="clip-path-130"><rect class="cls-1" x="234" y="113" width="83" height="84"/></clipPath><clipPath id="clip-path-131"><rect class="cls-1" x="234.16" y="113.88" width="82.81" height="82.9"/></clipPath><clipPath id="clip-path-134"><rect class="cls-1" x="192.71" y="72.42" width="150.77" height="150.93"/></clipPath><clipPath id="clip-path-137"><rect class="cls-1" x="234.15" y="113.88" width="82.81" height="82.9"/></clipPath></defs><title>icono_nostress</title><g class="cls-2"><g class="cls-3"><g class="cls-2"><g class="cls-2"><g class="cls-4"><g class="cls-5"><g class="cls-6"><path class="cls-7" d="M86.63,125.58A39.55,39.55,0,0,0,101,122.89l.56-.21.56-.21L206,85.74v0L102.1,49l-.56-.2-.56-.22a39.85,39.85,0,1,0-14.35,77M60.08,85.72A26.53,26.53,0,0,1,96.19,60.93l.74.29.75.26,68.54,24.24L97.68,110l-.75.26-.74.29A26.53,26.53,0,0,1,60.08,85.72"/></g></g></g></g><g class="cls-2"><g class="cls-4"><g class="cls-8"><g class="cls-9"><path class="cls-7" d="M91.39,98.12l.93-.37.94-.33,33.11-11.7L93.26,74l-.94-.33-.93-.36a12.89,12.89,0,0,0-4.76-.89,13.29,13.29,0,0,0,0,26.57,13.09,13.09,0,0,0,4.76-.88"/></g></g></g></g><g class="cls-2"><g class="cls-4"><g class="cls-10"><g class="cls-11"><path class="cls-7" d="M86.63,152.15a65.94,65.94,0,0,0,23.93-4.48l.19-.07.19-.07,103.9-36.73h0a26.59,26.59,0,0,0,0-50.15l.16-.5-.17.5L110.94,23.9l-.19-.07-.19-.07A66.41,66.41,0,1,0,86.63,152.15M33.54,85.72a53.07,53.07,0,0,1,72.23-49.57l.37.15.38.13,103.9,36.74h0a13.29,13.29,0,0,1,0,25.09L106.52,135l-.38.14-.37.14A53.07,53.07,0,0,1,33.54,85.72"/></g></g></g><path class="cls-7" d="M110.75,147.6l.19-.07,103.9-36.73h0a26.58,26.58,0,0,0,0-50.15l.16-.5-.17.5L110.94,23.9l-.19-.07-.19-.07A66.41,66.41,0,1,0,86.63,152.15a65.94,65.94,0,0,0,23.93-4.48Z"/></g><g class="cls-2"><g class="cls-4"><g class="cls-12"><g class="cls-13"><path class="cls-7" d="M115.36,160.06l103.88-36.73a39.87,39.87,0,0,0,0-75.22L115.36,11.37a79.72,79.72,0,1,0,0,148.69M20.27,85.72a66.35,66.35,0,0,1,90.29-62l.19.07.19.07,103.9,36.74.17-.5-.16.5a26.59,26.59,0,0,1,0,50.15h0l-103.9,36.73-.19.07-.19.07A66.33,66.33,0,0,1,20.27,85.72"/></g></g></g></g><g class="cls-2"><g class="cls-4"><g class="cls-12"><g class="cls-13"><path class="cls-7" d="M115.36,160.06l103.88-36.73a39.87,39.87,0,0,0,0-75.22L115.36,11.37a79.72,79.72,0,1,0,0,148.69M20.27,85.72a66.35,66.35,0,0,1,90.29-62l.19.07.19.07,103.9,36.74.17-.5-.16.5a26.59,26.59,0,0,1,0,50.15h0l-103.9,36.73-.19.07-.19.07A66.33,66.33,0,0,1,20.27,85.72"/></g></g></g></g><g class="cls-2"><g class="cls-4"><g class="cls-14"><g class="cls-15"><path class="cls-7" d="M86.63,138.86a52.67,52.67,0,0,0,19.14-3.58l.37-.14.38-.14,103.9-36.73a13.29,13.29,0,0,0,0-25.09h0L106.52,36.43l-.38-.13-.37-.15A53.13,53.13,0,1,0,86.63,138.86M206.06,85.72h0s0,0,0,0v0l0,0s0,0,0,0m-159.25,0A39.81,39.81,0,0,1,101,48.54l.56.22.56.2L206,85.69v0L102.1,122.47l-.56.21-.56.21A39.79,39.79,0,0,1,46.81,85.72"/></g></g></g></g><g class="cls-2"><g class="cls-4"><g class="cls-16"><g class="cls-17"><path class="cls-7" d="M96.19,110.5l.74-.29.75-.26,68.54-24.23L97.68,61.48l-.75-.26-.74-.29a26.58,26.58,0,1,0,0,49.57M73.35,85.72A13.3,13.3,0,0,1,86.63,72.43a12.89,12.89,0,0,1,4.76.89l.93.36.94.33,33.11,11.71L93.26,97.42l-.94.33-.93.37a13.09,13.09,0,0,1-4.76.88A13.3,13.3,0,0,1,73.35,85.72"/></g></g></g></g><g class="cls-2"><g class="cls-4"><g class="cls-14"><g class="cls-18"><path class="cls-7" d="M106.15,135.13l.38-.14,103.9-36.73a13.3,13.3,0,0,0,0-25.1h0L106.53,36.42l-.37-.14-.38-.14a53.15,53.15,0,1,0,0,99.13Zm99.93-49.42h0v0l0,0,0,0m-159.26,0A39.81,39.81,0,0,1,101,48.53l.56.21.56.2L206,85.68v0l-103.9,36.74-.56.19-.56.22A39.81,39.81,0,0,1,46.82,85.7"/></g></g></g></g><g class="cls-2"><g class="cls-4"><g class="cls-16"><g class="cls-19"><path class="cls-7" d="M96.94,110.2l.75-.26L166.23,85.7,97.69,61.47l-.75-.27-.74-.28a26.24,26.24,0,0,0-9.56-1.79,26.57,26.57,0,1,0,9.56,51.36ZM73.37,85.7A13.29,13.29,0,0,1,86.64,72.42a13,13,0,0,1,4.77.89l.92.36.94.33,33.11,11.7L93.27,97.41l-.94.33-.92.36a13,13,0,0,1-4.77.89A13.29,13.29,0,0,1,73.37,85.7"/></g></g></g></g><g class="cls-2"><g class="cls-4"><g class="cls-20"><g class="cls-21"><path class="cls-22" d="M149.76,198.47A39.85,39.85,0,0,0,158,186.41l.24-.55.25-.54L206,85.8l0,0-99.42,47.58-.53.25-.55.24a39.85,39.85,0,1,0,44.26,64.64m-46.92-9.4a26.62,26.62,0,0,1,0-37.58,26.32,26.32,0,0,1,8-5.51l.73-.32.72-.34,65.58-31.38-31.35,65.65-.34.72-.33.73a26.51,26.51,0,0,1-43,8"/></g></g></g></g><g class="cls-2"><g class="cls-4"><g class="cls-23"><g class="cls-24"><path class="cls-22" d="M133.74,175.67l.4-.91.43-.9,15.14-31.71L118,157.31l-.9.43-.91.4a13,13,0,0,0-4,2.75A13.28,13.28,0,0,0,131,179.67a12.81,12.81,0,0,0,2.75-4"/></g></g></g></g><g class="cls-2"><g class="cls-4"><g class="cls-25"><g class="cls-26"><path class="cls-22" d="M168.53,217.25a66.21,66.21,0,0,0,13.76-20.11l.09-.18.08-.18L230,97.25h0a26.57,26.57,0,0,0-35.43-35.47l-.23-.47.22.48L95.14,109.36l-.18.09-.18.08a66.4,66.4,0,1,0,73.75,107.72m-84.46-9.39a53.15,53.15,0,0,1,16.07-86.18l.36-.16.36-.18,99.41-47.57h0A13.28,13.28,0,0,1,218,91.53l-47.52,99.52-.17.36-.16.37a53.09,53.09,0,0,1-86.09,16.08"/></g></g></g><path class="cls-22" d="M182.38,197l.08-.18L230,97.25h0a26.57,26.57,0,0,0-35.43-35.47l-.23-.47.22.48L95.14,109.36l-.18.09-.18.08a66.41,66.41,0,1,0,87.52,87.61Z"/></g><g class="cls-2"><g class="cls-4"><g class="cls-27"><g class="cls-28"><path class="cls-22" d="M194.43,202.51,242,103a39.84,39.84,0,0,0-53.13-53.2L89.41,97.37a79.71,79.71,0,1,0,105,105.14M74.69,217.25A66.44,66.44,0,0,1,94.78,109.53l.18-.08.18-.09,99.41-47.57-.22-.48.23.47A26.57,26.57,0,0,1,230,97.25h0l-47.52,99.53-.08.18-.09.18a66.32,66.32,0,0,1-107.6,20.11"/></g></g></g></g><g class="cls-2"><g class="cls-4"><g class="cls-27"><g class="cls-28"><path class="cls-22" d="M194.43,202.51,242,103a39.84,39.84,0,0,0-53.13-53.2L89.41,97.37a79.71,79.71,0,1,0,105,105.14M74.69,217.25A66.44,66.44,0,0,1,94.78,109.53l.18-.08.18-.09,99.41-47.57-.22-.48.23.47A26.57,26.57,0,0,1,230,97.25h0l-47.52,99.53-.08.18-.09.18a66.32,66.32,0,0,1-107.6,20.11"/></g></g></g></g><g class="cls-2"><g class="cls-4"><g class="cls-29"><g class="cls-30"><path class="cls-22" d="M159.14,207.86a53,53,0,0,0,11-16.08l.16-.37.17-.36L218,91.53a13.28,13.28,0,0,0-17.7-17.77h0l-99.41,47.57-.36.18-.36.16a53.12,53.12,0,1,0,59,86.18M206.07,85.74h0s0,0,0,0l0,0h0M93.46,198.47a39.88,39.88,0,0,1,12-64.64l.55-.24.53-.25L206,85.76l0,0-47.53,99.52-.25.54-.24.55a39.8,39.8,0,0,1-64.56,12.06"/></g></g></g></g><g class="cls-2"><g class="cls-4"><g class="cls-31"><g class="cls-32"><path class="cls-22" d="M145.87,181l.33-.73.34-.72,31.35-65.65-65.58,31.38-.72.34-.73.32a26.32,26.32,0,0,0-8,5.51,26.56,26.56,0,1,0,43,29.55m-33.65-1.37a13.31,13.31,0,0,1,0-18.78,13,13,0,0,1,4-2.75l.91-.4.9-.43,31.68-15.16-15.14,31.71-.43.9-.4.91a12.81,12.81,0,0,1-2.75,4,13.26,13.26,0,0,1-18.77,0"/></g></g></g></g><g class="cls-2"><g class="cls-4"><g class="cls-29"><g class="cls-33"><path class="cls-22" d="M170.32,191.39l.17-.35L218,91.51a13.28,13.28,0,0,0-17.7-17.77l0,0-99.41,47.57-.36.17-.36.16a53.13,53.13,0,1,0,70,70.1ZM206.07,85.72h0l0,0,0,0h0M93.46,198.45a39.93,39.93,0,0,1,0-56.37,39.52,39.52,0,0,1,12-8.26l.54-.25.54-.25L206,85.74l0,0L158.51,185.3l-.25.54-.24.55a39.8,39.8,0,0,1-64.56,12.06"/></g></g></g></g><g class="cls-2"><g class="cls-4"><g class="cls-31"><g class="cls-34"><path class="cls-22" d="M146.2,180.29l.34-.71,31.35-65.66L112.31,145.3l-.72.35-.73.32a26.32,26.32,0,0,0-8,5.51,26.55,26.55,0,1,0,43,29.54Zm-34-.63a13.32,13.32,0,0,1,0-18.79,13,13,0,0,1,4-2.75l.91-.4.9-.43,31.68-15.16-15.14,31.72-.43.89-.4.91a13,13,0,0,1-2.75,4,13.28,13.28,0,0,1-18.77,0"/></g></g></g></g><g class="cls-2"><g class="cls-4"><g class="cls-35"><g class="cls-36"><path class="cls-37" d="M245.87,205.28a39.64,39.64,0,0,0-2.68-14.37l-.21-.55-.2-.57-36.7-104h0l-36.7,104-.2.57-.21.55a39.82,39.82,0,1,0,76.94,14.37m-39.81,26.58a26.59,26.59,0,0,1-24.76-36.15l.29-.74.26-.75,24.21-68.62,24.21,68.62.26.75.29.74a26.59,26.59,0,0,1-24.76,36.15"/></g></g></g></g><g class="cls-2"><g class="cls-4"><g class="cls-38"><g class="cls-39"><path class="cls-37" d="M218.44,200.51l-.35-.93-.34-.94L206.06,165.5l-11.69,33.15-.33.93-.36.93a12.94,12.94,0,0,0-.89,4.77,13.27,13.27,0,1,0,26.54,0,12.94,12.94,0,0,0-.89-4.77"/></g></g></g></g><g class="cls-2"><g class="cls-4"><g class="cls-40"><g class="cls-41"><path class="cls-37" d="M272.42,205.28a66.3,66.3,0,0,0-4.47-24l-.08-.19-.06-.19-36.7-104h0a26.54,26.54,0,0,0-50.1,0l-.5-.16.5.17-36.7,104-.06.19-.08.19a66.37,66.37,0,1,0,128.25,24m-66.36,53.15a53.16,53.16,0,0,1-49.51-72.31l.14-.37.14-.38,36.69-104,0,0a13.27,13.27,0,0,1,25.06,0l36.7,104,.13.38.14.37a53.14,53.14,0,0,1-49.51,72.31"/></g></g></g><path class="cls-37" d="M267.87,181.13l-.06-.19-36.7-104h0a26.54,26.54,0,0,0-50.1,0l-.5-.16.5.17-36.7,104-.06.19-.08.19a66.36,66.36,0,1,0,123.78,0Z"/></g><g class="cls-2"><g class="cls-4"><g class="cls-42"><g class="cls-43"><path class="cls-37" d="M280.32,176.52l-36.69-104a39.8,39.8,0,0,0-75.14,0l-36.69,104a79.63,79.63,0,1,0,148.52,0m-74.26,95.19a66.43,66.43,0,0,1-61.89-90.39l.08-.19.06-.19,36.7-104-.5-.17.5.16a26.54,26.54,0,0,1,50.1,0h0l36.7,104,.06.19.08.19a66.43,66.43,0,0,1-61.89,90.39"/></g></g></g></g><g class="cls-2"><g class="cls-4"><g class="cls-42"><g class="cls-43"><path class="cls-37" d="M280.32,176.52l-36.69-104a39.8,39.8,0,0,0-75.14,0l-36.69,104a79.63,79.63,0,1,0,148.52,0m-74.26,95.19a66.43,66.43,0,0,1-61.89-90.39l.08-.19.06-.19,36.7-104-.5-.17.5.16a26.54,26.54,0,0,1,50.1,0h0l36.7,104,.06.19.08.19a66.43,66.43,0,0,1-61.89,90.39"/></g></g></g></g><g class="cls-2"><g class="cls-4"><g class="cls-44"><g class="cls-45"><path class="cls-37" d="M259.15,205.28a53.16,53.16,0,0,0-3.58-19.16l-.14-.38-.13-.37-36.7-104a13.27,13.27,0,0,0-25.06,0l0,0-36.69,104-.14.37-.14.38a53.1,53.1,0,1,0,102.6,19.16M206.07,85.71h0l0,0,0,0m0,159.43a39.86,39.86,0,0,1-37.13-54.23l.21-.55.2-.57,36.7-104h0l36.7,104,.2.57.21.55a39.86,39.86,0,0,1-37.13,54.23"/></g></g></g></g><g class="cls-2"><g class="cls-4"><g class="cls-46"><g class="cls-47"><path class="cls-37" d="M230.82,195.71l-.29-.74-.26-.75L206.06,125.6l-24.21,68.62-.26.75-.29.74a26.54,26.54,0,1,0,49.52,0m-24.76,22.86a13.29,13.29,0,0,1-13.27-13.29,12.94,12.94,0,0,1,.89-4.77l.36-.93.33-.94,11.69-33.14,11.69,33.14.33.94.36.93a12.94,12.94,0,0,1,.89,4.77,13.29,13.29,0,0,1-13.27,13.29"/></g></g></g></g><g class="cls-2"><g class="cls-4"><g class="cls-44"><g class="cls-48"><path class="cls-37" d="M255.41,185.73l-.13-.37-36.69-104a13.27,13.27,0,0,0-25.07,0v0l-36.7,104-.13.37-.14.37a53.08,53.08,0,1,0,99,0Zm-49.35-100h0l0,0,0,0m0,159.43a39.86,39.86,0,0,1-37.14-54.23l.22-.56.2-.56L206,85.77h0l36.7,104,.2.56.21.56a39.86,39.86,0,0,1-37.13,54.23"/></g></g></g></g><g class="cls-2"><g class="cls-4"><g class="cls-46"><g class="cls-49"><path class="cls-37" d="M230.52,195l-.26-.75-24.21-68.62-24.21,68.62-.26.75-.29.74a26.29,26.29,0,0,0-1.78,9.57,26.54,26.54,0,1,0,51.3-9.57Zm-24.47,23.6a13.29,13.29,0,0,1-13.27-13.29,12.9,12.9,0,0,1,.89-4.77l.35-.93.33-.94,11.7-33.14,11.69,33.14.33.94.36.93a12.9,12.9,0,0,1,.89,4.77,13.3,13.3,0,0,1-13.27,13.29"/></g></g></g></g><g class="cls-2"><g class="cls-4"><g class="cls-50"><g class="cls-51"><path class="cls-22" d="M325.37,45.86A39.54,39.54,0,0,0,311,48.54l-.56.22-.56.2L206,85.69v0l103.9,36.74.56.2.56.21a39.85,39.85,0,1,0,14.35-77m26.55,39.86a26.59,26.59,0,0,1-26.55,26.57,26.24,26.24,0,0,1-9.56-1.79l-.74-.28-.75-.27L245.78,85.72l68.54-24.23.75-.27.74-.29a26.55,26.55,0,0,1,36.11,24.79"/></g></g></g></g><g class="cls-2"><g class="cls-4"><g class="cls-52"><g class="cls-53"><path class="cls-22" d="M320.6,73.32l-.92.36-.94.33L285.63,85.72l33.11,11.7.94.33.92.36a13,13,0,0,0,4.77.89,13.29,13.29,0,0,0,0-26.57,13,13,0,0,0-4.77.89"/></g></g></g></g><g class="cls-2"><g class="cls-4"><g class="cls-54"><g class="cls-55"><path class="cls-22" d="M325.37,19.29a65.78,65.78,0,0,0-23.94,4.48l-.18.06-.19.07L197.16,60.64h0a26.59,26.59,0,0,0,0,50.16l-.16.49.17-.49,103.9,36.74.19.06.18.07A66.41,66.41,0,1,0,325.37,19.29m53.09,66.43a53.18,53.18,0,0,1-53.09,53.14,52.63,52.63,0,0,1-19.14-3.58l-.37-.14-.38-.14L201.58,98.27h0a13.29,13.29,0,0,1,0-25.09l103.9-36.74.38-.13.37-.14a53,53,0,0,1,72.23,49.56"/></g></g></g><path class="cls-22" d="M301.25,23.83l-.19.07L197.16,60.64h0a26.59,26.59,0,0,0,0,50.16l-.16.49.17-.49,103.9,36.74.19.06.18.07A66.41,66.41,0,1,0,325.37,19.29a65.78,65.78,0,0,0-23.94,4.48Z"/></g><g class="cls-2"><g class="cls-4"><g class="cls-56"><g class="cls-57"><path class="cls-22" d="M296.64,11.37,192.76,48.1a39.88,39.88,0,0,0,0,75.23l103.89,36.73a79.72,79.72,0,1,0,0-148.69m95.09,74.35a66.34,66.34,0,0,1-90.3,61.95l-.18-.07-.19-.06L197.16,110.8l-.17.49.16-.49a26.59,26.59,0,0,1,0-50.16h0L301.06,23.9l.19-.07.18-.06a65.78,65.78,0,0,1,23.94-4.48,66.47,66.47,0,0,1,66.36,66.43"/></g></g></g></g><g class="cls-2"><g class="cls-4"><g class="cls-56"><g class="cls-57"><path class="cls-22" d="M296.64,11.37,192.76,48.1a39.88,39.88,0,0,0,0,75.23l103.89,36.73a79.72,79.72,0,1,0,0-148.69m95.09,74.35a66.34,66.34,0,0,1-90.3,61.95l-.18-.07-.19-.06L197.16,110.8l-.17.49.16-.49a26.59,26.59,0,0,1,0-50.16h0L301.06,23.9l.19-.07.18-.06a65.78,65.78,0,0,1,23.94-4.48,66.47,66.47,0,0,1,66.36,66.43"/></g></g></g></g><g class="cls-2"><g class="cls-4"><g class="cls-58"><g class="cls-59"><path class="cls-22" d="M325.37,32.57a52.81,52.81,0,0,0-19.14,3.59l-.38.14-.37.13L201.58,73.17a13.29,13.29,0,0,0,0,25.09h0L305.48,135l.37.14.38.14a52.63,52.63,0,0,0,19.14,3.58,53.15,53.15,0,0,0,0-106.29M205.93,85.71h0a0,0,0,0,1,0,0v0l0,0,0,0m159.26,0A39.79,39.79,0,0,1,311,122.89l-.56-.21-.56-.2L206,85.74v0L309.9,49l.56-.2.56-.22a39.81,39.81,0,0,1,54.17,37.18"/></g></g></g></g><g class="cls-2"><g class="cls-4"><g class="cls-60"><g class="cls-61"><path class="cls-22" d="M315.81,60.93l-.74.29-.75.27L245.78,85.72,314.32,110l.75.27.74.28a26.24,26.24,0,0,0,9.56,1.79,26.57,26.57,0,1,0-9.56-51.36m22.83,24.79A13.29,13.29,0,0,1,325.37,99a12.78,12.78,0,0,1-4.77-.89l-.92-.36-.94-.33-33.11-11.7L318.74,74l.94-.33.92-.36a13,13,0,0,1,4.77-.89,13.29,13.29,0,0,1,13.27,13.29"/></g></g></g></g><g class="cls-2"><g class="cls-4"><g class="cls-58"><g class="cls-62"><path class="cls-22" d="M305.84,36.31l-.37.13L201.57,73.18a13.29,13.29,0,0,0,0,25.09h0L305.47,135l.37.13.37.14a53.13,53.13,0,1,0,19.15-102.7,52.69,52.69,0,0,0-19.15,3.58ZM205.92,85.72h0a0,0,0,0,0,0,0v0l0,0,0,0m159.25,0A39.78,39.78,0,0,1,311,122.9l-.56-.21-.56-.2L206,85.76V85.7L309.89,49l.56-.2.56-.21a39.78,39.78,0,0,1,54.16,37.17"/></g></g></g></g><g class="cls-2"><g class="cls-4"><g class="cls-60"><g class="cls-63"><path class="cls-22" d="M315.06,61.23l-.75.27L245.77,85.73,314.31,110l.75.27.74.29a26.57,26.57,0,1,0,0-49.58Zm23.57,24.5A13.29,13.29,0,0,1,325.36,99a12.9,12.9,0,0,1-4.77-.88l-.93-.36-.93-.33L285.62,85.73,318.73,74l.94-.33.92-.36a12.9,12.9,0,0,1,4.77-.89,13.3,13.3,0,0,1,13.27,13.29"/></g></g></g></g><g class="cls-2"><g class="cls-4"><g class="cls-64"><g class="cls-65"><path class="cls-66" d="M318.6,142a39.68,39.68,0,0,0-12.05-8.26l-.54-.24-.54-.26L206.05,85.7l0,0,47.52,99.53.25.54.25.54A39.83,39.83,0,1,0,318.6,142m-9.39,47a26.52,26.52,0,0,1-43-8l-.32-.72-.34-.72-31.35-65.66,65.58,31.39.72.34.73.32a26.32,26.32,0,0,1,8,5.51,26.62,26.62,0,0,1,0,37.58"/></g></g></g></g><g class="cls-2"><g class="cls-4"><g class="cls-67"><g class="cls-68"><path class="cls-66" d="M295.83,158.09l-.91-.41-.9-.43L262.34,142.1l15.15,31.71.43.9.4.91a12.73,12.73,0,0,0,2.74,4,13.28,13.28,0,1,0,18.77-18.79,12.85,12.85,0,0,0-4-2.74"/></g></g></g></g><g class="cls-2"><g class="cls-4"><g class="cls-69"><g class="cls-70"><path class="cls-66" d="M337.37,123.26a66.16,66.16,0,0,0-20.09-13.79l-.19-.08-.17-.08L217.5,61.73h0A26.57,26.57,0,0,0,182.06,97.2l-.47.23.48-.23,47.52,99.53.08.18.09.18a66.38,66.38,0,1,0,107.61-73.83M328,207.81a53.06,53.06,0,0,1-86.08-16.09l-.17-.36-.17-.36L194,91.47v0a13.28,13.28,0,0,1,17.75-17.72l99.41,47.57.36.18.36.15A53.17,53.17,0,0,1,328,207.81"/></g></g></g><path class="cls-66" d="M317.09,109.39l-.17-.08L217.5,61.73h0a26.56,26.56,0,0,0-35.42,35.46l-.48.24.48-.23,47.52,99.53.08.18.09.18a66.36,66.36,0,1,0,87.52-87.62Z"/></g><g class="cls-2"><g class="cls-4"><g class="cls-71"><g class="cls-72"><path class="cls-66" d="M322.64,97.32l-99.4-47.56a39.83,39.83,0,0,0-53.14,53.18l47.52,99.52a79.64,79.64,0,1,0,105-105.14M337.37,217.2a66.32,66.32,0,0,1-107.61-20.11l-.08-.18-.09-.18L182.07,97.2l-.48.23.47-.23a26.57,26.57,0,0,1,35.43-35.47h0l99.42,47.58.17.08.19.08A66.46,66.46,0,0,1,337.37,217.2"/></g></g></g></g><g class="cls-2"><g class="cls-4"><g class="cls-71"><g class="cls-72"><path class="cls-66" d="M322.64,97.32l-99.4-47.56a39.83,39.83,0,0,0-53.14,53.18l47.52,99.52a79.64,79.64,0,1,0,105-105.14M337.37,217.2a66.32,66.32,0,0,1-107.61-20.11l-.08-.18-.09-.18L182.07,97.2l-.48.23.47-.23a26.57,26.57,0,0,1,35.43-35.47h0l99.42,47.58.17.08.19.08A66.46,66.46,0,0,1,337.37,217.2"/></g></g></g></g><g class="cls-2"><g class="cls-4"><g class="cls-73"><g class="cls-74"><path class="cls-66" d="M328,132.65a52.81,52.81,0,0,0-16.07-11l-.36-.15-.36-.18L211.78,73.72A13.28,13.28,0,0,0,194,91.44v0L241.56,191l.17.36.17.36A53.1,53.1,0,1,0,328,132.65m-122-47h0l0,0v0s0,0,0,0M318.6,198.41A39.79,39.79,0,0,1,254,186.35l-.25-.54-.25-.54L206,85.74l0,0,99.42,47.58.54.26.54.24a39.85,39.85,0,0,1,12.05,64.63"/></g></g></g></g><g class="cls-2"><g class="cls-4"><g class="cls-75"><g class="cls-76"><path class="cls-66" d="M301.19,145.93l-.73-.32-.72-.34-65.58-31.39,31.35,65.66.34.72.32.72a26.54,26.54,0,1,0,35-35m-1.36,33.69a13.28,13.28,0,0,1-18.77,0,12.73,12.73,0,0,1-2.74-4l-.4-.91-.43-.9L262.34,142.1,294,157.25l.9.43.91.41a12.85,12.85,0,0,1,4,2.74,13.32,13.32,0,0,1,0,18.79"/></g></g></g></g><g class="cls-2"><g class="cls-4"><g class="cls-73"><g class="cls-77"><path class="cls-66" d="M311.53,121.47l-.35-.18L211.76,73.72A13.28,13.28,0,0,0,194,91.44l0,0L241.55,191l.17.36.16.36a53.09,53.09,0,1,0,70-70.1ZM206,85.67h0l0,0v0m112.6,112.74A39.79,39.79,0,0,1,254,186.35l-.24-.54-.26-.54L206,85.74l0,0,99.41,47.58.54.26.55.24a39.86,39.86,0,0,1,12,64.63"/></g></g></g></g><g class="cls-2"><g class="cls-4"><g class="cls-75"><g class="cls-78"><path class="cls-66" d="M300.44,145.61l-.71-.34-65.58-31.39,31.34,65.66.35.72.32.72a26.21,26.21,0,0,0,5.5,8,26.56,26.56,0,1,0,29.51-43.09Zm-.63,34a13.26,13.26,0,0,1-21.51-4l-.4-.91-.43-.9L262.32,142.1,294,157.25l.89.43.91.41a12.85,12.85,0,0,1,4,2.74,13.32,13.32,0,0,1,0,18.79"/></g></g></g></g></g></g></g></svg>