<svg id="Layer_1" data-name="Layer 1" xmlns="http://www.w3.org/2000/svg" xmlns:xlink="http://www.w3.org/1999/xlink" viewBox="0 0 300 397"><defs><style>.cls-1{fill:none;}.cls-2{clip-path:url(#clip-path);}.cls-3,.cls-4{isolation:isolate;}.cls-4{mix-blend-mode:multiply;}.cls-5{clip-path:url(#clip-path-4);}.cls-6{clip-path:url(#clip-path-5);}.cls-7{clip-path:url(#clip-path-6);}.cls-8{clip-path:url(#clip-path-7);}.cls-9{fill:#9dcaed;}.cls-10{clip-path:url(#clip-path-9);}.cls-11{clip-path:url(#clip-path-10);}.cls-12{clip-path:url(#clip-path-12);}.cls-13{clip-path:url(#clip-path-13);}.cls-14{clip-path:url(#clip-path-21);}.cls-15{clip-path:url(#clip-path-22);}.cls-16{clip-path:url(#clip-path-24);}.cls-17{clip-path:url(#clip-path-25);}.cls-18{clip-path:url(#clip-path-28);}.cls-19{clip-path:url(#clip-path-31);}.cls-20{clip-path:url(#clip-path-33);}.cls-21{clip-path:url(#clip-path-34);}.cls-22{fill:#c1dcf4;}.cls-23{clip-path:url(#clip-path-36);}.cls-24{clip-path:url(#clip-path-37);}.cls-25{clip-path:url(#clip-path-39);}.cls-26{clip-path:url(#clip-path-40);}.cls-27{clip-path:url(#clip-path-42);}.cls-28{clip-path:url(#clip-path-43);}.cls-29{clip-path:url(#clip-path-48);}.cls-30{clip-path:url(#clip-path-49);}.cls-31{clip-path:url(#clip-path-51);}.cls-32{clip-path:url(#clip-path-52);}.cls-33{clip-path:url(#clip-path-55);}.cls-34{clip-path:url(#clip-path-58);}.cls-35{clip-path:url(#clip-path-60);}.cls-36{clip-path:url(#clip-path-61);}.cls-37{clip-path:url(#clip-path-63);}.cls-38{clip-path:url(#clip-path-64);}.cls-39{clip-path:url(#clip-path-66);}.cls-40{clip-path:url(#clip-path-67);}.cls-41{clip-path:url(#clip-path-69);}.cls-42{clip-path:url(#clip-path-70);}.cls-43{clip-path:url(#clip-path-75);}.cls-44{clip-path:url(#clip-path-76);}.cls-45{clip-path:url(#clip-path-78);}.cls-46{clip-path:url(#clip-path-79);}.cls-47{clip-path:url(#clip-path-82);}.cls-48{clip-path:url(#clip-path-85);}.cls-49{clip-path:url(#clip-path-87);}.cls-50{clip-path:url(#clip-path-88);}.cls-51{clip-path:url(#clip-path-90);}.cls-52{clip-path:url(#clip-path-91);}.cls-53{clip-path:url(#clip-path-93);}.cls-54{clip-path:url(#clip-path-94);}.cls-55{clip-path:url(#clip-path-96);}.cls-56{clip-path:url(#clip-path-97);}.cls-57{clip-path:url(#clip-path-102);}.cls-58{clip-path:url(#clip-path-103);}.cls-59{clip-path:url(#clip-path-105);}.cls-60{clip-path:url(#clip-path-106);}.cls-61{clip-path:url(#clip-path-109);}.cls-62{clip-path:url(#clip-path-112);}</style><clipPath id="clip-path"><rect class="cls-1" x="8" y="10" width="285" height="380"/></clipPath><clipPath id="clip-path-4"><rect class="cls-1" x="74" y="10" width="160" height="240"/></clipPath><clipPath id="clip-path-5"><rect class="cls-1" x="74.34" y="10" width="159.22" height="239.06"/></clipPath><clipPath id="clip-path-6"><rect class="cls-1" x="114" y="49" width="80" height="161"/></clipPath><clipPath id="clip-path-7"><rect class="cls-1" x="114.15" y="49.91" width="79.61" height="159.31"/></clipPath><clipPath id="clip-path-9"><rect class="cls-1" x="140" y="129" width="28" height="54"/></clipPath><clipPath id="clip-path-10"><rect class="cls-1" x="140.68" y="129.6" width="26.53" height="53.05"/></clipPath><clipPath id="clip-path-12"><rect class="cls-1" x="87" y="23" width="134" height="213"/></clipPath><clipPath id="clip-path-13"><rect class="cls-1" x="87.61" y="23.28" width="132.68" height="212.5"/></clipPath><clipPath id="clip-path-21"><rect class="cls-1" x="100" y="36" width="108" height="187"/></clipPath><clipPath id="clip-path-22"><rect class="cls-1" x="100.88" y="36.56" width="106.15" height="185.94"/></clipPath><clipPath id="clip-path-24"><rect class="cls-1" x="127" y="89" width="54" height="107"/></clipPath><clipPath id="clip-path-25"><rect class="cls-1" x="127.41" y="89.72" width="53.07" height="106.22"/></clipPath><clipPath id="clip-path-28"><rect class="cls-1" x="100.86" y="36.55" width="106.15" height="185.94"/></clipPath><clipPath id="clip-path-31"><rect class="cls-1" x="127.4" y="89.71" width="53.07" height="106.22"/></clipPath><clipPath id="clip-path-33"><rect class="cls-1" x="47" y="133" width="81" height="160"/></clipPath><clipPath id="clip-path-34"><rect class="cls-1" x="47.8" y="133.6" width="79.61" height="159.31"/></clipPath><clipPath id="clip-path-36"><rect class="cls-1" x="74" y="213" width="27" height="54"/></clipPath><clipPath id="clip-path-37"><rect class="cls-1" x="74.34" y="213.29" width="26.54" height="53.05"/></clipPath><clipPath id="clip-path-39"><rect class="cls-1" x="21" y="106" width="133" height="214"/></clipPath><clipPath id="clip-path-40"><rect class="cls-1" x="21.27" y="106.97" width="132.68" height="212.5"/></clipPath><clipPath id="clip-path-42"><rect class="cls-1" x="8" y="93" width="160" height="240"/></clipPath><clipPath id="clip-path-43"><rect class="cls-1" x="8" y="93.69" width="159.22" height="239.06"/></clipPath><clipPath id="clip-path-48"><rect class="cls-1" x="34" y="120" width="107" height="187"/></clipPath><clipPath id="clip-path-49"><rect class="cls-1" x="34.54" y="120.25" width="106.15" height="185.94"/></clipPath><clipPath id="clip-path-51"><rect class="cls-1" x="61" y="173" width="54" height="107"/></clipPath><clipPath id="clip-path-52"><rect class="cls-1" x="61.07" y="173.41" width="53.07" height="106.22"/></clipPath><clipPath id="clip-path-55"><rect class="cls-1" x="34.53" y="120.24" width="106.14" height="185.94"/></clipPath><clipPath id="clip-path-58"><rect class="cls-1" x="61.06" y="173.4" width="53.07" height="106.22"/></clipPath><clipPath id="clip-path-60"><rect class="cls-1" x="173" y="133" width="81" height="160"/></clipPath><clipPath id="clip-path-61"><rect class="cls-1" x="173.59" y="133.6" width="79.61" height="159.31"/></clipPath><clipPath id="clip-path-63"><rect class="cls-1" x="200" y="213" width="27" height="54"/></clipPath><clipPath id="clip-path-64"><rect class="cls-1" x="200.12" y="213.29" width="26.54" height="53.05"/></clipPath><clipPath id="clip-path-66"><rect class="cls-1" x="147" y="106" width="133" height="214"/></clipPath><clipPath id="clip-path-67"><rect class="cls-1" x="147.05" y="106.97" width="132.68" height="212.5"/></clipPath><clipPath id="clip-path-69"><rect class="cls-1" x="133" y="93" width="160" height="240"/></clipPath><clipPath id="clip-path-70"><rect class="cls-1" x="133.78" y="93.69" width="159.22" height="239.06"/></clipPath><clipPath id="clip-path-75"><rect class="cls-1" x="160" y="120" width="107" height="187"/></clipPath><clipPath id="clip-path-76"><rect class="cls-1" x="160.32" y="120.25" width="106.15" height="185.94"/></clipPath><clipPath id="clip-path-78"><rect class="cls-1" x="186" y="173" width="54" height="107"/></clipPath><clipPath id="clip-path-79"><rect class="cls-1" x="186.85" y="173.41" width="53.08" height="106.22"/></clipPath><clipPath id="clip-path-82"><rect class="cls-1" x="160.31" y="120.24" width="106.15" height="185.94"/></clipPath><clipPath id="clip-path-85"><rect class="cls-1" x="186.84" y="173.4" width="53.07" height="106.22"/></clipPath><clipPath id="clip-path-87"><rect class="cls-1" x="114" y="190" width="80" height="161"/></clipPath><clipPath id="clip-path-88"><rect class="cls-1" x="114.15" y="190.85" width="79.61" height="159.31"/></clipPath><clipPath id="clip-path-90"><rect class="cls-1" x="140" y="270" width="28" height="54"/></clipPath><clipPath id="clip-path-91"><rect class="cls-1" x="140.68" y="270.54" width="26.53" height="53.05"/></clipPath><clipPath id="clip-path-93"><rect class="cls-1" x="87" y="164" width="134" height="213"/></clipPath><clipPath id="clip-path-94"><rect class="cls-1" x="87.61" y="164.22" width="132.68" height="212.5"/></clipPath><clipPath id="clip-path-96"><rect class="cls-1" x="74" y="150" width="160" height="240"/></clipPath><clipPath id="clip-path-97"><rect class="cls-1" x="74.34" y="150.94" width="159.22" height="239.06"/></clipPath><clipPath id="clip-path-102"><rect class="cls-1" x="100" y="177" width="108" height="187"/></clipPath><clipPath id="clip-path-103"><rect class="cls-1" x="100.88" y="177.5" width="106.15" height="185.94"/></clipPath><clipPath id="clip-path-105"><rect class="cls-1" x="127" y="230" width="54" height="107"/></clipPath><clipPath id="clip-path-106"><rect class="cls-1" x="127.41" y="230.66" width="53.07" height="106.22"/></clipPath><clipPath id="clip-path-109"><rect class="cls-1" x="100.86" y="177.49" width="106.15" height="185.94"/></clipPath><clipPath id="clip-path-112"><rect class="cls-1" x="127.4" y="230.65" width="53.07" height="106.22"/></clipPath></defs><title>icono_retiene_agua</title><g class="cls-2"><g class="cls-3"><g class="cls-2"><g class="cls-2"><g class="cls-4"><g class="cls-5"><g class="cls-6"><g class="cls-4"><g class="cls-7"><g class="cls-8"><path class="cls-9" d="M193.75,169.37A39.79,39.79,0,0,0,191.08,155l-.22-.56-.2-.56L154,49.91h-.05l-36.68,104-.2.56-.21.56a39.81,39.81,0,1,0,76.92,14.36M154,195.94a26.59,26.59,0,0,1-26.54-26.57,26.3,26.3,0,0,1,1.79-9.57l.28-.74.27-.75L154,89.72l24.2,68.59.26.75.29.74a26.3,26.3,0,0,1,1.79,9.57A26.59,26.59,0,0,1,154,195.94"/></g></g></g></g><g class="cls-6"><g class="cls-4"><g class="cls-10"><g class="cls-11"><path class="cls-9" d="M166.33,164.6l-.36-.93-.33-.94L154,129.6l-11.69,33.13-.33.94-.36.93a13,13,0,0,0-.89,4.77,13.27,13.27,0,1,0,26.54,0,12.94,12.94,0,0,0-.89-4.77"/></g></g></g></g><g class="cls-6"><g class="cls-4"><g class="cls-12"><g class="cls-13"><path class="cls-9" d="M220.29,169.37a66.09,66.09,0,0,0-4.47-24l-.07-.18-.07-.19L179,41.06h0a26.53,26.53,0,0,0-50.09,0l-.49-.16.49.17L92.21,145l-.06.19-.07.18a66.35,66.35,0,1,0,128.21,24M154,222.5a53.14,53.14,0,0,1-49.5-72.29l.14-.37.14-.37,36.68-104,0,0a13.26,13.26,0,0,1,25,0l36.69,104,.14.37.14.37A53.14,53.14,0,0,1,154,222.5"/></g></g></g><path class="cls-9" d="M215.75,145.23l-.07-.19L179,41.06h0a26.53,26.53,0,0,0-50.09,0l-.49-.16.49.17L92.21,145l-.06.19-.07.18a66.34,66.34,0,1,0,123.74,0Z"/></g><g class="cls-6"><g class="cls-4"><g class="cls-5"><g class="cls-6"><path class="cls-9" d="M228.19,140.62l-36.68-104a39.79,39.79,0,0,0-75.12,0l-36.69,104a79.62,79.62,0,1,0,148.49,0M154,235.78a66.42,66.42,0,0,1-61.87-90.37l.07-.18.06-.19,36.69-104-.49-.17.49.16a26.53,26.53,0,0,1,50.09,0h0l36.68,104,.07.19.07.18A66.42,66.42,0,0,1,154,235.78"/></g></g></g></g><g class="cls-6"><g class="cls-4"><g class="cls-5"><g class="cls-6"><path class="cls-9" d="M228.19,140.62l-36.68-104a39.79,39.79,0,0,0-75.12,0l-36.69,104a79.62,79.62,0,1,0,148.49,0M154,235.78a66.42,66.42,0,0,1-61.87-90.37l.07-.18.06-.19,36.69-104-.49-.17.49.16a26.53,26.53,0,0,1,50.09,0h0l36.68,104,.07.19.07.18A66.42,66.42,0,0,1,154,235.78"/></g></g></g></g><g class="cls-6"><g class="cls-4"><g class="cls-14"><g class="cls-15"><path class="cls-9" d="M207,169.37a52.94,52.94,0,0,0-3.57-19.16l-.14-.37-.14-.37-36.69-104a13.26,13.26,0,0,0-25,0l0,0-36.68,104-.14.37-.14.37A53.08,53.08,0,1,0,207,169.37M154,49.84h0l0,0,0,0m0,159.38A39.82,39.82,0,0,1,116.83,155l.21-.56.2-.56,36.68-104H154l36.69,104,.2.56.22.56A39.87,39.87,0,0,1,154,209.22"/></g></g></g></g><g class="cls-6"><g class="cls-4"><g class="cls-16"><g class="cls-17"><path class="cls-9" d="M178.7,159.8l-.29-.74-.26-.75L154,89.72l-24.2,68.59-.27.75-.28.74a26.3,26.3,0,0,0-1.79,9.57,26.54,26.54,0,1,0,53.08,0,26.3,26.3,0,0,0-1.79-9.57M154,182.65a13.29,13.29,0,0,1-13.27-13.28,13,13,0,0,1,.89-4.77l.36-.93.33-.94L154,129.6l11.69,33.13.33.94.36.93a12.94,12.94,0,0,1,.89,4.77A13.3,13.3,0,0,1,154,182.65"/></g></g></g></g><g class="cls-6"><g class="cls-4"><g class="cls-14"><g class="cls-18"><path class="cls-9" d="M203.29,149.83l-.13-.38-36.69-104a13.26,13.26,0,0,0-25.05,0l0,0-36.69,104-.13.38-.14.37a53.07,53.07,0,1,0,99,0ZM154,49.83h0l0,0,0,0m0,159.37A39.84,39.84,0,0,1,116.81,155l.22-.56.19-.57,36.69-104H154l36.69,104,.2.57.21.56a39.84,39.84,0,0,1-37.12,54.2"/></g></g></g></g><g class="cls-6"><g class="cls-4"><g class="cls-16"><g class="cls-19"><path class="cls-9" d="M178.4,159.05l-.26-.75-24.2-68.59-24.2,68.59-.27.75-.28.74a26.3,26.3,0,0,0-1.79,9.57,26.54,26.54,0,1,0,51.29-9.57Zm-24.46,23.59a13.29,13.29,0,0,1-13.27-13.28,12.9,12.9,0,0,1,.89-4.77l.36-.93.33-.94,11.69-33.13,11.69,33.13.33.94.36.93a12.9,12.9,0,0,1,.89,4.77,13.3,13.3,0,0,1-13.27,13.28"/></g></g></g></g></g></g></g><g class="cls-2"><g class="cls-4"><g class="cls-20"><g class="cls-21"><path class="cls-22" d="M127.41,253.07a39.61,39.61,0,0,0-2.68-14.37l-.21-.56-.2-.56-36.68-104h-.06l-36.68,104-.2.56-.22.56a39.81,39.81,0,1,0,76.93,14.37m-39.8,26.56a26.59,26.59,0,0,1-26.54-26.56,26.22,26.22,0,0,1,1.79-9.57l.28-.74.27-.76,24.2-68.59L111.81,242l.26.76.29.74a26.21,26.21,0,0,1,1.78,9.57,26.58,26.58,0,0,1-26.53,26.56"/></g></g></g></g><g class="cls-2"><g class="cls-4"><g class="cls-23"><g class="cls-24"><path class="cls-22" d="M100,248.29l-.36-.92-.33-.94L87.61,213.29,75.92,246.43l-.33.94-.36.92a13,13,0,0,0-.89,4.78,13.27,13.27,0,1,0,26.54,0,13,13,0,0,0-.89-4.78"/></g></g></g></g><g class="cls-2"><g class="cls-4"><g class="cls-25"><g class="cls-26"><path class="cls-22" d="M154,253.07a66,66,0,0,0-4.47-24l-.07-.19-.07-.19-36.68-104h0a26.52,26.52,0,0,0-50.08,0l-.5-.17.49.18-36.69,104-.06.18-.07.19a66.35,66.35,0,1,0,128.21,24M87.61,306.19a53.14,53.14,0,0,1-49.5-72.29l.14-.37.13-.37,36.69-104,0,0a13.26,13.26,0,0,1,25,0l36.69,104,.13.37.15.37a53.14,53.14,0,0,1-49.5,72.29"/></g></g></g><path class="cls-22" d="M149.41,228.92l-.07-.19-36.68-104h0a26.52,26.52,0,0,0-50.08,0l-.5-.17.49.18-36.69,104-.06.18-.07.19a66.34,66.34,0,1,0,123.74,0Z"/></g><g class="cls-2"><g class="cls-4"><g class="cls-27"><g class="cls-28"><path class="cls-22" d="M161.85,224.31l-36.68-104a39.79,39.79,0,0,0-75.12,0l-36.69,104a79.62,79.62,0,1,0,148.49,0M87.61,319.47a66.41,66.41,0,0,1-61.87-90.36l.07-.19.06-.18,36.69-104-.49-.18.5.17a26.52,26.52,0,0,1,50.08,0h0l36.68,104,.07.19.07.19a66.41,66.41,0,0,1-61.87,90.36"/></g></g></g></g><g class="cls-2"><g class="cls-4"><g class="cls-27"><g class="cls-28"><path class="cls-22" d="M161.85,224.31l-36.68-104a39.79,39.79,0,0,0-75.12,0l-36.69,104a79.62,79.62,0,1,0,148.49,0M87.61,319.47a66.41,66.41,0,0,1-61.87-90.36l.07-.19.06-.18,36.69-104-.49-.18.5.17a26.52,26.52,0,0,1,50.08,0h0l36.68,104,.07.19.07.19a66.41,66.41,0,0,1-61.87,90.36"/></g></g></g></g><g class="cls-2"><g class="cls-4"><g class="cls-29"><g class="cls-30"><path class="cls-22" d="M140.68,253.07a53,53,0,0,0-3.57-19.17l-.15-.37-.13-.37-36.69-104a13.26,13.26,0,0,0-25,0l0,0-36.69,104-.13.37-.14.37a53.08,53.08,0,1,0,102.57,19.17M87.62,133.53h0l0,0,0,0m0,159.38A39.84,39.84,0,0,1,50.48,238.7l.22-.56.2-.56,36.68-104h.06l36.68,104,.2.56.21.56a39.84,39.84,0,0,1-37.12,54.21"/></g></g></g></g><g class="cls-2"><g class="cls-4"><g class="cls-31"><g class="cls-32"><path class="cls-22" d="M112.36,243.5l-.29-.74-.26-.76-24.2-68.59L63.41,242l-.27.76-.28.74a26.22,26.22,0,0,0-1.79,9.57,26.54,26.54,0,1,0,53.07,0,26.21,26.21,0,0,0-1.78-9.57M87.61,266.35a13.29,13.29,0,0,1-13.27-13.28,13,13,0,0,1,.89-4.78l.36-.92.33-.94,11.69-33.14L99.3,246.43l.33.94.36.92a13,13,0,0,1,.89,4.78,13.3,13.3,0,0,1-13.27,13.28"/></g></g></g></g><g class="cls-2"><g class="cls-4"><g class="cls-29"><g class="cls-33"><path class="cls-22" d="M137,233.52l-.13-.37-36.69-104a13.27,13.27,0,0,0-25.06,0v0l-36.69,104-.13.37-.14.37a53.07,53.07,0,1,0,99,0Zm-49.35-100h0l0,0,0,0m0,159.38a39.84,39.84,0,0,1-37.13-54.21l.22-.56.19-.56,36.69-104h.05l36.69,104,.2.56.21.56A39.84,39.84,0,0,1,87.6,292.9"/></g></g></g></g><g class="cls-2"><g class="cls-4"><g class="cls-31"><g class="cls-34"><path class="cls-22" d="M112.06,242.74l-.26-.75L87.6,173.4,63.39,242l-.26.75-.29.74a26.54,26.54,0,1,0,49.51,0ZM87.6,266.33a13.28,13.28,0,0,1-13.27-13.28,13,13,0,0,1,.89-4.77l.36-.93.32-.93,11.7-33.14,11.69,33.14.33.93.36.93a12.94,12.94,0,0,1,.89,4.77A13.29,13.29,0,0,1,87.6,266.33"/></g></g></g></g><g class="cls-2"><g class="cls-4"><g class="cls-35"><g class="cls-36"><path class="cls-22" d="M253.2,253.07a39.82,39.82,0,0,0-2.68-14.37l-.22-.56-.2-.56-36.68-104h0l-36.69,104-.2.56-.21.56a39.81,39.81,0,1,0,76.93,14.37m-39.81,26.56a26.59,26.59,0,0,1-26.54-26.56,26.22,26.22,0,0,1,1.79-9.57l.28-.74.27-.76,24.2-68.59L237.59,242l.27.76.28.74a26.22,26.22,0,0,1,1.79,9.57,26.59,26.59,0,0,1-26.54,26.56"/></g></g></g></g><g class="cls-2"><g class="cls-4"><g class="cls-37"><g class="cls-38"><path class="cls-22" d="M225.77,248.29l-.36-.92-.33-.94-11.69-33.14L201.7,246.43l-.33.94-.36.92a13,13,0,0,0-.89,4.78,13.27,13.27,0,1,0,26.54,0,13,13,0,0,0-.89-4.78"/></g></g></g></g><g class="cls-2"><g class="cls-4"><g class="cls-39"><g class="cls-40"><path class="cls-22" d="M279.73,253.07a66,66,0,0,0-4.47-24l-.07-.19-.06-.19-36.69-104h0a26.53,26.53,0,0,0-50.09,0l-.5-.17.49.18-36.69,104-.06.18-.07.19a66.35,66.35,0,1,0,128.21,24m-66.34,53.12a53.14,53.14,0,0,1-49.5-72.29l.15-.37.13-.37,36.68-104,0,0a13.27,13.27,0,0,1,25.06,0l36.69,104,.13.37.14.37a53.14,53.14,0,0,1-49.5,72.29"/></g></g></g><path class="cls-22" d="M275.19,228.92l-.06-.19-36.69-104h0a26.53,26.53,0,0,0-50.09,0l-.5-.17.49.18-36.68,104-.07.18-.07.19a66.34,66.34,0,1,0,123.74,0Z"/></g><g class="cls-2"><g class="cls-4"><g class="cls-41"><g class="cls-42"><path class="cls-22" d="M287.63,224.31,251,120.35a39.79,39.79,0,0,0-75.12,0l-36.68,104a79.61,79.61,0,1,0,148.48,0m-74.24,95.16a66.41,66.41,0,0,1-61.87-90.36l.07-.19.06-.18,36.69-104-.49-.18.5.17a26.53,26.53,0,0,1,50.09,0h0l36.69,104,.06.19.07.19a66.41,66.41,0,0,1-61.87,90.36"/></g></g></g></g><g class="cls-2"><g class="cls-4"><g class="cls-41"><g class="cls-42"><path class="cls-22" d="M287.63,224.31,251,120.35a39.79,39.79,0,0,0-75.12,0l-36.68,104a79.61,79.61,0,1,0,148.48,0m-74.24,95.16a66.41,66.41,0,0,1-61.87-90.36l.07-.19.06-.18,36.69-104-.49-.18.5.17a26.53,26.53,0,0,1,50.09,0h0l36.69,104,.06.19.07.19a66.41,66.41,0,0,1-61.87,90.36"/></g></g></g></g><g class="cls-2"><g class="cls-4"><g class="cls-43"><g class="cls-44"><path class="cls-22" d="M266.46,253.07a53,53,0,0,0-3.57-19.17l-.14-.37-.13-.37-36.69-104a13.27,13.27,0,0,0-25.06,0l0,0-36.68,104-.13.37-.15.37a53.08,53.08,0,1,0,102.57,19.17M213.4,133.53h0l0,0,0,0m0,159.38a39.84,39.84,0,0,1-37.12-54.21l.21-.56.2-.56,36.69-104h0l36.68,104,.2.56.22.56a39.84,39.84,0,0,1-37.13,54.21"/></g></g></g></g><g class="cls-2"><g class="cls-4"><g class="cls-45"><g class="cls-46"><path class="cls-22" d="M238.14,243.5l-.28-.74-.27-.76-24.2-68.59L189.19,242l-.27.76-.28.74a26.22,26.22,0,0,0-1.79,9.57,26.54,26.54,0,1,0,53.08,0,26.22,26.22,0,0,0-1.79-9.57m-24.75,22.85a13.29,13.29,0,0,1-13.27-13.28,13,13,0,0,1,.89-4.78l.36-.92.33-.94,11.69-33.14,11.69,33.14.33.94.36.92a13,13,0,0,1,.89,4.78,13.29,13.29,0,0,1-13.27,13.28"/></g></g></g></g><g class="cls-2"><g class="cls-4"><g class="cls-43"><g class="cls-47"><path class="cls-22" d="M262.73,233.52l-.13-.37-36.69-104a13.26,13.26,0,0,0-25,0l0,0-36.68,104-.14.37-.14.37a53.07,53.07,0,1,0,99,0Zm-49.34-100h0l0,0s0,0,0,0m0,159.38a39.87,39.87,0,0,1-37.13-54.21l.22-.56.19-.56,36.69-104h.05l36.69,104,.2.56.21.56a39.84,39.84,0,0,1-37.12,54.21"/></g></g></g></g><g class="cls-2"><g class="cls-4"><g class="cls-45"><g class="cls-48"><path class="cls-22" d="M237.84,242.74l-.26-.75-24.2-68.59L189.18,242l-.27.75-.28.74a26.3,26.3,0,0,0-1.79,9.57,26.54,26.54,0,1,0,51.29-9.57Zm-24.46,23.59a13.28,13.28,0,0,1-13.27-13.28,13,13,0,0,1,.89-4.77l.36-.93.33-.93,11.69-33.14,11.69,33.14.33.93.36.93a12.94,12.94,0,0,1,.89,4.77,13.29,13.29,0,0,1-13.27,13.28"/></g></g></g></g><g class="cls-2"><g class="cls-4"><g class="cls-49"><g class="cls-50"><path class="cls-9" d="M193.75,310.31A39.79,39.79,0,0,0,191.08,296l-.22-.56-.2-.56L154,190.85h-.05l-36.68,104-.2.56-.21.56a39.81,39.81,0,1,0,76.92,14.36M154,336.88a26.59,26.59,0,0,1-26.54-26.57,26.3,26.3,0,0,1,1.79-9.57l.28-.74.27-.75L154,230.66l24.2,68.59.26.75.29.74a26.3,26.3,0,0,1,1.79,9.57A26.59,26.59,0,0,1,154,336.88"/></g></g></g></g><g class="cls-2"><g class="cls-4"><g class="cls-51"><g class="cls-52"><path class="cls-9" d="M166.33,305.54l-.36-.93-.33-.94L154,270.54l-11.69,33.14-.33.93-.36.93a13,13,0,0,0-.89,4.77,13.27,13.27,0,1,0,26.54,0,12.94,12.94,0,0,0-.89-4.77"/></g></g></g></g><g class="cls-2"><g class="cls-4"><g class="cls-53"><g class="cls-54"><path class="cls-9" d="M220.29,310.31a66.09,66.09,0,0,0-4.47-24l-.07-.18-.07-.19L179,182h0a26.53,26.53,0,0,0-50.09,0l-.49-.16.49.17L92.21,286l-.06.19-.07.18a66.35,66.35,0,1,0,128.21,24M154,363.44a53.14,53.14,0,0,1-49.5-72.29l.14-.37.14-.37,36.68-104,0,0a13.26,13.26,0,0,1,25,0l36.69,104,.14.37.14.37A53.14,53.14,0,0,1,154,363.44"/></g></g></g><path class="cls-9" d="M215.75,286.17l-.07-.19L179,182h0a26.53,26.53,0,0,0-50.09,0l-.49-.16.49.17L92.21,286l-.06.19-.07.19a66.34,66.34,0,1,0,123.74,0Z"/></g><g class="cls-2"><g class="cls-4"><g class="cls-55"><g class="cls-56"><path class="cls-9" d="M228.19,281.56l-36.68-104a39.79,39.79,0,0,0-75.12,0l-36.69,104a79.62,79.62,0,1,0,148.49,0M154,376.72a66.42,66.42,0,0,1-61.87-90.37l.07-.18.06-.19L128.9,182l-.49-.17.49.16A26.53,26.53,0,0,1,179,182h0l36.68,104,.07.19.07.18A66.42,66.42,0,0,1,154,376.72"/></g></g></g></g><g class="cls-2"><g class="cls-4"><g class="cls-55"><g class="cls-56"><path class="cls-9" d="M228.19,281.56l-36.68-104a39.79,39.79,0,0,0-75.12,0l-36.69,104a79.62,79.62,0,1,0,148.49,0M154,376.72a66.42,66.42,0,0,1-61.87-90.37l.07-.18.06-.19L128.9,182l-.49-.17.49.16A26.53,26.53,0,0,1,179,182h0l36.68,104,.07.19.07.18A66.42,66.42,0,0,1,154,376.72"/></g></g></g></g><g class="cls-2"><g class="cls-4"><g class="cls-57"><g class="cls-58"><path class="cls-9" d="M207,310.31a52.94,52.94,0,0,0-3.57-19.16l-.14-.37-.14-.38-36.69-104a13.26,13.26,0,0,0-25,0l0,0-36.68,104-.14.38-.14.37A53.08,53.08,0,1,0,207,310.31M154,190.78h0l0,0,0,0m0,159.38A39.82,39.82,0,0,1,116.83,296l.21-.56.2-.56,36.68-104H154l36.69,104,.2.56.22.56A39.87,39.87,0,0,1,154,350.16"/></g></g></g></g><g class="cls-2"><g class="cls-4"><g class="cls-59"><g class="cls-60"><path class="cls-9" d="M178.7,300.74l-.29-.74-.26-.75L154,230.66l-24.2,68.59-.27.75-.28.74a26.3,26.3,0,0,0-1.79,9.57,26.54,26.54,0,1,0,53.08,0,26.3,26.3,0,0,0-1.79-9.57M154,323.6a13.29,13.29,0,0,1-13.27-13.29,13,13,0,0,1,.89-4.77l.36-.93.33-.93L154,270.54l11.69,33.13.33.94.36.93a12.94,12.94,0,0,1,.89,4.77A13.3,13.3,0,0,1,154,323.6"/></g></g></g></g><g class="cls-2"><g class="cls-4"><g class="cls-57"><g class="cls-61"><path class="cls-9" d="M203.29,290.77l-.13-.38-36.69-104a13.26,13.26,0,0,0-25.05,0l0,0-36.69,104-.13.38-.14.37a53.07,53.07,0,1,0,99,0ZM154,190.77h0l0,0,0,0m0,159.37a39.84,39.84,0,0,1-37.13-54.2l.22-.56.19-.56,36.69-104H154l36.69,104,.2.56.21.56a39.84,39.84,0,0,1-37.12,54.2"/></g></g></g></g><g class="cls-2"><g class="cls-4"><g class="cls-59"><g class="cls-62"><path class="cls-9" d="M178.4,300l-.26-.75-24.2-68.59-24.2,68.59-.27.75-.28.74a26.3,26.3,0,0,0-1.79,9.57,26.54,26.54,0,1,0,51.29-9.57Zm-24.46,23.59a13.29,13.29,0,0,1-13.27-13.28,12.9,12.9,0,0,1,.89-4.77l.36-.93.33-.94,11.69-33.13,11.69,33.13.33.94.36.93a12.9,12.9,0,0,1,.89,4.77,13.3,13.3,0,0,1-13.27,13.28"/></g></g></g></g></g></g></g></svg>