<?xml version="1.0" encoding="utf-8"?>
<!-- Generator: Adobe Illustrator 22.0.1, SVG Export Plug-In . SVG Version: 6.00 Build 0)  -->
<svg version="1.1" id="Layer_1" xmlns="http://www.w3.org/2000/svg" xmlns:xlink="http://www.w3.org/1999/xlink" x="0px" y="0px"
	 viewBox="0 0 385 418" style="enable-background:new 0 0 385 418;" xml:space="preserve">
<style type="text/css">
	.st0{clip-path:url(#SVGID_2_);fill:#67A778;}
	.st1{clip-path:url(#SVGID_2_);fill:#6AB834;}
	.st2{clip-path:url(#SVGID_2_);fill:#AED689;}
	.st3{clip-path:url(#SVGID_2_);fill:#007530;}
	.st4{clip-path:url(#SVGID_2_);}
</style>
<g>
	<defs>
		<rect id="SVGID_1_" x="10" y="7" width="371" height="404"/>
	</defs>
	<clipPath id="SVGID_2_">
		<use xlink:href="#SVGID_1_"  style="overflow:visible;"/>
	</clipPath>
	<path class="st0" d="M193.6,148.4l-1.1-0.5l-1.1-0.5l-39.9-19.1l19.1,39.9l0.5,1.1l0.5,1.1c0.8,1.9,2,3.6,3.5,5
		c6.5,6.5,17.1,6.5,23.6,0c6.5-6.5,6.5-17.1,0-23.7C197.1,150.4,195.5,149.3,193.6,148.4"/>
	<path class="st1" d="M222.3,128.2c-4.4-4.4-9.5-7.9-15.2-10.4l-0.7-0.3l-0.7-0.3L80.6,57.2l-0.1,0l59.8,125.4l0.3,0.7l0.3,0.7
		c2.5,5.7,6,10.8,10.4,15.2c19.5,19.6,51.3,19.6,70.9,0C241.8,179.6,241.8,147.8,222.3,128.2 M210.5,187.4
		c-13,13.1-34.2,13.1-47.3,0c-2.9-2.9-5.3-6.3-6.9-10.1l-0.4-0.9l-0.4-0.9l-39.5-82.7l82.6,39.5l0.9,0.4l0.9,0.4
		c3.8,1.7,7.2,4,10.1,6.9C223.5,153.1,223.5,174.3,210.5,187.4"/>
	<path class="st2" d="M245.9,104.5c-7.3-7.3-15.8-13.2-25.3-17.4l-0.2-0.1l-0.2-0.1L95,27l0,0c-12.8-6.2-28.1-3.5-38.1,6.5
		c-10,10-12.6,25.4-6.5,38.2L49.8,72l0.6-0.3l59.8,125.4l0.1,0.2l0.1,0.2c4.2,9.5,10,18,17.3,25.3c32.6,32.6,85.6,32.6,118.2,0
		C278.5,190.2,278.5,137.2,245.9,104.5 M234.1,211c-26.1,26.1-68.5,26.1-94.5,0c-5.9-5.9-10.5-12.7-13.9-20.3l-0.2-0.5l-0.2-0.5
		L65.4,64.5l0,0c-2.6-5.3-2.5-13.3,3.2-19.1c5.8-5.8,13.8-5.8,19.1-3.2l125.2,59.9l0.5,0.2l0.5,0.2c7.6,3.4,14.4,8,20.2,13.9
		C260.2,142.5,260.2,184.9,234.1,211"/>
	<path class="st1" d="M257.7,92.7c-9-9-19.4-16-30.4-20.8L102.2,11.9c0,0,0,0,0,0C83.5,3,60.5,6.2,45,21.7
		C29.6,37.2,26.3,60.3,35.3,79v0l59.8,125.4c4.9,11,11.8,21.4,20.8,30.4c39.2,39.2,102.6,39.2,141.8,0
		C296.9,195.5,296.9,131.9,257.7,92.7 M245.9,222.9c-32.6,32.6-85.6,32.6-118.2,0c-7.3-7.3-13.2-15.9-17.3-25.3l-0.1-0.2l-0.1-0.2
		L50.4,71.7L49.8,72l0.6-0.3c-6.1-12.8-3.5-28.1,6.5-38.2c10-10,25.3-12.6,38.1-6.5l0,0L220.1,87l0.2,0.1l0.2,0.1
		c9.5,4.2,18,10,25.3,17.4C278.5,137.2,278.5,190.2,245.9,222.9"/>
	<path class="st3" d="M234.1,116.4c-5.9-5.9-12.7-10.5-20.2-13.9l-0.5-0.2l-0.4-0.2L87.8,42.1c-5.3-2.6-13.3-2.6-19.1,3.2
		c-5.8,5.8-5.8,13.8-3.2,19.1l0,0l59.8,125.4l0.2,0.5l0.2,0.5c3.3,7.6,8,14.4,13.9,20.3c26.1,26.1,68.5,26.1,94.5,0
		C260.1,184.9,260.1,142.5,234.1,116.4 M80.5,57.2L80.5,57.2L80.5,57.2C80.5,57.2,80.5,57.2,80.5,57.2L80.5,57.2L80.5,57.2
		L80.5,57.2z M222.3,199.2c-19.6,19.6-51.4,19.6-70.9,0c-4.4-4.4-7.9-9.5-10.4-15.2l-0.3-0.7l-0.3-0.7L80.5,57.3l0.1,0l125.2,59.9
		l0.7,0.3l0.7,0.3c5.7,2.5,10.8,6,15.2,10.4C241.8,147.8,241.8,179.6,222.3,199.2"/>
	<path class="st3" d="M200.4,133.1l-0.9-0.4l-0.9-0.4l-82.6-39.5l39.5,82.7l0.4,0.9l0.4,0.9c1.7,3.8,4,7.2,6.9,10.1
		c13,13.1,34.2,13.1,47.3,0c13-13,13-34.3,0-47.3C207.5,137.1,204.1,134.8,200.4,133.1 M198.6,175.5c-6.5,6.5-17.1,6.5-23.6,0
		c-1.5-1.5-2.6-3.1-3.4-5l-0.5-1.1l-0.5-1.1l-19.1-40l39.9,19.1l1.1,0.5l1.1,0.5c1.9,0.8,3.6,2,5,3.5
		C205.1,158.4,205.1,169,198.6,175.5"/>
	<path class="st4" d="M37.8,338.9H25.3L10,294.4h13.8l3.2,12c1.5,5.5,3.7,14.6,4.5,18.8c0.8-4.3,3-13.2,4.5-18.8l3.2-12h13.7
		L37.8,338.9z"/>
	<path class="st4" d="M80.6,325.5H61c0.4,3.7,2.5,5.3,5.7,5.3c2.9,0,5.3-0.6,8.6-2.4l4.4,7.3c-4.1,2.4-8.4,3.8-13.6,3.8
		c-10,0-15.6-7.1-15.6-17.4c0-11.5,6.5-17.4,15.2-17.4c9.1,0,14.9,6,14.9,18.4C80.6,324.2,80.6,324.9,80.6,325.5 M65.4,313.3
		c-2.6,0-4.1,1.8-4.4,5.1h9.5C70,315,68.8,313.3,65.4,313.3"/>
	<path class="st4" d="M106.1,318.1c-1.5-1.6-3.1-2.8-5.3-2.8c-2.8,0-4.5,1.3-4.5,5.4v18.2H84.8v-33.4h11.4v2.4
		c2-1.9,4.2-3.1,7.1-3.1c2.4,0,4.1,0.6,5.4,1.4L106.1,318.1z"/>
	<path class="st4" d="M128.5,338.9v-2.3c-2.2,1.8-4.4,3-7.9,3c-6.2,0-11-4.9-11-17.3c0-12,4.3-17.5,11.5-17.5c3.4,0,5.6,1.5,7.4,2.9
		v-10.6l11.5-4.6v46.4H128.5z M128.5,315.8c-1.1-1-2.3-1.6-4.1-1.6c-2.3,0-3.6,1.5-3.6,7.7c0,6.7,1.3,8.3,3.7,8.3
		c1.6,0,2.9-0.6,4-1.6V315.8z"/>
	<path class="st4" d="M174.2,325.5h-19.6c0.4,3.7,2.5,5.3,5.7,5.3c2.9,0,5.3-0.6,8.6-2.4l4.4,7.3c-4.1,2.4-8.4,3.8-13.6,3.8
		c-10,0-15.6-7.1-15.6-17.4c0-11.5,6.5-17.4,15.2-17.4c9.1,0,14.9,6,14.9,18.4C174.3,324.2,174.3,324.9,174.2,325.5 M159.1,313.3
		c-2.6,0-4.1,1.8-4.4,5.1h9.5C163.6,315,162.4,313.3,159.1,313.3"/>
	<path class="st4" d="M190.9,339.6c-4.9,0-9.7-1.1-13.9-2.7l2.7-8.6c4,1.8,8.6,2.9,11.5,2.9c2.2,0,3.1-0.5,3.1-1.5
		c0-1.1-0.5-1.5-2.7-2.1c-10.3-2.7-13.8-4.8-13.8-11.8c0-6.9,4.5-10.9,13.6-10.9c5,0,8.4,0.8,12.8,2.4l-2.5,8.8
		c-4.4-1.9-7.7-2.8-10.6-2.8c-2.2,0-2.8,0.5-2.8,1.5c0,1,0.4,1.4,3.3,2.3c9.4,2.5,13.2,4.7,13.2,11.3
		C204.7,336.1,199.4,339.6,190.9,339.6"/>
	<path class="st4" d="M239.1,338.9l-2.4-7.8h-13.3l-2.4,7.8h-13.2l16.1-44.5h12.4l16.1,44.5H239.1z M232.9,318.4
		c-1.6-5.7-2.3-8.1-2.9-11.1c-0.6,3-1.3,5.5-2.9,11.1l-0.8,2.9h7.4L232.9,318.4z"/>
	<path class="st4" d="M262.3,303.1c-3.7,0-6.5-2.2-6.5-5.7c0-3.2,2.8-5.5,6.5-5.5c3.9,0,6.7,2.3,6.7,5.5
		C269,300.9,266.2,303.1,262.3,303.1 M256.6,305.5H268v33.4h-11.4V305.5z"/>
	<path class="st4" d="M295.1,318.1c-1.5-1.6-3.1-2.8-5.3-2.8c-2.8,0-4.5,1.3-4.5,5.4v18.2h-11.4v-33.4h11.4v2.4
		c2-1.9,4.2-3.1,7.1-3.1c2.4,0,4.1,0.6,5.4,1.4L295.1,318.1z"/>
	<path class="st4" d="M328.5,325.5h-19.6c0.4,3.7,2.5,5.3,5.7,5.3c2.9,0,5.3-0.6,8.6-2.4l4.4,7.3c-4.1,2.4-8.4,3.8-13.6,3.8
		c-10,0-15.6-7.1-15.6-17.4c0-11.5,6.5-17.4,15.2-17.4c9.1,0,14.9,6,14.9,18.4C328.6,324.2,328.6,324.9,328.5,325.5 M313.4,313.3
		c-2.6,0-4.1,1.8-4.5,5.1h9.5C317.9,315,316.7,313.3,313.4,313.3"/>
	<path class="st4" d="M345.2,339.6c-4.9,0-9.7-1.1-13.9-2.7l2.7-8.6c4,1.8,8.6,2.9,11.5,2.9c2.2,0,3-0.5,3-1.5
		c0-1.1-0.5-1.5-2.7-2.1c-10.3-2.7-13.8-4.8-13.8-11.8c0-6.9,4.5-10.9,13.6-10.9c5,0,8.4,0.8,12.8,2.4l-2.5,8.8
		c-4.4-1.9-7.7-2.8-10.6-2.8c-2.2,0-2.8,0.5-2.8,1.5c0,1,0.4,1.4,3.3,2.3c9.4,2.5,13.2,4.7,13.2,11.3
		C359,336.1,353.7,339.6,345.2,339.6"/>
	<path class="st4" d="M373.6,311.5c-4.2,0-7.4-3.2-7.4-7.4c0-4.2,3.2-7.4,7.4-7.4c4.2,0,7.4,3.2,7.4,7.4
		C381,308.3,377.8,311.5,373.6,311.5 M373.6,298.2c-3.4,0-5.9,2.4-5.9,6c0,3.6,2.5,6,5.9,6c3.4,0,5.9-2.4,5.9-6
		C379.5,300.5,377,298.2,373.6,298.2 M374.9,308l-1.3-2.7h-0.9v2.7h-2.2v-8.1h3.6c1.9,0,3.1,0.7,3.1,2.6c0,1.2-0.6,2-1.5,2.4
		l1.6,3.1H374.9z M374,301.7h-1.4v1.8h1.3c0.7,0,1-0.3,1-0.9C375,302.1,374.7,301.7,374,301.7"/>
	<path class="st4" d="M106.2,399.1h-7.1v11.4h-3.2v-29.1h10.9c5.3,0,9.3,2.8,9.3,8.7C116,395.9,112,399.1,106.2,399.1 M106.7,384.4
		h-7.5v11.8h7.1c4.4,0,6.6-2,6.6-5.9C112.8,386.5,110.6,384.4,106.7,384.4"/>
	<path class="st4" d="M123,384.8c-1.3,0-2.3-1-2.3-2.2c0-1.2,1-2.2,2.3-2.2c1.2,0,2.2,1,2.2,2.2C125.2,383.8,124.2,384.8,123,384.8
		 M121.4,388.7h3.1v21.8h-3.1V388.7z"/>
	<path class="st4" d="M148.1,400.7h-14.5c0.3,4.7,2.5,7.6,6.1,7.6c2.5,0,4-0.8,6-2.1l1.5,2.2c-2.6,1.7-4.5,2.5-7.8,2.5
		c-4,0-8.8-2.9-8.8-11.5c0-6.9,3.8-11.3,9-11.3c5.7,0,8.8,4.5,8.8,10.7C148.2,399.7,148.2,400.2,148.1,400.7 M139.4,391
		c-3.2,0-5.5,2.3-5.9,7.2h11.8C145.1,393.9,143.2,391,139.4,391"/>
	<path class="st4" d="M167.7,410.5v-12.8c0-4.7-1.7-6.8-5.2-6.8c-3,0-5.4,2-5.4,6.8v12.8H154v-21.8h3.1v2.7c1.3-1.8,3.3-3.1,6-3.1
		c4.6,0,7.6,2.7,7.6,9v13.3H167.7z"/>
	<path class="st4" d="M183.6,411c-3,0-5.6-1.1-7.7-2.8l1.8-2.3c1.7,1.5,3.8,2.4,5.9,2.4c3,0,4.4-1.2,4.4-3.4c0-1.8-1.3-2.8-5.2-4.5
		c-4.4-1.9-6.2-3.2-6.2-6.7c0-3.3,2.9-5.6,6.8-5.6c3,0,5.3,1,7,2.3l-1.7,2.3c-1.7-1.3-3.1-2-5.4-2c-2.3,0-3.6,1.1-3.6,2.7
		c0,1.8,1.1,2.6,4.8,4.2c4.1,1.9,6.5,3.1,6.5,7C191.1,409.1,187.4,411,183.6,411"/>
	<path class="st4" d="M209.3,410.5v-2.7c-1.5,1.7-3.7,3.1-6.8,3.1c-3.4,0-7-1.7-7-7c0-4.9,4-7,8.4-7c2.2,0,4.1,0.5,5.4,1.3v-2.6
		c0-3.2-1.5-4.8-4.7-4.8c-2.3,0-4.2,0.6-5.9,1.7l-1.2-2.5c1.9-1,4.5-1.7,7.3-1.7c4.7,0,7.6,2,7.6,7.1v15.2H209.3z M209.3,400.8
		c-1.4-0.8-3-1.2-5.6-1.2c-3.2,0-5.1,1.5-5.1,4.3c0,3.2,1.8,4.7,4.4,4.7c2.8,0,4.9-1.5,6.3-3.3V400.8z"/>
	<polygon class="st4" points="219.5,410.5 219.5,381.4 237.1,381.4 237.1,384.4 222.8,384.4 222.8,393.5 231.1,393.5 231.1,396.5 
		222.8,396.5 222.8,407.6 237.7,407.6 237.7,410.5 	"/>
	<path class="st4" d="M255.9,393.2c-1.6-1.4-3-2.2-5.2-2.2c-3.4,0-6,3.1-6,8.5c0,5.4,2.3,8.8,6.2,8.8c2.1,0,3.5-0.9,5-2.3l1.9,2
		c-1.8,1.9-3.9,3-7,3c-4.8,0-9.2-3.7-9.2-11.3c0-8.1,4.8-11.5,9.4-11.5c2.9,0,5.2,1.1,6.9,2.6L255.9,393.2z"/>
	<path class="st4" d="M270.8,411c-5.3,0-9.4-4-9.4-11.4c0-7.4,4.2-11.4,9.5-11.4c5.3,0,9.4,3.8,9.4,11.2
		C280.3,406.9,276.1,411,270.8,411 M270.8,391c-3.8,0-6.3,2.9-6.3,8.6c0,5.7,2.5,8.7,6.3,8.7c3.8,0,6.4-3,6.4-8.7
		C277.2,393.8,274.6,391,270.8,391"/>
</g>
</svg>
