<?xml version="1.0" encoding="utf-8"?>
<!-- Generator: Adobe Illustrator 22.0.1, SVG Export Plug-In . SVG Version: 6.00 Build 0)  -->
<svg version="1.1" id="Layer_1" xmlns="http://www.w3.org/2000/svg" xmlns:xlink="http://www.w3.org/1999/xlink" x="0px" y="0px"
	 viewBox="0 0 385 352" style="enable-background:new 0 0 385 352;" xml:space="preserve">
<style type="text/css">
	.st0{fill:#67A778;}
	.st1{fill:#6AB834;}
	.st2{fill:#AED689;}
	.st3{fill:#007530;}
</style>
<g>
	<g>
		<path class="st0" d="M193.6,148.4l-1.1-0.5l-1.1-0.5l-39.9-19.1l19.1,39.9l0.5,1.1l0.5,1.1c0.8,1.9,2,3.6,3.5,5
			c6.5,6.5,17.1,6.5,23.6,0s6.5-17.1,0-23.7C197.1,150.4,195.5,149.3,193.6,148.4"/>
	</g>
	<g>
		<path class="st1" d="M222.3,128.2c-4.4-4.4-9.5-7.9-15.2-10.4l-0.7-0.3l-0.7-0.3l-125.1-60h-0.1l59.8,125.4l0.3,0.7l0.3,0.7
			c2.5,5.7,6,10.8,10.4,15.2c19.5,19.6,51.3,19.6,70.9,0S241.8,147.8,222.3,128.2 M210.5,187.4c-13,13.1-34.2,13.1-47.3,0
			c-2.9-2.9-5.3-6.3-6.9-10.1l-0.4-0.9l-0.4-0.9L116,92.8l82.6,39.5l0.9,0.4l0.9,0.4c3.8,1.7,7.2,4,10.1,6.9
			C223.5,153.1,223.5,174.3,210.5,187.4"/>
	</g>
	<g>
		<path class="st2" d="M245.9,104.5c-7.3-7.3-15.8-13.2-25.3-17.4l-0.2-0.1l-0.2-0.1L95,27l0,0c-12.8-6.2-28.1-3.5-38.1,6.5
			s-12.6,25.4-6.5,38.2L49.8,72l0.6-0.3l59.8,125.4l0.1,0.2l0.1,0.2c4.2,9.5,10,18,17.3,25.3c32.6,32.6,85.6,32.6,118.2,0
			S278.5,137.2,245.9,104.5 M234.1,211c-26.1,26.1-68.5,26.1-94.5,0c-5.9-5.9-10.5-12.7-13.9-20.3l-0.2-0.5l-0.2-0.5L65.4,64.5l0,0
			c-2.6-5.3-2.5-13.3,3.2-19.1c5.8-5.8,13.8-5.8,19.1-3.2l125.2,59.9l0.5,0.2l0.5,0.2c7.6,3.4,14.4,8,20.2,13.9
			C260.2,142.5,260.2,184.9,234.1,211"/>
	</g>
	<g>
		<path class="st1" d="M257.7,92.7c-9-9-19.4-16-30.4-20.8l-125.1-60l0,0C83.5,3,60.5,6.2,45,21.7C29.6,37.2,26.3,60.3,35.3,79l0,0
			l59.8,125.4c4.9,11,11.8,21.4,20.8,30.4c39.2,39.2,102.6,39.2,141.8,0C296.9,195.5,296.9,131.9,257.7,92.7 M245.9,222.9
			c-32.6,32.6-85.6,32.6-118.2,0c-7.3-7.3-13.2-15.9-17.3-25.3l-0.1-0.2l-0.1-0.2L50.4,71.7L49.8,72l0.6-0.3
			c-6.1-12.8-3.5-28.1,6.5-38.2c10-10,25.3-12.6,38.1-6.5l0,0l125.1,60l0.2,0.1l0.2,0.1c9.5,4.2,18,10,25.3,17.4
			C278.5,137.2,278.5,190.2,245.9,222.9"/>
	</g>
	<g>
		<path class="st3" d="M234.1,116.4c-5.9-5.9-12.7-10.5-20.2-13.9l-0.5-0.2l-0.4-0.2l-125.2-60c-5.3-2.6-13.3-2.6-19.1,3.2
			s-5.8,13.8-3.2,19.1l0,0l59.8,125.4l0.2,0.5l0.2,0.5c3.3,7.6,8,14.4,13.9,20.3c26.1,26.1,68.5,26.1,94.5,0
			C260.1,184.9,260.1,142.5,234.1,116.4 M80.5,57.2L80.5,57.2L80.5,57.2L80.5,57.2L80.5,57.2L80.5,57.2L80.5,57.2z M222.3,199.2
			c-19.6,19.6-51.4,19.6-70.9,0c-4.4-4.4-7.9-9.5-10.4-15.2l-0.3-0.7l-0.3-0.7L80.5,57.3h0.1l125.2,59.9l0.7,0.3l0.7,0.3
			c5.7,2.5,10.8,6,15.2,10.4C241.8,147.8,241.8,179.6,222.3,199.2"/>
	</g>
	<g>
		<path class="st3" d="M200.4,133.1l-0.9-0.4l-0.9-0.4L116,92.8l39.5,82.7l0.4,0.9l0.4,0.9c1.7,3.8,4,7.2,6.9,10.1
			c13,13.1,34.2,13.1,47.3,0c13-13,13-34.3,0-47.3C207.5,137.1,204.1,134.8,200.4,133.1 M198.6,175.5c-6.5,6.5-17.1,6.5-23.6,0
			c-1.5-1.5-2.6-3.1-3.4-5l-0.5-1.1l-0.5-1.1l-19.1-40l39.9,19.1l1.1,0.5l1.1,0.5c1.9,0.8,3.6,2,5,3.5
			C205.1,158.4,205.1,169,198.6,175.5"/>
	</g>
	<g>
		<path d="M37.8,338.9H25.3L10,294.4h13.8l3.2,12c1.5,5.5,3.7,14.6,4.5,18.8c0.8-4.3,3-13.2,4.5-18.8l3.2-12h13.7L37.8,338.9z"/>
	</g>
	<g>
		<path d="M80.6,325.5H61c0.4,3.7,2.5,5.3,5.7,5.3c2.9,0,5.3-0.6,8.6-2.4l4.4,7.3c-4.1,2.4-8.4,3.8-13.6,3.8
			c-10,0-15.6-7.1-15.6-17.4c0-11.5,6.5-17.4,15.2-17.4c9.1,0,14.9,6,14.9,18.4C80.6,324.2,80.6,324.9,80.6,325.5 M65.4,313.3
			c-2.6,0-4.1,1.8-4.4,5.1h9.5C70,315,68.8,313.3,65.4,313.3"/>
	</g>
	<g>
		<path d="M106.1,318.1c-1.5-1.6-3.1-2.8-5.3-2.8c-2.8,0-4.5,1.3-4.5,5.4v18.2H84.8v-33.4h11.4v2.4c2-1.9,4.2-3.1,7.1-3.1
			c2.4,0,4.1,0.6,5.4,1.4L106.1,318.1z"/>
	</g>
	<g>
		<path d="M128.5,338.9v-2.3c-2.2,1.8-4.4,3-7.9,3c-6.2,0-11-4.9-11-17.3c0-12,4.3-17.5,11.5-17.5c3.4,0,5.6,1.5,7.4,2.9v-10.6
			l11.5-4.6v46.4H128.5z M128.5,315.8c-1.1-1-2.3-1.6-4.1-1.6c-2.3,0-3.6,1.5-3.6,7.7c0,6.7,1.3,8.3,3.7,8.3c1.6,0,2.9-0.6,4-1.6
			V315.8z"/>
	</g>
	<g>
		<path d="M174.2,325.5h-19.6c0.4,3.7,2.5,5.3,5.7,5.3c2.9,0,5.3-0.6,8.6-2.4l4.4,7.3c-4.1,2.4-8.4,3.8-13.6,3.8
			c-10,0-15.6-7.1-15.6-17.4c0-11.5,6.5-17.4,15.2-17.4c9.1,0,14.9,6,14.9,18.4C174.3,324.2,174.3,324.9,174.2,325.5 M159.1,313.3
			c-2.6,0-4.1,1.8-4.4,5.1h9.5C163.6,315,162.4,313.3,159.1,313.3"/>
	</g>
	<g>
		<path d="M190.9,339.6c-4.9,0-9.7-1.1-13.9-2.7l2.7-8.6c4,1.8,8.6,2.9,11.5,2.9c2.2,0,3.1-0.5,3.1-1.5c0-1.1-0.5-1.5-2.7-2.1
			c-10.3-2.7-13.8-4.8-13.8-11.8c0-6.9,4.5-10.9,13.6-10.9c5,0,8.4,0.8,12.8,2.4l-2.5,8.8c-4.4-1.9-7.7-2.8-10.6-2.8
			c-2.2,0-2.8,0.5-2.8,1.5s0.4,1.4,3.3,2.3c9.4,2.5,13.2,4.7,13.2,11.3C204.7,336.1,199.4,339.6,190.9,339.6"/>
	</g>
	<g>
		<path d="M239.1,338.9l-2.4-7.8h-13.3l-2.4,7.8h-13.2l16.1-44.5h12.4l16.1,44.5H239.1z M232.9,318.4c-1.6-5.7-2.3-8.1-2.9-11.1
			c-0.6,3-1.3,5.5-2.9,11.1l-0.8,2.9h7.4L232.9,318.4z"/>
	</g>
	<g>
		<path d="M262.3,303.1c-3.7,0-6.5-2.2-6.5-5.7c0-3.2,2.8-5.5,6.5-5.5c3.9,0,6.7,2.3,6.7,5.5C269,300.9,266.2,303.1,262.3,303.1
			 M256.6,305.5H268v33.4h-11.4V305.5z"/>
	</g>
	<g>
		<path d="M295.1,318.1c-1.5-1.6-3.1-2.8-5.3-2.8c-2.8,0-4.5,1.3-4.5,5.4v18.2h-11.4v-33.4h11.4v2.4c2-1.9,4.2-3.1,7.1-3.1
			c2.4,0,4.1,0.6,5.4,1.4L295.1,318.1z"/>
	</g>
	<g>
		<path d="M328.5,325.5h-19.6c0.4,3.7,2.5,5.3,5.7,5.3c2.9,0,5.3-0.6,8.6-2.4l4.4,7.3c-4.1,2.4-8.4,3.8-13.6,3.8
			c-10,0-15.6-7.1-15.6-17.4c0-11.5,6.5-17.4,15.2-17.4c9.1,0,14.9,6,14.9,18.4C328.6,324.2,328.6,324.9,328.5,325.5 M313.4,313.3
			c-2.6,0-4.1,1.8-4.5,5.1h9.5C317.9,315,316.7,313.3,313.4,313.3"/>
	</g>
	<g>
		<path d="M345.2,339.6c-4.9,0-9.7-1.1-13.9-2.7l2.7-8.6c4,1.8,8.6,2.9,11.5,2.9c2.2,0,3-0.5,3-1.5c0-1.1-0.5-1.5-2.7-2.1
			c-10.3-2.7-13.8-4.8-13.8-11.8c0-6.9,4.5-10.9,13.6-10.9c5,0,8.4,0.8,12.8,2.4l-2.5,8.8c-4.4-1.9-7.7-2.8-10.6-2.8
			c-2.2,0-2.8,0.5-2.8,1.5s0.4,1.4,3.3,2.3c9.4,2.5,13.2,4.7,13.2,11.3C359,336.1,353.7,339.6,345.2,339.6"/>
	</g>
	<g>
		<path d="M373.6,311.5c-4.2,0-7.4-3.2-7.4-7.4c0-4.2,3.2-7.4,7.4-7.4c4.2,0,7.4,3.2,7.4,7.4S377.8,311.5,373.6,311.5 M373.6,298.2
			c-3.4,0-5.9,2.4-5.9,6s2.5,6,5.9,6s5.9-2.4,5.9-6C379.5,300.5,377,298.2,373.6,298.2 M374.9,308l-1.3-2.7h-0.9v2.7h-2.2v-8.1h3.6
			c1.9,0,3.1,0.7,3.1,2.6c0,1.2-0.6,2-1.5,2.4l1.6,3.1H374.9z M374,301.7h-1.4v1.8h1.3c0.7,0,1-0.3,1-0.9
			C375,302.1,374.7,301.7,374,301.7"/>
	</g>
</g>
</svg>
